G75*
%MOIN*%
%OFA0B0*%
%FSLAX25Y25*%
%IPPOS*%
%LPD*%
%AMOC8*
5,1,8,0,0,1.08239X$1,22.5*
%
%ADD10C,0.00787*%
%ADD11C,0.00400*%
%ADD12C,0.00600*%
%ADD13C,0.03000*%
%ADD14R,0.02000X0.03000*%
%ADD15R,0.04000X0.03000*%
%ADD16C,0.00500*%
D10*
X0030734Y0118364D02*
X0030734Y0152553D01*
X0043332Y0152553D01*
X0043332Y0118364D01*
X0030734Y0118364D01*
X0029356Y0153214D02*
X0023352Y0153214D01*
X0021679Y0157112D02*
X0021679Y0165970D01*
X0021679Y0174828D02*
X0052387Y0174828D01*
X0052387Y0165970D02*
X0052387Y0157112D01*
X0046530Y0153509D02*
X0046532Y0153528D01*
X0046537Y0153547D01*
X0046547Y0153563D01*
X0046559Y0153578D01*
X0046574Y0153590D01*
X0046590Y0153600D01*
X0046609Y0153605D01*
X0046628Y0153607D01*
X0046647Y0153605D01*
X0046666Y0153600D01*
X0046682Y0153590D01*
X0046697Y0153578D01*
X0046709Y0153563D01*
X0046719Y0153547D01*
X0046724Y0153528D01*
X0046726Y0153509D01*
X0046724Y0153490D01*
X0046719Y0153471D01*
X0046709Y0153455D01*
X0046697Y0153440D01*
X0046682Y0153428D01*
X0046666Y0153418D01*
X0046647Y0153413D01*
X0046628Y0153411D01*
X0046609Y0153413D01*
X0046590Y0153418D01*
X0046574Y0153428D01*
X0046559Y0153440D01*
X0046547Y0153455D01*
X0046537Y0153471D01*
X0046532Y0153490D01*
X0046530Y0153509D01*
X0049631Y0237033D02*
X0049631Y0237033D01*
X0049631Y0237033D01*
X0049658Y0237035D01*
X0049684Y0237040D01*
X0049709Y0237049D01*
X0049733Y0237062D01*
X0049755Y0237077D01*
X0049775Y0237096D01*
X0049792Y0237116D01*
X0049806Y0237139D01*
X0049817Y0237164D01*
X0049824Y0237190D01*
X0049828Y0237217D01*
X0049828Y0237243D01*
X0049824Y0237270D01*
X0049817Y0237296D01*
X0049806Y0237321D01*
X0049792Y0237344D01*
X0049775Y0237364D01*
X0049755Y0237383D01*
X0049733Y0237398D01*
X0049709Y0237411D01*
X0049684Y0237420D01*
X0049658Y0237425D01*
X0049631Y0237427D01*
X0049631Y0237427D01*
X0049604Y0237425D01*
X0049578Y0237420D01*
X0049553Y0237411D01*
X0049529Y0237398D01*
X0049507Y0237383D01*
X0049487Y0237364D01*
X0049470Y0237344D01*
X0049456Y0237321D01*
X0049445Y0237296D01*
X0049438Y0237270D01*
X0049434Y0237243D01*
X0049434Y0237217D01*
X0049438Y0237190D01*
X0049445Y0237164D01*
X0049456Y0237139D01*
X0049470Y0237116D01*
X0049487Y0237096D01*
X0049507Y0237077D01*
X0049529Y0237062D01*
X0049553Y0237049D01*
X0049578Y0237040D01*
X0049604Y0237035D01*
X0049631Y0237033D01*
X0049658Y0237035D01*
X0049684Y0237040D01*
X0049709Y0237049D01*
X0049733Y0237062D01*
X0049755Y0237077D01*
X0049775Y0237096D01*
X0049792Y0237116D01*
X0049806Y0237139D01*
X0049817Y0237164D01*
X0049824Y0237190D01*
X0049828Y0237217D01*
X0049828Y0237243D01*
X0049824Y0237270D01*
X0049817Y0237296D01*
X0049806Y0237321D01*
X0049792Y0237344D01*
X0049775Y0237364D01*
X0049755Y0237383D01*
X0049733Y0237398D01*
X0049709Y0237411D01*
X0049684Y0237420D01*
X0049658Y0237425D01*
X0049631Y0237427D01*
X0054631Y0269317D02*
X0054631Y0270301D01*
X0019435Y0270301D01*
X0019435Y0269317D01*
D11*
X0032765Y0109825D02*
X0032765Y0105225D01*
X0032765Y0107270D02*
X0034042Y0107270D01*
X0034298Y0107270D02*
X0035320Y0105225D01*
X0037236Y0105225D02*
X0039791Y0105225D01*
X0037236Y0105225D02*
X0039408Y0107781D01*
X0038641Y0109825D02*
X0038567Y0109823D01*
X0038493Y0109818D01*
X0038419Y0109808D01*
X0038346Y0109795D01*
X0038273Y0109779D01*
X0038202Y0109758D01*
X0038132Y0109734D01*
X0038063Y0109707D01*
X0037995Y0109676D01*
X0037929Y0109642D01*
X0037865Y0109605D01*
X0037803Y0109564D01*
X0037743Y0109520D01*
X0037685Y0109474D01*
X0037629Y0109424D01*
X0037576Y0109372D01*
X0037526Y0109317D01*
X0037479Y0109260D01*
X0037435Y0109200D01*
X0037393Y0109138D01*
X0037355Y0109075D01*
X0037320Y0109009D01*
X0037289Y0108942D01*
X0037261Y0108873D01*
X0037236Y0108803D01*
X0039408Y0107781D02*
X0039455Y0107828D01*
X0039499Y0107878D01*
X0039541Y0107930D01*
X0039580Y0107984D01*
X0039615Y0108040D01*
X0039648Y0108098D01*
X0039678Y0108158D01*
X0039704Y0108219D01*
X0039727Y0108282D01*
X0039746Y0108346D01*
X0039762Y0108410D01*
X0039775Y0108476D01*
X0039784Y0108542D01*
X0039789Y0108608D01*
X0039791Y0108675D01*
X0039789Y0108742D01*
X0039783Y0108809D01*
X0039774Y0108875D01*
X0039760Y0108940D01*
X0039743Y0109005D01*
X0039722Y0109068D01*
X0039697Y0109130D01*
X0039669Y0109191D01*
X0039637Y0109250D01*
X0039602Y0109307D01*
X0039563Y0109362D01*
X0039522Y0109414D01*
X0039477Y0109464D01*
X0039430Y0109511D01*
X0039380Y0109556D01*
X0039328Y0109597D01*
X0039273Y0109636D01*
X0039216Y0109671D01*
X0039157Y0109703D01*
X0039096Y0109731D01*
X0039034Y0109756D01*
X0038971Y0109777D01*
X0038906Y0109794D01*
X0038841Y0109808D01*
X0038775Y0109817D01*
X0038708Y0109823D01*
X0038641Y0109825D01*
X0034042Y0109825D02*
X0032765Y0109825D01*
X0034042Y0109825D02*
X0034112Y0109823D01*
X0034183Y0109817D01*
X0034252Y0109808D01*
X0034321Y0109794D01*
X0034390Y0109777D01*
X0034457Y0109756D01*
X0034523Y0109731D01*
X0034587Y0109703D01*
X0034650Y0109671D01*
X0034711Y0109636D01*
X0034770Y0109597D01*
X0034827Y0109556D01*
X0034881Y0109511D01*
X0034933Y0109463D01*
X0034982Y0109413D01*
X0035029Y0109359D01*
X0035072Y0109304D01*
X0035112Y0109246D01*
X0035149Y0109186D01*
X0035182Y0109124D01*
X0035212Y0109060D01*
X0035239Y0108995D01*
X0035262Y0108929D01*
X0035281Y0108861D01*
X0035296Y0108792D01*
X0035308Y0108723D01*
X0035316Y0108653D01*
X0035320Y0108582D01*
X0035320Y0108512D01*
X0035316Y0108441D01*
X0035308Y0108371D01*
X0035296Y0108302D01*
X0035281Y0108233D01*
X0035262Y0108165D01*
X0035239Y0108099D01*
X0035212Y0108034D01*
X0035182Y0107970D01*
X0035149Y0107908D01*
X0035112Y0107848D01*
X0035072Y0107790D01*
X0035029Y0107735D01*
X0034982Y0107681D01*
X0034933Y0107631D01*
X0034881Y0107583D01*
X0034827Y0107538D01*
X0034770Y0107497D01*
X0034711Y0107458D01*
X0034650Y0107423D01*
X0034587Y0107391D01*
X0034523Y0107363D01*
X0034457Y0107338D01*
X0034390Y0107317D01*
X0034321Y0107300D01*
X0034252Y0107286D01*
X0034183Y0107277D01*
X0034112Y0107271D01*
X0034042Y0107269D01*
X0034432Y0125284D02*
X0035454Y0125284D01*
X0034943Y0125284D02*
X0034943Y0129884D01*
X0034432Y0129884D02*
X0035454Y0129884D01*
X0037252Y0128862D02*
X0037252Y0126306D01*
X0037253Y0126306D02*
X0037255Y0126244D01*
X0037260Y0126183D01*
X0037270Y0126122D01*
X0037283Y0126061D01*
X0037299Y0126002D01*
X0037319Y0125944D01*
X0037343Y0125887D01*
X0037370Y0125831D01*
X0037400Y0125777D01*
X0037434Y0125725D01*
X0037470Y0125676D01*
X0037510Y0125628D01*
X0037552Y0125583D01*
X0037597Y0125541D01*
X0037645Y0125501D01*
X0037694Y0125465D01*
X0037746Y0125431D01*
X0037800Y0125401D01*
X0037856Y0125374D01*
X0037913Y0125350D01*
X0037971Y0125330D01*
X0038030Y0125314D01*
X0038091Y0125301D01*
X0038152Y0125291D01*
X0038213Y0125286D01*
X0038275Y0125284D01*
X0039297Y0125284D01*
X0037253Y0128862D02*
X0037255Y0128924D01*
X0037260Y0128985D01*
X0037270Y0129046D01*
X0037283Y0129107D01*
X0037299Y0129166D01*
X0037319Y0129224D01*
X0037343Y0129281D01*
X0037370Y0129337D01*
X0037400Y0129391D01*
X0037434Y0129443D01*
X0037470Y0129492D01*
X0037510Y0129540D01*
X0037552Y0129585D01*
X0037597Y0129627D01*
X0037645Y0129666D01*
X0037694Y0129703D01*
X0037746Y0129737D01*
X0037800Y0129767D01*
X0037856Y0129794D01*
X0037913Y0129818D01*
X0037971Y0129838D01*
X0038030Y0129854D01*
X0038091Y0129867D01*
X0038152Y0129877D01*
X0038213Y0129882D01*
X0038275Y0129884D01*
X0039297Y0129884D01*
X0043188Y0127840D02*
X0041015Y0125284D01*
X0043571Y0125284D01*
X0041016Y0128862D02*
X0041041Y0128932D01*
X0041069Y0129001D01*
X0041100Y0129068D01*
X0041135Y0129134D01*
X0041173Y0129197D01*
X0041215Y0129259D01*
X0041259Y0129319D01*
X0041306Y0129376D01*
X0041356Y0129431D01*
X0041409Y0129483D01*
X0041465Y0129533D01*
X0041523Y0129579D01*
X0041583Y0129623D01*
X0041645Y0129664D01*
X0041709Y0129701D01*
X0041775Y0129735D01*
X0041843Y0129766D01*
X0041912Y0129793D01*
X0041982Y0129817D01*
X0042053Y0129838D01*
X0042126Y0129854D01*
X0042199Y0129867D01*
X0042273Y0129877D01*
X0042347Y0129882D01*
X0042421Y0129884D01*
X0042488Y0129882D01*
X0042555Y0129876D01*
X0042621Y0129867D01*
X0042686Y0129853D01*
X0042751Y0129836D01*
X0042814Y0129815D01*
X0042876Y0129790D01*
X0042937Y0129762D01*
X0042996Y0129730D01*
X0043053Y0129695D01*
X0043108Y0129656D01*
X0043160Y0129615D01*
X0043210Y0129570D01*
X0043257Y0129523D01*
X0043302Y0129473D01*
X0043343Y0129421D01*
X0043382Y0129366D01*
X0043417Y0129309D01*
X0043449Y0129250D01*
X0043477Y0129189D01*
X0043502Y0129127D01*
X0043523Y0129064D01*
X0043540Y0128999D01*
X0043554Y0128934D01*
X0043563Y0128868D01*
X0043569Y0128801D01*
X0043571Y0128734D01*
X0043569Y0128667D01*
X0043564Y0128601D01*
X0043555Y0128535D01*
X0043542Y0128469D01*
X0043526Y0128405D01*
X0043507Y0128341D01*
X0043484Y0128278D01*
X0043458Y0128217D01*
X0043428Y0128157D01*
X0043395Y0128099D01*
X0043360Y0128043D01*
X0043321Y0127989D01*
X0043279Y0127937D01*
X0043235Y0127887D01*
X0043188Y0127840D01*
X0054044Y0107229D02*
X0057622Y0106207D01*
X0057622Y0108762D01*
X0056600Y0107996D02*
X0058644Y0107996D01*
X0058644Y0104488D02*
X0058644Y0103466D01*
X0058642Y0103404D01*
X0058637Y0103343D01*
X0058627Y0103282D01*
X0058614Y0103221D01*
X0058598Y0103162D01*
X0058578Y0103104D01*
X0058554Y0103047D01*
X0058527Y0102991D01*
X0058497Y0102937D01*
X0058463Y0102885D01*
X0058427Y0102836D01*
X0058387Y0102788D01*
X0058345Y0102743D01*
X0058300Y0102701D01*
X0058252Y0102661D01*
X0058203Y0102625D01*
X0058151Y0102591D01*
X0058097Y0102561D01*
X0058041Y0102534D01*
X0057984Y0102510D01*
X0057926Y0102490D01*
X0057867Y0102474D01*
X0057806Y0102461D01*
X0057745Y0102451D01*
X0057684Y0102446D01*
X0057622Y0102444D01*
X0055066Y0102444D01*
X0055004Y0102446D01*
X0054943Y0102451D01*
X0054882Y0102461D01*
X0054821Y0102474D01*
X0054762Y0102490D01*
X0054704Y0102510D01*
X0054647Y0102534D01*
X0054591Y0102561D01*
X0054537Y0102591D01*
X0054485Y0102625D01*
X0054436Y0102661D01*
X0054388Y0102701D01*
X0054343Y0102743D01*
X0054301Y0102788D01*
X0054262Y0102836D01*
X0054225Y0102885D01*
X0054191Y0102937D01*
X0054161Y0102991D01*
X0054134Y0103047D01*
X0054110Y0103104D01*
X0054090Y0103162D01*
X0054074Y0103221D01*
X0054061Y0103282D01*
X0054051Y0103343D01*
X0054046Y0103404D01*
X0054044Y0103466D01*
X0054044Y0104488D01*
X0063887Y0104953D02*
X0068487Y0104953D01*
X0068487Y0103675D02*
X0068487Y0106231D01*
X0068487Y0108175D02*
X0068487Y0109453D01*
X0068485Y0109523D01*
X0068479Y0109594D01*
X0068470Y0109663D01*
X0068456Y0109732D01*
X0068439Y0109801D01*
X0068418Y0109868D01*
X0068393Y0109934D01*
X0068365Y0109998D01*
X0068333Y0110061D01*
X0068298Y0110122D01*
X0068259Y0110181D01*
X0068218Y0110238D01*
X0068173Y0110292D01*
X0068125Y0110344D01*
X0068075Y0110393D01*
X0068021Y0110440D01*
X0067966Y0110483D01*
X0067908Y0110523D01*
X0067848Y0110560D01*
X0067786Y0110593D01*
X0067722Y0110623D01*
X0067657Y0110650D01*
X0067591Y0110673D01*
X0067523Y0110692D01*
X0067454Y0110707D01*
X0067385Y0110719D01*
X0067315Y0110727D01*
X0067244Y0110731D01*
X0067174Y0110731D01*
X0067103Y0110727D01*
X0067033Y0110719D01*
X0066964Y0110707D01*
X0066895Y0110692D01*
X0066827Y0110673D01*
X0066761Y0110650D01*
X0066696Y0110623D01*
X0066632Y0110593D01*
X0066570Y0110560D01*
X0066510Y0110523D01*
X0066452Y0110483D01*
X0066397Y0110440D01*
X0066343Y0110393D01*
X0066293Y0110344D01*
X0066245Y0110292D01*
X0066200Y0110238D01*
X0066159Y0110181D01*
X0066120Y0110122D01*
X0066085Y0110061D01*
X0066053Y0109998D01*
X0066025Y0109934D01*
X0066000Y0109868D01*
X0065979Y0109801D01*
X0065962Y0109732D01*
X0065948Y0109663D01*
X0065939Y0109594D01*
X0065933Y0109523D01*
X0065931Y0109453D01*
X0065931Y0109708D02*
X0065931Y0108686D01*
X0065931Y0109708D02*
X0065929Y0109771D01*
X0065923Y0109834D01*
X0065914Y0109896D01*
X0065900Y0109957D01*
X0065883Y0110018D01*
X0065862Y0110077D01*
X0065837Y0110135D01*
X0065809Y0110192D01*
X0065778Y0110246D01*
X0065743Y0110298D01*
X0065705Y0110349D01*
X0065664Y0110397D01*
X0065620Y0110442D01*
X0065574Y0110484D01*
X0065525Y0110524D01*
X0065474Y0110560D01*
X0065420Y0110593D01*
X0065365Y0110623D01*
X0065307Y0110649D01*
X0065249Y0110672D01*
X0065189Y0110691D01*
X0065128Y0110706D01*
X0065066Y0110718D01*
X0065003Y0110726D01*
X0064940Y0110730D01*
X0064878Y0110730D01*
X0064815Y0110726D01*
X0064752Y0110718D01*
X0064690Y0110706D01*
X0064629Y0110691D01*
X0064569Y0110672D01*
X0064511Y0110649D01*
X0064453Y0110623D01*
X0064398Y0110593D01*
X0064344Y0110560D01*
X0064293Y0110524D01*
X0064244Y0110484D01*
X0064198Y0110442D01*
X0064154Y0110397D01*
X0064113Y0110349D01*
X0064075Y0110298D01*
X0064040Y0110246D01*
X0064009Y0110192D01*
X0063981Y0110135D01*
X0063956Y0110077D01*
X0063935Y0110018D01*
X0063918Y0109957D01*
X0063904Y0109896D01*
X0063895Y0109834D01*
X0063889Y0109771D01*
X0063887Y0109708D01*
X0063887Y0108175D01*
X0063887Y0104953D02*
X0064909Y0103675D01*
X0063887Y0101957D02*
X0063887Y0100934D01*
X0063889Y0100872D01*
X0063894Y0100811D01*
X0063904Y0100750D01*
X0063917Y0100689D01*
X0063933Y0100630D01*
X0063953Y0100572D01*
X0063977Y0100515D01*
X0064004Y0100459D01*
X0064034Y0100405D01*
X0064068Y0100353D01*
X0064105Y0100304D01*
X0064144Y0100256D01*
X0064186Y0100211D01*
X0064231Y0100169D01*
X0064279Y0100129D01*
X0064328Y0100093D01*
X0064380Y0100059D01*
X0064434Y0100029D01*
X0064490Y0100002D01*
X0064547Y0099978D01*
X0064605Y0099958D01*
X0064664Y0099942D01*
X0064725Y0099929D01*
X0064786Y0099919D01*
X0064847Y0099914D01*
X0064909Y0099912D01*
X0067464Y0099912D01*
X0067526Y0099914D01*
X0067587Y0099919D01*
X0067648Y0099929D01*
X0067709Y0099942D01*
X0067768Y0099958D01*
X0067826Y0099978D01*
X0067883Y0100002D01*
X0067939Y0100029D01*
X0067993Y0100059D01*
X0068045Y0100093D01*
X0068094Y0100129D01*
X0068142Y0100169D01*
X0068187Y0100211D01*
X0068229Y0100256D01*
X0068269Y0100304D01*
X0068305Y0100353D01*
X0068339Y0100405D01*
X0068369Y0100459D01*
X0068396Y0100515D01*
X0068420Y0100572D01*
X0068440Y0100630D01*
X0068456Y0100689D01*
X0068469Y0100750D01*
X0068479Y0100811D01*
X0068484Y0100872D01*
X0068486Y0100934D01*
X0068487Y0100934D02*
X0068487Y0101957D01*
X0040991Y0166966D02*
X0039969Y0166966D01*
X0040991Y0166966D02*
X0041054Y0166968D01*
X0041117Y0166974D01*
X0041179Y0166983D01*
X0041240Y0166997D01*
X0041301Y0167014D01*
X0041360Y0167035D01*
X0041418Y0167060D01*
X0041475Y0167088D01*
X0041529Y0167119D01*
X0041581Y0167154D01*
X0041632Y0167192D01*
X0041680Y0167233D01*
X0041725Y0167277D01*
X0041767Y0167323D01*
X0041807Y0167372D01*
X0041843Y0167423D01*
X0041876Y0167477D01*
X0041906Y0167532D01*
X0041932Y0167590D01*
X0041955Y0167648D01*
X0041974Y0167708D01*
X0041989Y0167769D01*
X0042001Y0167831D01*
X0042009Y0167894D01*
X0042013Y0167957D01*
X0042013Y0168019D01*
X0042009Y0168082D01*
X0042001Y0168145D01*
X0041989Y0168207D01*
X0041974Y0168268D01*
X0041955Y0168328D01*
X0041932Y0168386D01*
X0041906Y0168444D01*
X0041876Y0168499D01*
X0041843Y0168553D01*
X0041807Y0168604D01*
X0041767Y0168653D01*
X0041725Y0168699D01*
X0041680Y0168743D01*
X0041632Y0168784D01*
X0041581Y0168822D01*
X0041529Y0168857D01*
X0041475Y0168888D01*
X0041418Y0168916D01*
X0041360Y0168941D01*
X0041301Y0168962D01*
X0041240Y0168979D01*
X0041179Y0168993D01*
X0041117Y0169002D01*
X0041054Y0169008D01*
X0040991Y0169010D01*
X0039458Y0169010D01*
X0037382Y0169010D02*
X0037382Y0165432D01*
X0037381Y0165432D02*
X0037379Y0165370D01*
X0037374Y0165309D01*
X0037364Y0165248D01*
X0037351Y0165187D01*
X0037335Y0165128D01*
X0037315Y0165070D01*
X0037291Y0165013D01*
X0037264Y0164957D01*
X0037234Y0164903D01*
X0037200Y0164851D01*
X0037164Y0164802D01*
X0037124Y0164754D01*
X0037082Y0164709D01*
X0037037Y0164667D01*
X0036989Y0164627D01*
X0036940Y0164591D01*
X0036888Y0164557D01*
X0036834Y0164527D01*
X0036778Y0164500D01*
X0036721Y0164476D01*
X0036663Y0164456D01*
X0036604Y0164440D01*
X0036543Y0164427D01*
X0036482Y0164417D01*
X0036421Y0164412D01*
X0036359Y0164410D01*
X0035848Y0164410D01*
X0039458Y0164410D02*
X0040735Y0164410D01*
X0040805Y0164412D01*
X0040876Y0164418D01*
X0040945Y0164427D01*
X0041014Y0164441D01*
X0041083Y0164458D01*
X0041150Y0164479D01*
X0041216Y0164504D01*
X0041280Y0164532D01*
X0041343Y0164564D01*
X0041404Y0164599D01*
X0041463Y0164638D01*
X0041520Y0164679D01*
X0041574Y0164724D01*
X0041626Y0164772D01*
X0041675Y0164822D01*
X0041722Y0164876D01*
X0041765Y0164931D01*
X0041805Y0164989D01*
X0041842Y0165049D01*
X0041875Y0165111D01*
X0041905Y0165175D01*
X0041932Y0165240D01*
X0041955Y0165306D01*
X0041974Y0165374D01*
X0041989Y0165443D01*
X0042001Y0165512D01*
X0042009Y0165582D01*
X0042013Y0165653D01*
X0042013Y0165723D01*
X0042009Y0165794D01*
X0042001Y0165864D01*
X0041989Y0165933D01*
X0041974Y0166002D01*
X0041955Y0166070D01*
X0041932Y0166136D01*
X0041905Y0166201D01*
X0041875Y0166265D01*
X0041842Y0166327D01*
X0041805Y0166387D01*
X0041765Y0166445D01*
X0041722Y0166500D01*
X0041675Y0166554D01*
X0041626Y0166604D01*
X0041574Y0166652D01*
X0041520Y0166697D01*
X0041463Y0166738D01*
X0041404Y0166777D01*
X0041343Y0166812D01*
X0041280Y0166844D01*
X0041216Y0166872D01*
X0041150Y0166897D01*
X0041083Y0166918D01*
X0041014Y0166935D01*
X0040945Y0166949D01*
X0040876Y0166958D01*
X0040805Y0166964D01*
X0040735Y0166966D01*
X0041600Y0188670D02*
X0041600Y0189948D01*
X0041600Y0190203D02*
X0043644Y0191226D01*
X0043644Y0193141D02*
X0043644Y0194419D01*
X0043642Y0194489D01*
X0043636Y0194560D01*
X0043627Y0194629D01*
X0043613Y0194698D01*
X0043596Y0194767D01*
X0043575Y0194834D01*
X0043550Y0194900D01*
X0043522Y0194964D01*
X0043490Y0195027D01*
X0043455Y0195088D01*
X0043416Y0195147D01*
X0043375Y0195204D01*
X0043330Y0195258D01*
X0043282Y0195310D01*
X0043232Y0195359D01*
X0043178Y0195406D01*
X0043123Y0195449D01*
X0043065Y0195489D01*
X0043005Y0195526D01*
X0042943Y0195559D01*
X0042879Y0195589D01*
X0042814Y0195616D01*
X0042748Y0195639D01*
X0042680Y0195658D01*
X0042611Y0195673D01*
X0042542Y0195685D01*
X0042472Y0195693D01*
X0042401Y0195697D01*
X0042331Y0195697D01*
X0042260Y0195693D01*
X0042190Y0195685D01*
X0042121Y0195673D01*
X0042052Y0195658D01*
X0041984Y0195639D01*
X0041918Y0195616D01*
X0041853Y0195589D01*
X0041789Y0195559D01*
X0041727Y0195526D01*
X0041667Y0195489D01*
X0041609Y0195449D01*
X0041554Y0195406D01*
X0041500Y0195359D01*
X0041450Y0195310D01*
X0041402Y0195258D01*
X0041357Y0195204D01*
X0041316Y0195147D01*
X0041277Y0195088D01*
X0041242Y0195027D01*
X0041210Y0194964D01*
X0041182Y0194900D01*
X0041157Y0194834D01*
X0041136Y0194767D01*
X0041119Y0194698D01*
X0041105Y0194629D01*
X0041096Y0194560D01*
X0041090Y0194489D01*
X0041088Y0194419D01*
X0041089Y0194674D02*
X0041089Y0193652D01*
X0041088Y0194674D02*
X0041086Y0194737D01*
X0041080Y0194800D01*
X0041071Y0194862D01*
X0041057Y0194923D01*
X0041040Y0194984D01*
X0041019Y0195043D01*
X0040994Y0195101D01*
X0040966Y0195158D01*
X0040935Y0195212D01*
X0040900Y0195264D01*
X0040862Y0195315D01*
X0040821Y0195363D01*
X0040777Y0195408D01*
X0040731Y0195450D01*
X0040682Y0195490D01*
X0040631Y0195526D01*
X0040577Y0195559D01*
X0040522Y0195589D01*
X0040464Y0195615D01*
X0040406Y0195638D01*
X0040346Y0195657D01*
X0040285Y0195672D01*
X0040223Y0195684D01*
X0040160Y0195692D01*
X0040097Y0195696D01*
X0040035Y0195696D01*
X0039972Y0195692D01*
X0039909Y0195684D01*
X0039847Y0195672D01*
X0039786Y0195657D01*
X0039726Y0195638D01*
X0039668Y0195615D01*
X0039610Y0195589D01*
X0039555Y0195559D01*
X0039501Y0195526D01*
X0039450Y0195490D01*
X0039401Y0195450D01*
X0039355Y0195408D01*
X0039311Y0195363D01*
X0039270Y0195315D01*
X0039232Y0195264D01*
X0039197Y0195212D01*
X0039166Y0195158D01*
X0039138Y0195101D01*
X0039113Y0195043D01*
X0039092Y0194984D01*
X0039075Y0194923D01*
X0039061Y0194862D01*
X0039052Y0194800D01*
X0039046Y0194737D01*
X0039044Y0194674D01*
X0039044Y0193141D01*
X0039044Y0189948D02*
X0039044Y0188670D01*
X0043644Y0188670D01*
X0041600Y0189948D02*
X0041598Y0190018D01*
X0041592Y0190089D01*
X0041583Y0190158D01*
X0041569Y0190227D01*
X0041552Y0190296D01*
X0041531Y0190363D01*
X0041506Y0190429D01*
X0041478Y0190493D01*
X0041446Y0190556D01*
X0041411Y0190617D01*
X0041372Y0190676D01*
X0041331Y0190733D01*
X0041286Y0190787D01*
X0041238Y0190839D01*
X0041188Y0190888D01*
X0041134Y0190935D01*
X0041079Y0190978D01*
X0041021Y0191018D01*
X0040961Y0191055D01*
X0040899Y0191088D01*
X0040835Y0191118D01*
X0040770Y0191145D01*
X0040704Y0191168D01*
X0040636Y0191187D01*
X0040567Y0191202D01*
X0040498Y0191214D01*
X0040428Y0191222D01*
X0040357Y0191226D01*
X0040287Y0191226D01*
X0040216Y0191222D01*
X0040146Y0191214D01*
X0040077Y0191202D01*
X0040008Y0191187D01*
X0039940Y0191168D01*
X0039874Y0191145D01*
X0039809Y0191118D01*
X0039745Y0191088D01*
X0039683Y0191055D01*
X0039623Y0191018D01*
X0039565Y0190978D01*
X0039510Y0190935D01*
X0039456Y0190888D01*
X0039406Y0190839D01*
X0039358Y0190787D01*
X0039313Y0190733D01*
X0039272Y0190676D01*
X0039233Y0190617D01*
X0039198Y0190556D01*
X0039166Y0190493D01*
X0039138Y0190429D01*
X0039113Y0190363D01*
X0039092Y0190296D01*
X0039075Y0190227D01*
X0039061Y0190158D01*
X0039052Y0190089D01*
X0039046Y0190018D01*
X0039044Y0189948D01*
X0035376Y0189555D02*
X0035376Y0190577D01*
X0035376Y0189555D02*
X0035374Y0189493D01*
X0035369Y0189432D01*
X0035359Y0189371D01*
X0035346Y0189310D01*
X0035330Y0189251D01*
X0035310Y0189193D01*
X0035286Y0189136D01*
X0035259Y0189080D01*
X0035229Y0189026D01*
X0035195Y0188974D01*
X0035159Y0188925D01*
X0035119Y0188877D01*
X0035077Y0188832D01*
X0035032Y0188790D01*
X0034984Y0188750D01*
X0034935Y0188714D01*
X0034883Y0188680D01*
X0034829Y0188650D01*
X0034773Y0188623D01*
X0034716Y0188599D01*
X0034658Y0188579D01*
X0034599Y0188563D01*
X0034538Y0188550D01*
X0034477Y0188540D01*
X0034416Y0188535D01*
X0034354Y0188533D01*
X0034354Y0188532D02*
X0031799Y0188532D01*
X0031799Y0188533D02*
X0031737Y0188535D01*
X0031676Y0188540D01*
X0031615Y0188550D01*
X0031554Y0188563D01*
X0031495Y0188579D01*
X0031437Y0188599D01*
X0031380Y0188623D01*
X0031324Y0188650D01*
X0031270Y0188680D01*
X0031218Y0188714D01*
X0031169Y0188750D01*
X0031121Y0188790D01*
X0031076Y0188832D01*
X0031034Y0188877D01*
X0030995Y0188925D01*
X0030958Y0188974D01*
X0030924Y0189026D01*
X0030894Y0189080D01*
X0030867Y0189136D01*
X0030843Y0189193D01*
X0030823Y0189251D01*
X0030807Y0189310D01*
X0030794Y0189371D01*
X0030784Y0189432D01*
X0030779Y0189493D01*
X0030777Y0189555D01*
X0030776Y0189555D02*
X0030776Y0190577D01*
X0031799Y0192295D02*
X0030776Y0193573D01*
X0035376Y0193573D01*
X0035376Y0192295D02*
X0035376Y0194851D01*
X0035376Y0198073D02*
X0030776Y0199351D01*
X0030776Y0196795D01*
X0031287Y0196795D01*
X0044411Y0212272D02*
X0045433Y0212272D01*
X0044411Y0212273D02*
X0044349Y0212275D01*
X0044288Y0212280D01*
X0044227Y0212290D01*
X0044166Y0212303D01*
X0044107Y0212319D01*
X0044049Y0212339D01*
X0043992Y0212363D01*
X0043936Y0212390D01*
X0043882Y0212420D01*
X0043830Y0212454D01*
X0043781Y0212490D01*
X0043733Y0212530D01*
X0043688Y0212572D01*
X0043646Y0212617D01*
X0043606Y0212665D01*
X0043570Y0212714D01*
X0043536Y0212766D01*
X0043506Y0212820D01*
X0043479Y0212876D01*
X0043455Y0212933D01*
X0043435Y0212991D01*
X0043419Y0213050D01*
X0043406Y0213111D01*
X0043396Y0213172D01*
X0043391Y0213233D01*
X0043389Y0213295D01*
X0043388Y0213295D02*
X0043388Y0215850D01*
X0043389Y0215850D02*
X0043391Y0215912D01*
X0043396Y0215973D01*
X0043406Y0216034D01*
X0043419Y0216095D01*
X0043435Y0216154D01*
X0043455Y0216212D01*
X0043479Y0216269D01*
X0043506Y0216325D01*
X0043536Y0216379D01*
X0043570Y0216431D01*
X0043606Y0216480D01*
X0043646Y0216528D01*
X0043688Y0216573D01*
X0043733Y0216615D01*
X0043781Y0216654D01*
X0043830Y0216691D01*
X0043882Y0216725D01*
X0043936Y0216755D01*
X0043992Y0216782D01*
X0044049Y0216806D01*
X0044107Y0216826D01*
X0044166Y0216842D01*
X0044227Y0216855D01*
X0044288Y0216865D01*
X0044349Y0216870D01*
X0044411Y0216872D01*
X0045433Y0216872D01*
X0047152Y0215595D02*
X0047152Y0215339D01*
X0047154Y0215277D01*
X0047159Y0215216D01*
X0047169Y0215155D01*
X0047182Y0215094D01*
X0047198Y0215035D01*
X0047218Y0214977D01*
X0047242Y0214920D01*
X0047269Y0214864D01*
X0047299Y0214810D01*
X0047333Y0214758D01*
X0047369Y0214709D01*
X0047409Y0214661D01*
X0047451Y0214616D01*
X0047496Y0214574D01*
X0047544Y0214534D01*
X0047593Y0214498D01*
X0047645Y0214464D01*
X0047699Y0214434D01*
X0047755Y0214407D01*
X0047812Y0214383D01*
X0047870Y0214363D01*
X0047929Y0214347D01*
X0047990Y0214334D01*
X0048051Y0214324D01*
X0048112Y0214319D01*
X0048174Y0214317D01*
X0049707Y0214317D01*
X0049707Y0215595D01*
X0049705Y0215665D01*
X0049699Y0215736D01*
X0049690Y0215805D01*
X0049676Y0215874D01*
X0049659Y0215943D01*
X0049638Y0216010D01*
X0049613Y0216076D01*
X0049585Y0216140D01*
X0049553Y0216203D01*
X0049518Y0216264D01*
X0049479Y0216323D01*
X0049438Y0216380D01*
X0049393Y0216434D01*
X0049345Y0216486D01*
X0049295Y0216535D01*
X0049241Y0216582D01*
X0049186Y0216625D01*
X0049128Y0216665D01*
X0049068Y0216702D01*
X0049006Y0216735D01*
X0048942Y0216765D01*
X0048877Y0216792D01*
X0048811Y0216815D01*
X0048743Y0216834D01*
X0048674Y0216849D01*
X0048605Y0216861D01*
X0048535Y0216869D01*
X0048464Y0216873D01*
X0048394Y0216873D01*
X0048323Y0216869D01*
X0048253Y0216861D01*
X0048184Y0216849D01*
X0048115Y0216834D01*
X0048047Y0216815D01*
X0047981Y0216792D01*
X0047916Y0216765D01*
X0047852Y0216735D01*
X0047790Y0216702D01*
X0047730Y0216665D01*
X0047672Y0216625D01*
X0047617Y0216582D01*
X0047563Y0216535D01*
X0047513Y0216486D01*
X0047465Y0216434D01*
X0047420Y0216380D01*
X0047379Y0216323D01*
X0047340Y0216264D01*
X0047305Y0216203D01*
X0047273Y0216140D01*
X0047245Y0216076D01*
X0047220Y0216010D01*
X0047199Y0215943D01*
X0047182Y0215874D01*
X0047168Y0215805D01*
X0047159Y0215736D01*
X0047153Y0215665D01*
X0047151Y0215595D01*
X0049707Y0214317D02*
X0049705Y0214228D01*
X0049699Y0214139D01*
X0049690Y0214050D01*
X0049676Y0213962D01*
X0049659Y0213875D01*
X0049637Y0213788D01*
X0049612Y0213702D01*
X0049584Y0213618D01*
X0049551Y0213535D01*
X0049515Y0213453D01*
X0049476Y0213373D01*
X0049433Y0213295D01*
X0049387Y0213219D01*
X0049337Y0213145D01*
X0049285Y0213073D01*
X0049229Y0213003D01*
X0049170Y0212936D01*
X0049108Y0212872D01*
X0049044Y0212810D01*
X0048977Y0212751D01*
X0048907Y0212695D01*
X0048835Y0212643D01*
X0048761Y0212593D01*
X0048685Y0212547D01*
X0048607Y0212504D01*
X0048527Y0212465D01*
X0048445Y0212429D01*
X0048362Y0212396D01*
X0048278Y0212368D01*
X0048192Y0212343D01*
X0048105Y0212321D01*
X0048018Y0212304D01*
X0047930Y0212290D01*
X0047841Y0212281D01*
X0047752Y0212275D01*
X0047663Y0212273D01*
X0045433Y0220146D02*
X0044411Y0220146D01*
X0044411Y0220147D02*
X0044349Y0220149D01*
X0044288Y0220154D01*
X0044227Y0220164D01*
X0044166Y0220177D01*
X0044107Y0220193D01*
X0044049Y0220213D01*
X0043992Y0220237D01*
X0043936Y0220264D01*
X0043882Y0220294D01*
X0043830Y0220328D01*
X0043781Y0220364D01*
X0043733Y0220404D01*
X0043688Y0220446D01*
X0043646Y0220491D01*
X0043606Y0220539D01*
X0043570Y0220588D01*
X0043536Y0220640D01*
X0043506Y0220694D01*
X0043479Y0220750D01*
X0043455Y0220807D01*
X0043435Y0220865D01*
X0043419Y0220924D01*
X0043406Y0220985D01*
X0043396Y0221046D01*
X0043391Y0221107D01*
X0043389Y0221169D01*
X0043388Y0221169D02*
X0043388Y0223724D01*
X0043389Y0223724D02*
X0043391Y0223786D01*
X0043396Y0223847D01*
X0043406Y0223908D01*
X0043419Y0223969D01*
X0043435Y0224028D01*
X0043455Y0224086D01*
X0043479Y0224143D01*
X0043506Y0224199D01*
X0043536Y0224253D01*
X0043570Y0224305D01*
X0043606Y0224354D01*
X0043646Y0224402D01*
X0043688Y0224447D01*
X0043733Y0224489D01*
X0043781Y0224528D01*
X0043830Y0224565D01*
X0043882Y0224599D01*
X0043936Y0224629D01*
X0043992Y0224656D01*
X0044049Y0224680D01*
X0044107Y0224700D01*
X0044166Y0224716D01*
X0044227Y0224729D01*
X0044288Y0224739D01*
X0044349Y0224744D01*
X0044411Y0224746D01*
X0045433Y0224746D01*
X0046544Y0229987D02*
X0046544Y0233309D01*
X0046544Y0229987D02*
X0046546Y0229917D01*
X0046552Y0229846D01*
X0046561Y0229777D01*
X0046575Y0229708D01*
X0046592Y0229639D01*
X0046613Y0229572D01*
X0046638Y0229506D01*
X0046666Y0229442D01*
X0046698Y0229379D01*
X0046733Y0229318D01*
X0046772Y0229259D01*
X0046813Y0229202D01*
X0046858Y0229148D01*
X0046906Y0229096D01*
X0046956Y0229047D01*
X0047010Y0229000D01*
X0047065Y0228957D01*
X0047123Y0228917D01*
X0047183Y0228880D01*
X0047245Y0228847D01*
X0047309Y0228817D01*
X0047374Y0228790D01*
X0047440Y0228767D01*
X0047508Y0228748D01*
X0047577Y0228733D01*
X0047646Y0228721D01*
X0047716Y0228713D01*
X0047787Y0228709D01*
X0047857Y0228709D01*
X0047928Y0228713D01*
X0047998Y0228721D01*
X0048067Y0228733D01*
X0048136Y0228748D01*
X0048204Y0228767D01*
X0048270Y0228790D01*
X0048335Y0228817D01*
X0048399Y0228847D01*
X0048461Y0228880D01*
X0048521Y0228917D01*
X0048579Y0228957D01*
X0048634Y0229000D01*
X0048688Y0229047D01*
X0048738Y0229096D01*
X0048786Y0229148D01*
X0048831Y0229202D01*
X0048872Y0229259D01*
X0048911Y0229318D01*
X0048946Y0229379D01*
X0048978Y0229442D01*
X0049006Y0229506D01*
X0049031Y0229572D01*
X0049052Y0229639D01*
X0049069Y0229708D01*
X0049083Y0229777D01*
X0049092Y0229846D01*
X0049098Y0229917D01*
X0049100Y0229987D01*
X0049100Y0233309D01*
X0051533Y0231393D02*
X0052172Y0231009D01*
X0052811Y0230626D01*
X0053194Y0232543D02*
X0053119Y0232586D01*
X0053043Y0232625D01*
X0052965Y0232662D01*
X0052886Y0232694D01*
X0052805Y0232724D01*
X0052723Y0232750D01*
X0052640Y0232772D01*
X0052556Y0232791D01*
X0052472Y0232807D01*
X0052387Y0232818D01*
X0052301Y0232826D01*
X0052216Y0232831D01*
X0052130Y0232832D01*
X0052044Y0232829D01*
X0051958Y0232823D01*
X0051873Y0232813D01*
X0051788Y0232799D01*
X0052172Y0233309D02*
X0052172Y0228709D01*
X0052555Y0229221D02*
X0052608Y0229233D01*
X0052660Y0229248D01*
X0052711Y0229268D01*
X0052760Y0229290D01*
X0052808Y0229316D01*
X0052854Y0229346D01*
X0052897Y0229378D01*
X0052938Y0229414D01*
X0052977Y0229452D01*
X0053012Y0229493D01*
X0053045Y0229537D01*
X0053074Y0229582D01*
X0053100Y0229630D01*
X0053123Y0229680D01*
X0053142Y0229730D01*
X0053157Y0229782D01*
X0053169Y0229836D01*
X0053176Y0229889D01*
X0053180Y0229943D01*
X0053181Y0229998D01*
X0053177Y0230052D01*
X0053169Y0230106D01*
X0053158Y0230159D01*
X0053143Y0230211D01*
X0053124Y0230262D01*
X0053101Y0230311D01*
X0053076Y0230359D01*
X0053046Y0230405D01*
X0053014Y0230448D01*
X0052979Y0230490D01*
X0052940Y0230528D01*
X0052899Y0230564D01*
X0052856Y0230597D01*
X0052811Y0230626D01*
X0052555Y0229220D02*
X0052470Y0229206D01*
X0052385Y0229196D01*
X0052299Y0229190D01*
X0052213Y0229187D01*
X0052127Y0229188D01*
X0052042Y0229193D01*
X0051956Y0229201D01*
X0051871Y0229212D01*
X0051787Y0229228D01*
X0051703Y0229247D01*
X0051620Y0229269D01*
X0051538Y0229295D01*
X0051457Y0229325D01*
X0051378Y0229357D01*
X0051300Y0229394D01*
X0051224Y0229433D01*
X0051149Y0229476D01*
X0051533Y0231393D02*
X0051488Y0231422D01*
X0051445Y0231455D01*
X0051404Y0231491D01*
X0051365Y0231529D01*
X0051330Y0231571D01*
X0051298Y0231614D01*
X0051268Y0231660D01*
X0051243Y0231708D01*
X0051220Y0231757D01*
X0051201Y0231808D01*
X0051186Y0231860D01*
X0051175Y0231913D01*
X0051167Y0231967D01*
X0051163Y0232021D01*
X0051164Y0232076D01*
X0051168Y0232130D01*
X0051175Y0232183D01*
X0051187Y0232237D01*
X0051202Y0232289D01*
X0051221Y0232339D01*
X0051244Y0232389D01*
X0051270Y0232437D01*
X0051299Y0232482D01*
X0051332Y0232526D01*
X0051367Y0232567D01*
X0051406Y0232605D01*
X0051447Y0232641D01*
X0051490Y0232673D01*
X0051536Y0232703D01*
X0051584Y0232729D01*
X0051633Y0232751D01*
X0051684Y0232771D01*
X0051736Y0232786D01*
X0051789Y0232798D01*
X0056116Y0233309D02*
X0055094Y0229732D01*
X0057650Y0229732D01*
X0056883Y0230754D02*
X0056883Y0228709D01*
X0049451Y0223724D02*
X0049449Y0223661D01*
X0049443Y0223598D01*
X0049434Y0223536D01*
X0049420Y0223475D01*
X0049403Y0223414D01*
X0049382Y0223355D01*
X0049357Y0223297D01*
X0049329Y0223240D01*
X0049298Y0223186D01*
X0049263Y0223134D01*
X0049225Y0223083D01*
X0049184Y0223035D01*
X0049140Y0222990D01*
X0049094Y0222948D01*
X0049045Y0222908D01*
X0048994Y0222872D01*
X0048940Y0222839D01*
X0048885Y0222809D01*
X0048827Y0222783D01*
X0048769Y0222760D01*
X0048709Y0222741D01*
X0048648Y0222726D01*
X0048586Y0222714D01*
X0048523Y0222706D01*
X0048460Y0222702D01*
X0048398Y0222702D01*
X0048335Y0222706D01*
X0048272Y0222714D01*
X0048210Y0222726D01*
X0048149Y0222741D01*
X0048089Y0222760D01*
X0048031Y0222783D01*
X0047973Y0222809D01*
X0047918Y0222839D01*
X0047864Y0222872D01*
X0047813Y0222908D01*
X0047764Y0222948D01*
X0047718Y0222990D01*
X0047674Y0223035D01*
X0047633Y0223083D01*
X0047595Y0223134D01*
X0047560Y0223186D01*
X0047529Y0223240D01*
X0047501Y0223297D01*
X0047476Y0223355D01*
X0047455Y0223414D01*
X0047438Y0223475D01*
X0047424Y0223536D01*
X0047415Y0223598D01*
X0047409Y0223661D01*
X0047407Y0223724D01*
X0047409Y0223787D01*
X0047415Y0223850D01*
X0047424Y0223912D01*
X0047438Y0223973D01*
X0047455Y0224034D01*
X0047476Y0224093D01*
X0047501Y0224151D01*
X0047529Y0224208D01*
X0047560Y0224262D01*
X0047595Y0224314D01*
X0047633Y0224365D01*
X0047674Y0224413D01*
X0047718Y0224458D01*
X0047764Y0224500D01*
X0047813Y0224540D01*
X0047864Y0224576D01*
X0047918Y0224609D01*
X0047973Y0224639D01*
X0048031Y0224665D01*
X0048089Y0224688D01*
X0048149Y0224707D01*
X0048210Y0224722D01*
X0048272Y0224734D01*
X0048335Y0224742D01*
X0048398Y0224746D01*
X0048460Y0224746D01*
X0048523Y0224742D01*
X0048586Y0224734D01*
X0048648Y0224722D01*
X0048709Y0224707D01*
X0048769Y0224688D01*
X0048827Y0224665D01*
X0048885Y0224639D01*
X0048940Y0224609D01*
X0048994Y0224576D01*
X0049045Y0224540D01*
X0049094Y0224500D01*
X0049140Y0224458D01*
X0049184Y0224413D01*
X0049225Y0224365D01*
X0049263Y0224314D01*
X0049298Y0224262D01*
X0049329Y0224208D01*
X0049357Y0224151D01*
X0049382Y0224093D01*
X0049403Y0224034D01*
X0049420Y0223973D01*
X0049434Y0223912D01*
X0049443Y0223850D01*
X0049449Y0223787D01*
X0049451Y0223724D01*
X0049707Y0221424D02*
X0049705Y0221354D01*
X0049699Y0221283D01*
X0049690Y0221214D01*
X0049676Y0221145D01*
X0049659Y0221076D01*
X0049638Y0221009D01*
X0049613Y0220943D01*
X0049585Y0220879D01*
X0049553Y0220816D01*
X0049518Y0220755D01*
X0049479Y0220696D01*
X0049438Y0220639D01*
X0049393Y0220585D01*
X0049345Y0220533D01*
X0049295Y0220484D01*
X0049241Y0220437D01*
X0049186Y0220394D01*
X0049128Y0220354D01*
X0049068Y0220317D01*
X0049006Y0220284D01*
X0048942Y0220254D01*
X0048877Y0220227D01*
X0048811Y0220204D01*
X0048743Y0220185D01*
X0048674Y0220170D01*
X0048605Y0220158D01*
X0048535Y0220150D01*
X0048464Y0220146D01*
X0048394Y0220146D01*
X0048323Y0220150D01*
X0048253Y0220158D01*
X0048184Y0220170D01*
X0048115Y0220185D01*
X0048047Y0220204D01*
X0047981Y0220227D01*
X0047916Y0220254D01*
X0047852Y0220284D01*
X0047790Y0220317D01*
X0047730Y0220354D01*
X0047672Y0220394D01*
X0047617Y0220437D01*
X0047563Y0220484D01*
X0047513Y0220533D01*
X0047465Y0220585D01*
X0047420Y0220639D01*
X0047379Y0220696D01*
X0047340Y0220755D01*
X0047305Y0220816D01*
X0047273Y0220879D01*
X0047245Y0220943D01*
X0047220Y0221009D01*
X0047199Y0221076D01*
X0047182Y0221145D01*
X0047168Y0221214D01*
X0047159Y0221283D01*
X0047153Y0221354D01*
X0047151Y0221424D01*
X0047153Y0221494D01*
X0047159Y0221565D01*
X0047168Y0221634D01*
X0047182Y0221703D01*
X0047199Y0221772D01*
X0047220Y0221839D01*
X0047245Y0221905D01*
X0047273Y0221969D01*
X0047305Y0222032D01*
X0047340Y0222093D01*
X0047379Y0222152D01*
X0047420Y0222209D01*
X0047465Y0222263D01*
X0047513Y0222315D01*
X0047563Y0222364D01*
X0047617Y0222411D01*
X0047672Y0222454D01*
X0047730Y0222494D01*
X0047790Y0222531D01*
X0047852Y0222564D01*
X0047916Y0222594D01*
X0047981Y0222621D01*
X0048047Y0222644D01*
X0048115Y0222663D01*
X0048184Y0222678D01*
X0048253Y0222690D01*
X0048323Y0222698D01*
X0048394Y0222702D01*
X0048464Y0222702D01*
X0048535Y0222698D01*
X0048605Y0222690D01*
X0048674Y0222678D01*
X0048743Y0222663D01*
X0048811Y0222644D01*
X0048877Y0222621D01*
X0048942Y0222594D01*
X0049006Y0222564D01*
X0049068Y0222531D01*
X0049128Y0222494D01*
X0049186Y0222454D01*
X0049241Y0222411D01*
X0049295Y0222364D01*
X0049345Y0222315D01*
X0049393Y0222263D01*
X0049438Y0222209D01*
X0049479Y0222152D01*
X0049518Y0222093D01*
X0049553Y0222032D01*
X0049585Y0221969D01*
X0049613Y0221905D01*
X0049638Y0221839D01*
X0049659Y0221772D01*
X0049676Y0221703D01*
X0049690Y0221634D01*
X0049699Y0221565D01*
X0049705Y0221494D01*
X0049707Y0221424D01*
X0041302Y0230065D02*
X0041302Y0231343D01*
X0041302Y0230065D02*
X0039768Y0230065D01*
X0041301Y0230065D02*
X0041299Y0229976D01*
X0041293Y0229887D01*
X0041284Y0229798D01*
X0041270Y0229710D01*
X0041253Y0229623D01*
X0041231Y0229536D01*
X0041206Y0229450D01*
X0041178Y0229366D01*
X0041145Y0229283D01*
X0041109Y0229201D01*
X0041070Y0229121D01*
X0041027Y0229043D01*
X0040981Y0228967D01*
X0040931Y0228893D01*
X0040879Y0228821D01*
X0040823Y0228751D01*
X0040764Y0228684D01*
X0040702Y0228620D01*
X0040638Y0228558D01*
X0040571Y0228499D01*
X0040501Y0228443D01*
X0040429Y0228391D01*
X0040355Y0228341D01*
X0040279Y0228295D01*
X0040201Y0228252D01*
X0040121Y0228213D01*
X0040039Y0228177D01*
X0039956Y0228144D01*
X0039872Y0228116D01*
X0039786Y0228091D01*
X0039699Y0228069D01*
X0039612Y0228052D01*
X0039524Y0228038D01*
X0039435Y0228029D01*
X0039346Y0228023D01*
X0039257Y0228021D01*
X0038746Y0231087D02*
X0038746Y0231343D01*
X0038746Y0231087D02*
X0038748Y0231025D01*
X0038753Y0230964D01*
X0038763Y0230903D01*
X0038776Y0230842D01*
X0038792Y0230783D01*
X0038812Y0230725D01*
X0038836Y0230668D01*
X0038863Y0230612D01*
X0038893Y0230558D01*
X0038927Y0230506D01*
X0038963Y0230457D01*
X0039003Y0230409D01*
X0039045Y0230364D01*
X0039090Y0230322D01*
X0039138Y0230282D01*
X0039187Y0230246D01*
X0039239Y0230212D01*
X0039293Y0230182D01*
X0039349Y0230155D01*
X0039406Y0230131D01*
X0039464Y0230111D01*
X0039523Y0230095D01*
X0039584Y0230082D01*
X0039645Y0230072D01*
X0039706Y0230067D01*
X0039768Y0230065D01*
X0038746Y0231343D02*
X0038748Y0231413D01*
X0038754Y0231484D01*
X0038763Y0231553D01*
X0038777Y0231622D01*
X0038794Y0231691D01*
X0038815Y0231758D01*
X0038840Y0231824D01*
X0038868Y0231888D01*
X0038900Y0231951D01*
X0038935Y0232012D01*
X0038974Y0232071D01*
X0039015Y0232128D01*
X0039060Y0232182D01*
X0039108Y0232234D01*
X0039158Y0232283D01*
X0039212Y0232330D01*
X0039267Y0232373D01*
X0039325Y0232413D01*
X0039385Y0232450D01*
X0039447Y0232483D01*
X0039511Y0232513D01*
X0039576Y0232540D01*
X0039642Y0232563D01*
X0039710Y0232582D01*
X0039779Y0232597D01*
X0039848Y0232609D01*
X0039918Y0232617D01*
X0039989Y0232621D01*
X0040059Y0232621D01*
X0040130Y0232617D01*
X0040200Y0232609D01*
X0040269Y0232597D01*
X0040338Y0232582D01*
X0040406Y0232563D01*
X0040472Y0232540D01*
X0040537Y0232513D01*
X0040601Y0232483D01*
X0040663Y0232450D01*
X0040723Y0232413D01*
X0040781Y0232373D01*
X0040836Y0232330D01*
X0040890Y0232283D01*
X0040940Y0232234D01*
X0040988Y0232182D01*
X0041033Y0232128D01*
X0041074Y0232071D01*
X0041113Y0232012D01*
X0041148Y0231951D01*
X0041180Y0231888D01*
X0041208Y0231824D01*
X0041233Y0231758D01*
X0041254Y0231691D01*
X0041271Y0231622D01*
X0041285Y0231553D01*
X0041294Y0231484D01*
X0041300Y0231413D01*
X0041302Y0231343D01*
X0036831Y0228020D02*
X0035808Y0230065D01*
X0035553Y0230065D02*
X0034275Y0230065D01*
X0035553Y0230065D02*
X0035623Y0230067D01*
X0035694Y0230073D01*
X0035763Y0230082D01*
X0035832Y0230096D01*
X0035901Y0230113D01*
X0035968Y0230134D01*
X0036034Y0230159D01*
X0036098Y0230187D01*
X0036161Y0230219D01*
X0036222Y0230254D01*
X0036281Y0230293D01*
X0036338Y0230334D01*
X0036392Y0230379D01*
X0036444Y0230427D01*
X0036493Y0230477D01*
X0036540Y0230531D01*
X0036583Y0230586D01*
X0036623Y0230644D01*
X0036660Y0230704D01*
X0036693Y0230766D01*
X0036723Y0230830D01*
X0036750Y0230895D01*
X0036773Y0230961D01*
X0036792Y0231029D01*
X0036807Y0231098D01*
X0036819Y0231167D01*
X0036827Y0231237D01*
X0036831Y0231308D01*
X0036831Y0231378D01*
X0036827Y0231449D01*
X0036819Y0231519D01*
X0036807Y0231588D01*
X0036792Y0231657D01*
X0036773Y0231725D01*
X0036750Y0231791D01*
X0036723Y0231856D01*
X0036693Y0231920D01*
X0036660Y0231982D01*
X0036623Y0232042D01*
X0036583Y0232100D01*
X0036540Y0232155D01*
X0036493Y0232209D01*
X0036444Y0232259D01*
X0036392Y0232307D01*
X0036338Y0232352D01*
X0036281Y0232393D01*
X0036222Y0232432D01*
X0036161Y0232467D01*
X0036098Y0232499D01*
X0036034Y0232527D01*
X0035968Y0232552D01*
X0035901Y0232573D01*
X0035832Y0232590D01*
X0035763Y0232604D01*
X0035694Y0232613D01*
X0035623Y0232619D01*
X0035553Y0232621D01*
X0035553Y0232620D02*
X0034275Y0232620D01*
X0034275Y0228020D01*
X0034462Y0252646D02*
X0033951Y0252646D01*
X0034462Y0252647D02*
X0034524Y0252649D01*
X0034585Y0252654D01*
X0034646Y0252664D01*
X0034707Y0252677D01*
X0034766Y0252693D01*
X0034824Y0252713D01*
X0034881Y0252737D01*
X0034937Y0252764D01*
X0034991Y0252794D01*
X0035043Y0252828D01*
X0035092Y0252864D01*
X0035140Y0252904D01*
X0035185Y0252946D01*
X0035227Y0252991D01*
X0035267Y0253039D01*
X0035303Y0253088D01*
X0035337Y0253140D01*
X0035367Y0253194D01*
X0035394Y0253250D01*
X0035418Y0253307D01*
X0035438Y0253365D01*
X0035454Y0253424D01*
X0035467Y0253485D01*
X0035477Y0253546D01*
X0035482Y0253607D01*
X0035484Y0253669D01*
X0035484Y0257246D01*
X0037560Y0256224D02*
X0038838Y0257246D01*
X0038838Y0252646D01*
X0037560Y0252646D02*
X0040116Y0252646D01*
X0023787Y0230850D02*
X0023785Y0230787D01*
X0023779Y0230724D01*
X0023770Y0230662D01*
X0023756Y0230601D01*
X0023739Y0230540D01*
X0023718Y0230481D01*
X0023693Y0230423D01*
X0023665Y0230366D01*
X0023634Y0230312D01*
X0023599Y0230260D01*
X0023561Y0230209D01*
X0023520Y0230161D01*
X0023476Y0230116D01*
X0023430Y0230074D01*
X0023381Y0230034D01*
X0023330Y0229998D01*
X0023276Y0229965D01*
X0023221Y0229935D01*
X0023163Y0229909D01*
X0023105Y0229886D01*
X0023045Y0229867D01*
X0022984Y0229852D01*
X0022922Y0229840D01*
X0022859Y0229832D01*
X0022796Y0229828D01*
X0022734Y0229828D01*
X0022671Y0229832D01*
X0022608Y0229840D01*
X0022546Y0229852D01*
X0022485Y0229867D01*
X0022425Y0229886D01*
X0022367Y0229909D01*
X0022309Y0229935D01*
X0022254Y0229965D01*
X0022200Y0229998D01*
X0022149Y0230034D01*
X0022100Y0230074D01*
X0022054Y0230116D01*
X0022010Y0230161D01*
X0021969Y0230209D01*
X0021931Y0230260D01*
X0021896Y0230312D01*
X0021865Y0230366D01*
X0021837Y0230423D01*
X0021812Y0230481D01*
X0021791Y0230540D01*
X0021774Y0230601D01*
X0021760Y0230662D01*
X0021751Y0230724D01*
X0021745Y0230787D01*
X0021743Y0230850D01*
X0021745Y0230913D01*
X0021751Y0230976D01*
X0021760Y0231038D01*
X0021774Y0231099D01*
X0021791Y0231160D01*
X0021812Y0231219D01*
X0021837Y0231277D01*
X0021865Y0231334D01*
X0021896Y0231388D01*
X0021931Y0231440D01*
X0021969Y0231491D01*
X0022010Y0231539D01*
X0022054Y0231584D01*
X0022100Y0231626D01*
X0022149Y0231666D01*
X0022200Y0231702D01*
X0022254Y0231735D01*
X0022309Y0231765D01*
X0022367Y0231791D01*
X0022425Y0231814D01*
X0022485Y0231833D01*
X0022546Y0231848D01*
X0022608Y0231860D01*
X0022671Y0231868D01*
X0022734Y0231872D01*
X0022796Y0231872D01*
X0022859Y0231868D01*
X0022922Y0231860D01*
X0022984Y0231848D01*
X0023045Y0231833D01*
X0023105Y0231814D01*
X0023163Y0231791D01*
X0023221Y0231765D01*
X0023276Y0231735D01*
X0023330Y0231702D01*
X0023381Y0231666D01*
X0023430Y0231626D01*
X0023476Y0231584D01*
X0023520Y0231539D01*
X0023561Y0231491D01*
X0023599Y0231440D01*
X0023634Y0231388D01*
X0023665Y0231334D01*
X0023693Y0231277D01*
X0023718Y0231219D01*
X0023739Y0231160D01*
X0023756Y0231099D01*
X0023770Y0231038D01*
X0023779Y0230976D01*
X0023785Y0230913D01*
X0023787Y0230850D01*
X0024043Y0228550D02*
X0024041Y0228480D01*
X0024035Y0228409D01*
X0024026Y0228340D01*
X0024012Y0228271D01*
X0023995Y0228202D01*
X0023974Y0228135D01*
X0023949Y0228069D01*
X0023921Y0228005D01*
X0023889Y0227942D01*
X0023854Y0227881D01*
X0023815Y0227822D01*
X0023774Y0227765D01*
X0023729Y0227711D01*
X0023681Y0227659D01*
X0023631Y0227610D01*
X0023577Y0227563D01*
X0023522Y0227520D01*
X0023464Y0227480D01*
X0023404Y0227443D01*
X0023342Y0227410D01*
X0023278Y0227380D01*
X0023213Y0227353D01*
X0023147Y0227330D01*
X0023079Y0227311D01*
X0023010Y0227296D01*
X0022941Y0227284D01*
X0022871Y0227276D01*
X0022800Y0227272D01*
X0022730Y0227272D01*
X0022659Y0227276D01*
X0022589Y0227284D01*
X0022520Y0227296D01*
X0022451Y0227311D01*
X0022383Y0227330D01*
X0022317Y0227353D01*
X0022252Y0227380D01*
X0022188Y0227410D01*
X0022126Y0227443D01*
X0022066Y0227480D01*
X0022008Y0227520D01*
X0021953Y0227563D01*
X0021899Y0227610D01*
X0021849Y0227659D01*
X0021801Y0227711D01*
X0021756Y0227765D01*
X0021715Y0227822D01*
X0021676Y0227881D01*
X0021641Y0227942D01*
X0021609Y0228005D01*
X0021581Y0228069D01*
X0021556Y0228135D01*
X0021535Y0228202D01*
X0021518Y0228271D01*
X0021504Y0228340D01*
X0021495Y0228409D01*
X0021489Y0228480D01*
X0021487Y0228550D01*
X0021489Y0228620D01*
X0021495Y0228691D01*
X0021504Y0228760D01*
X0021518Y0228829D01*
X0021535Y0228898D01*
X0021556Y0228965D01*
X0021581Y0229031D01*
X0021609Y0229095D01*
X0021641Y0229158D01*
X0021676Y0229219D01*
X0021715Y0229278D01*
X0021756Y0229335D01*
X0021801Y0229389D01*
X0021849Y0229441D01*
X0021899Y0229490D01*
X0021953Y0229537D01*
X0022008Y0229580D01*
X0022066Y0229620D01*
X0022126Y0229657D01*
X0022188Y0229690D01*
X0022252Y0229720D01*
X0022317Y0229747D01*
X0022383Y0229770D01*
X0022451Y0229789D01*
X0022520Y0229804D01*
X0022589Y0229816D01*
X0022659Y0229824D01*
X0022730Y0229828D01*
X0022800Y0229828D01*
X0022871Y0229824D01*
X0022941Y0229816D01*
X0023010Y0229804D01*
X0023079Y0229789D01*
X0023147Y0229770D01*
X0023213Y0229747D01*
X0023278Y0229720D01*
X0023342Y0229690D01*
X0023404Y0229657D01*
X0023464Y0229620D01*
X0023522Y0229580D01*
X0023577Y0229537D01*
X0023631Y0229490D01*
X0023681Y0229441D01*
X0023729Y0229389D01*
X0023774Y0229335D01*
X0023815Y0229278D01*
X0023854Y0229219D01*
X0023889Y0229158D01*
X0023921Y0229095D01*
X0023949Y0229031D01*
X0023974Y0228965D01*
X0023995Y0228898D01*
X0024012Y0228829D01*
X0024026Y0228760D01*
X0024035Y0228691D01*
X0024041Y0228620D01*
X0024043Y0228550D01*
X0019572Y0227272D02*
X0018550Y0229317D01*
X0018294Y0229317D02*
X0017017Y0229317D01*
X0018294Y0229317D02*
X0018364Y0229319D01*
X0018435Y0229325D01*
X0018504Y0229334D01*
X0018573Y0229348D01*
X0018642Y0229365D01*
X0018709Y0229386D01*
X0018775Y0229411D01*
X0018839Y0229439D01*
X0018902Y0229471D01*
X0018963Y0229506D01*
X0019022Y0229545D01*
X0019079Y0229586D01*
X0019133Y0229631D01*
X0019185Y0229679D01*
X0019234Y0229729D01*
X0019281Y0229783D01*
X0019324Y0229838D01*
X0019364Y0229896D01*
X0019401Y0229956D01*
X0019434Y0230018D01*
X0019464Y0230082D01*
X0019491Y0230147D01*
X0019514Y0230213D01*
X0019533Y0230281D01*
X0019548Y0230350D01*
X0019560Y0230419D01*
X0019568Y0230489D01*
X0019572Y0230560D01*
X0019572Y0230630D01*
X0019568Y0230701D01*
X0019560Y0230771D01*
X0019548Y0230840D01*
X0019533Y0230909D01*
X0019514Y0230977D01*
X0019491Y0231043D01*
X0019464Y0231108D01*
X0019434Y0231172D01*
X0019401Y0231234D01*
X0019364Y0231294D01*
X0019324Y0231352D01*
X0019281Y0231407D01*
X0019234Y0231461D01*
X0019185Y0231511D01*
X0019133Y0231559D01*
X0019079Y0231604D01*
X0019022Y0231645D01*
X0018963Y0231684D01*
X0018902Y0231719D01*
X0018839Y0231751D01*
X0018775Y0231779D01*
X0018709Y0231804D01*
X0018642Y0231825D01*
X0018573Y0231842D01*
X0018504Y0231856D01*
X0018435Y0231865D01*
X0018364Y0231871D01*
X0018294Y0231873D01*
X0018294Y0231872D02*
X0017017Y0231872D01*
X0017017Y0227272D01*
D12*
X0082683Y0122899D02*
X0082683Y0112899D01*
X0082683Y0102899D01*
X0082683Y0092899D01*
X0092683Y0092899D01*
X0092683Y0102899D01*
X0092683Y0112899D01*
X0092683Y0122899D01*
X0082683Y0122899D01*
X0082683Y0112899D02*
X0092683Y0112899D01*
X0092683Y0102899D02*
X0082683Y0102899D01*
D13*
X0095183Y0097899D02*
X0117683Y0097899D01*
X0117683Y0107899D02*
X0095183Y0107899D01*
X0095183Y0117899D02*
X0117683Y0117899D01*
D14*
X0093683Y0117899D03*
X0093683Y0107899D03*
X0093683Y0097899D03*
D15*
X0080683Y0097899D03*
X0080683Y0107899D03*
X0080683Y0117899D03*
D16*
X0079287Y0125649D02*
X0079287Y0130149D01*
X0080537Y0130149D01*
X0080606Y0130147D01*
X0080675Y0130141D01*
X0080743Y0130132D01*
X0080810Y0130119D01*
X0080877Y0130102D01*
X0080943Y0130081D01*
X0081007Y0130057D01*
X0081070Y0130029D01*
X0081132Y0129998D01*
X0081192Y0129964D01*
X0081249Y0129926D01*
X0081305Y0129885D01*
X0081358Y0129842D01*
X0081409Y0129795D01*
X0081457Y0129746D01*
X0081502Y0129694D01*
X0081544Y0129639D01*
X0081583Y0129583D01*
X0081620Y0129524D01*
X0081652Y0129463D01*
X0081682Y0129401D01*
X0081708Y0129337D01*
X0081730Y0129272D01*
X0081749Y0129206D01*
X0081764Y0129139D01*
X0081775Y0129071D01*
X0081783Y0129002D01*
X0081787Y0128933D01*
X0081787Y0128865D01*
X0081783Y0128796D01*
X0081775Y0128727D01*
X0081764Y0128659D01*
X0081749Y0128592D01*
X0081730Y0128526D01*
X0081708Y0128461D01*
X0081682Y0128397D01*
X0081652Y0128335D01*
X0081620Y0128274D01*
X0081583Y0128215D01*
X0081544Y0128159D01*
X0081502Y0128104D01*
X0081457Y0128052D01*
X0081409Y0128003D01*
X0081358Y0127956D01*
X0081305Y0127913D01*
X0081249Y0127872D01*
X0081192Y0127834D01*
X0081132Y0127800D01*
X0081070Y0127769D01*
X0081007Y0127741D01*
X0080943Y0127717D01*
X0080877Y0127696D01*
X0080810Y0127679D01*
X0080743Y0127666D01*
X0080675Y0127657D01*
X0080606Y0127651D01*
X0080537Y0127649D01*
X0079287Y0127649D01*
X0076933Y0126649D02*
X0076933Y0130149D01*
X0076933Y0126649D02*
X0076931Y0126589D01*
X0076926Y0126528D01*
X0076917Y0126469D01*
X0076904Y0126410D01*
X0076888Y0126351D01*
X0076868Y0126294D01*
X0076845Y0126239D01*
X0076818Y0126184D01*
X0076789Y0126132D01*
X0076756Y0126081D01*
X0076720Y0126032D01*
X0076682Y0125986D01*
X0076640Y0125942D01*
X0076596Y0125900D01*
X0076550Y0125862D01*
X0076501Y0125826D01*
X0076450Y0125793D01*
X0076398Y0125764D01*
X0076343Y0125737D01*
X0076288Y0125714D01*
X0076231Y0125694D01*
X0076172Y0125678D01*
X0076113Y0125665D01*
X0076054Y0125656D01*
X0075993Y0125651D01*
X0075933Y0125649D01*
X0075433Y0125649D01*
X0083562Y0125649D02*
X0086062Y0125649D01*
X0083562Y0125649D02*
X0085687Y0128149D01*
X0084937Y0130149D02*
X0084864Y0130147D01*
X0084792Y0130142D01*
X0084720Y0130133D01*
X0084648Y0130120D01*
X0084577Y0130104D01*
X0084507Y0130084D01*
X0084439Y0130060D01*
X0084371Y0130034D01*
X0084305Y0130003D01*
X0084240Y0129970D01*
X0084178Y0129933D01*
X0084117Y0129894D01*
X0084058Y0129851D01*
X0084001Y0129805D01*
X0083947Y0129757D01*
X0083896Y0129706D01*
X0083846Y0129652D01*
X0083800Y0129596D01*
X0083757Y0129538D01*
X0083716Y0129477D01*
X0083679Y0129415D01*
X0083645Y0129351D01*
X0083614Y0129285D01*
X0083586Y0129218D01*
X0083562Y0129149D01*
X0085687Y0128149D02*
X0085733Y0128195D01*
X0085777Y0128244D01*
X0085817Y0128295D01*
X0085855Y0128348D01*
X0085890Y0128403D01*
X0085922Y0128460D01*
X0085951Y0128518D01*
X0085977Y0128578D01*
X0085999Y0128640D01*
X0086018Y0128702D01*
X0086034Y0128765D01*
X0086046Y0128829D01*
X0086055Y0128894D01*
X0086060Y0128959D01*
X0086062Y0129024D01*
X0086060Y0129089D01*
X0086054Y0129155D01*
X0086045Y0129219D01*
X0086032Y0129283D01*
X0086015Y0129347D01*
X0085994Y0129409D01*
X0085970Y0129470D01*
X0085942Y0129529D01*
X0085911Y0129587D01*
X0085877Y0129642D01*
X0085839Y0129696D01*
X0085799Y0129747D01*
X0085755Y0129796D01*
X0085709Y0129842D01*
X0085660Y0129886D01*
X0085609Y0129926D01*
X0085555Y0129964D01*
X0085500Y0129998D01*
X0085442Y0130029D01*
X0085383Y0130057D01*
X0085322Y0130081D01*
X0085260Y0130102D01*
X0085196Y0130119D01*
X0085132Y0130132D01*
X0085068Y0130141D01*
X0085002Y0130147D01*
X0084937Y0130149D01*
M02*
