G75*
%MOIN*%
%OFA0B0*%
%FSLAX25Y25*%
%IPPOS*%
%LPD*%
%AMOC8*
5,1,8,0,0,1.08239X$1,22.5*
%
%ADD10C,0.00600*%
%ADD11C,0.08976*%
%ADD12C,0.11220*%
%ADD13R,0.04921X0.04331*%
%ADD14C,0.06000*%
%ADD15C,0.03962*%
%ADD16C,0.01200*%
D10*
X0034270Y0021583D02*
X0034270Y0023361D01*
X0034270Y0021583D02*
X0040670Y0021583D01*
X0040670Y0023361D01*
X0040668Y0023443D01*
X0040662Y0023525D01*
X0040653Y0023607D01*
X0040640Y0023688D01*
X0040623Y0023768D01*
X0040602Y0023848D01*
X0040578Y0023926D01*
X0040550Y0024003D01*
X0040519Y0024079D01*
X0040484Y0024154D01*
X0040445Y0024226D01*
X0040404Y0024297D01*
X0040359Y0024366D01*
X0040311Y0024432D01*
X0040260Y0024497D01*
X0040206Y0024559D01*
X0040149Y0024618D01*
X0040090Y0024675D01*
X0040028Y0024729D01*
X0039963Y0024780D01*
X0039897Y0024828D01*
X0039828Y0024873D01*
X0039757Y0024914D01*
X0039685Y0024953D01*
X0039610Y0024988D01*
X0039534Y0025019D01*
X0039457Y0025047D01*
X0039379Y0025071D01*
X0039299Y0025092D01*
X0039219Y0025109D01*
X0039138Y0025122D01*
X0039056Y0025131D01*
X0038974Y0025137D01*
X0038892Y0025139D01*
X0036048Y0025139D01*
X0035966Y0025137D01*
X0035884Y0025131D01*
X0035802Y0025122D01*
X0035721Y0025109D01*
X0035641Y0025092D01*
X0035561Y0025071D01*
X0035483Y0025047D01*
X0035406Y0025019D01*
X0035330Y0024988D01*
X0035255Y0024953D01*
X0035183Y0024914D01*
X0035112Y0024873D01*
X0035043Y0024828D01*
X0034977Y0024780D01*
X0034912Y0024729D01*
X0034850Y0024675D01*
X0034791Y0024618D01*
X0034734Y0024559D01*
X0034680Y0024497D01*
X0034629Y0024432D01*
X0034581Y0024366D01*
X0034536Y0024297D01*
X0034495Y0024226D01*
X0034456Y0024154D01*
X0034421Y0024079D01*
X0034390Y0024003D01*
X0034362Y0023926D01*
X0034338Y0023848D01*
X0034317Y0023768D01*
X0034300Y0023688D01*
X0034287Y0023607D01*
X0034278Y0023525D01*
X0034272Y0023443D01*
X0034270Y0023361D01*
X0034270Y0027335D02*
X0034270Y0028046D01*
X0034272Y0028120D01*
X0034278Y0028195D01*
X0034288Y0028268D01*
X0034301Y0028342D01*
X0034318Y0028414D01*
X0034340Y0028485D01*
X0034364Y0028556D01*
X0034393Y0028624D01*
X0034425Y0028692D01*
X0034461Y0028757D01*
X0034499Y0028820D01*
X0034542Y0028882D01*
X0034587Y0028941D01*
X0034635Y0028998D01*
X0034686Y0029052D01*
X0034740Y0029103D01*
X0034797Y0029151D01*
X0034856Y0029196D01*
X0034918Y0029239D01*
X0034981Y0029277D01*
X0035046Y0029313D01*
X0035114Y0029345D01*
X0035182Y0029374D01*
X0035253Y0029398D01*
X0035324Y0029420D01*
X0035396Y0029437D01*
X0035470Y0029450D01*
X0035543Y0029460D01*
X0035618Y0029466D01*
X0035692Y0029468D01*
X0040670Y0029468D01*
X0040670Y0032086D02*
X0040670Y0033509D01*
X0040670Y0032797D02*
X0034270Y0032797D01*
X0034270Y0032086D02*
X0034270Y0033509D01*
X0034270Y0039485D02*
X0040670Y0039485D01*
X0037115Y0041618D01*
X0040670Y0043751D01*
X0034270Y0043751D01*
X0034270Y0046541D02*
X0038537Y0046541D01*
X0040315Y0046719D02*
X0040315Y0046364D01*
X0040670Y0046364D01*
X0040670Y0046719D01*
X0040315Y0046719D01*
X0038537Y0049222D02*
X0038537Y0051000D01*
X0038535Y0051064D01*
X0038529Y0051129D01*
X0038520Y0051192D01*
X0038506Y0051255D01*
X0038489Y0051317D01*
X0038468Y0051378D01*
X0038443Y0051438D01*
X0038415Y0051496D01*
X0038383Y0051552D01*
X0038348Y0051606D01*
X0038310Y0051658D01*
X0038269Y0051708D01*
X0038224Y0051754D01*
X0038178Y0051799D01*
X0038128Y0051840D01*
X0038076Y0051878D01*
X0038022Y0051913D01*
X0037966Y0051945D01*
X0037908Y0051973D01*
X0037848Y0051998D01*
X0037787Y0052019D01*
X0037725Y0052036D01*
X0037662Y0052050D01*
X0037599Y0052059D01*
X0037534Y0052065D01*
X0037470Y0052067D01*
X0037470Y0052066D02*
X0034270Y0052066D01*
X0034270Y0054747D02*
X0038537Y0054747D01*
X0040315Y0054924D02*
X0040315Y0054569D01*
X0040670Y0054569D01*
X0040670Y0054924D01*
X0040315Y0054924D01*
X0038537Y0049222D02*
X0034270Y0049222D01*
X0035692Y0060559D02*
X0035692Y0064114D01*
X0034270Y0063048D02*
X0037115Y0063048D01*
X0035692Y0060559D02*
X0040670Y0061981D01*
X0040670Y0070283D02*
X0040670Y0072061D01*
X0040668Y0072144D01*
X0040662Y0072227D01*
X0040652Y0072310D01*
X0040639Y0072393D01*
X0040621Y0072474D01*
X0040600Y0072555D01*
X0040575Y0072634D01*
X0040546Y0072712D01*
X0040514Y0072789D01*
X0040478Y0072864D01*
X0040439Y0072938D01*
X0040396Y0073009D01*
X0040350Y0073079D01*
X0040300Y0073146D01*
X0040248Y0073211D01*
X0040193Y0073273D01*
X0040134Y0073333D01*
X0040073Y0073390D01*
X0040010Y0073444D01*
X0039944Y0073495D01*
X0039875Y0073542D01*
X0039805Y0073587D01*
X0039732Y0073628D01*
X0039658Y0073665D01*
X0039582Y0073700D01*
X0039504Y0073730D01*
X0039426Y0073757D01*
X0039345Y0073780D01*
X0039264Y0073800D01*
X0039182Y0073815D01*
X0039100Y0073827D01*
X0039017Y0073835D01*
X0038934Y0073839D01*
X0038850Y0073839D01*
X0038767Y0073835D01*
X0038684Y0073827D01*
X0038602Y0073815D01*
X0038520Y0073800D01*
X0038439Y0073780D01*
X0038358Y0073757D01*
X0038280Y0073730D01*
X0038202Y0073700D01*
X0038126Y0073665D01*
X0038052Y0073628D01*
X0037979Y0073587D01*
X0037909Y0073542D01*
X0037840Y0073495D01*
X0037774Y0073444D01*
X0037711Y0073390D01*
X0037650Y0073333D01*
X0037591Y0073273D01*
X0037536Y0073211D01*
X0037484Y0073146D01*
X0037434Y0073079D01*
X0037388Y0073009D01*
X0037345Y0072938D01*
X0037306Y0072864D01*
X0037270Y0072789D01*
X0037238Y0072712D01*
X0037209Y0072634D01*
X0037184Y0072555D01*
X0037163Y0072474D01*
X0037145Y0072393D01*
X0037132Y0072310D01*
X0037122Y0072227D01*
X0037116Y0072144D01*
X0037114Y0072061D01*
X0037115Y0072061D02*
X0037115Y0070283D01*
X0034270Y0070283D02*
X0040670Y0070283D01*
X0038537Y0076333D02*
X0038537Y0078466D01*
X0037826Y0078466D01*
X0037115Y0080402D02*
X0035692Y0080402D01*
X0035618Y0080404D01*
X0035543Y0080410D01*
X0035470Y0080420D01*
X0035396Y0080433D01*
X0035324Y0080450D01*
X0035253Y0080472D01*
X0035182Y0080496D01*
X0035114Y0080525D01*
X0035046Y0080557D01*
X0034981Y0080593D01*
X0034918Y0080631D01*
X0034856Y0080674D01*
X0034797Y0080719D01*
X0034740Y0080767D01*
X0034686Y0080818D01*
X0034635Y0080872D01*
X0034587Y0080929D01*
X0034542Y0080988D01*
X0034499Y0081050D01*
X0034461Y0081113D01*
X0034425Y0081178D01*
X0034393Y0081246D01*
X0034364Y0081314D01*
X0034340Y0081385D01*
X0034318Y0081456D01*
X0034301Y0081528D01*
X0034288Y0081602D01*
X0034278Y0081675D01*
X0034272Y0081750D01*
X0034270Y0081824D01*
X0034272Y0081898D01*
X0034278Y0081973D01*
X0034288Y0082046D01*
X0034301Y0082120D01*
X0034318Y0082192D01*
X0034340Y0082263D01*
X0034364Y0082334D01*
X0034393Y0082402D01*
X0034425Y0082470D01*
X0034461Y0082535D01*
X0034499Y0082598D01*
X0034542Y0082660D01*
X0034587Y0082719D01*
X0034635Y0082776D01*
X0034686Y0082830D01*
X0034740Y0082881D01*
X0034797Y0082929D01*
X0034856Y0082974D01*
X0034918Y0083017D01*
X0034981Y0083055D01*
X0035046Y0083091D01*
X0035114Y0083123D01*
X0035182Y0083152D01*
X0035253Y0083176D01*
X0035324Y0083198D01*
X0035396Y0083215D01*
X0035470Y0083228D01*
X0035543Y0083238D01*
X0035618Y0083244D01*
X0035692Y0083246D01*
X0035692Y0083247D02*
X0037115Y0083247D01*
X0037115Y0083246D02*
X0037189Y0083244D01*
X0037264Y0083238D01*
X0037337Y0083228D01*
X0037411Y0083215D01*
X0037483Y0083198D01*
X0037554Y0083176D01*
X0037625Y0083152D01*
X0037693Y0083123D01*
X0037761Y0083091D01*
X0037826Y0083055D01*
X0037889Y0083017D01*
X0037951Y0082974D01*
X0038010Y0082929D01*
X0038067Y0082881D01*
X0038121Y0082830D01*
X0038172Y0082776D01*
X0038220Y0082719D01*
X0038265Y0082660D01*
X0038308Y0082598D01*
X0038346Y0082535D01*
X0038382Y0082470D01*
X0038414Y0082402D01*
X0038443Y0082334D01*
X0038467Y0082263D01*
X0038489Y0082192D01*
X0038506Y0082120D01*
X0038519Y0082046D01*
X0038529Y0081973D01*
X0038535Y0081898D01*
X0038537Y0081824D01*
X0038535Y0081750D01*
X0038529Y0081675D01*
X0038519Y0081602D01*
X0038506Y0081528D01*
X0038489Y0081456D01*
X0038467Y0081385D01*
X0038443Y0081314D01*
X0038414Y0081246D01*
X0038382Y0081178D01*
X0038346Y0081113D01*
X0038308Y0081050D01*
X0038265Y0080988D01*
X0038220Y0080929D01*
X0038172Y0080872D01*
X0038121Y0080818D01*
X0038067Y0080767D01*
X0038010Y0080719D01*
X0037951Y0080674D01*
X0037889Y0080631D01*
X0037826Y0080593D01*
X0037761Y0080557D01*
X0037693Y0080525D01*
X0037625Y0080496D01*
X0037554Y0080472D01*
X0037483Y0080450D01*
X0037411Y0080433D01*
X0037337Y0080420D01*
X0037264Y0080410D01*
X0037189Y0080404D01*
X0037115Y0080402D01*
X0038537Y0076333D02*
X0034270Y0076333D01*
X0040670Y0088662D02*
X0040670Y0092218D01*
X0040670Y0090440D02*
X0034270Y0090440D01*
X0034270Y0094590D02*
X0038537Y0094590D01*
X0038537Y0096723D01*
X0037826Y0096723D01*
X0038537Y0098986D02*
X0038537Y0100408D01*
X0038535Y0100472D01*
X0038529Y0100537D01*
X0038520Y0100600D01*
X0038506Y0100663D01*
X0038489Y0100725D01*
X0038468Y0100786D01*
X0038443Y0100846D01*
X0038415Y0100904D01*
X0038383Y0100960D01*
X0038348Y0101014D01*
X0038310Y0101066D01*
X0038269Y0101116D01*
X0038224Y0101162D01*
X0038178Y0101207D01*
X0038128Y0101248D01*
X0038076Y0101286D01*
X0038022Y0101321D01*
X0037966Y0101353D01*
X0037908Y0101381D01*
X0037848Y0101406D01*
X0037787Y0101427D01*
X0037725Y0101444D01*
X0037662Y0101458D01*
X0037599Y0101467D01*
X0037534Y0101473D01*
X0037470Y0101475D01*
X0034270Y0101475D01*
X0034270Y0099875D01*
X0034271Y0099875D02*
X0034273Y0099805D01*
X0034279Y0099736D01*
X0034289Y0099667D01*
X0034302Y0099598D01*
X0034320Y0099531D01*
X0034341Y0099464D01*
X0034366Y0099399D01*
X0034394Y0099335D01*
X0034426Y0099273D01*
X0034462Y0099213D01*
X0034500Y0099155D01*
X0034542Y0099099D01*
X0034587Y0099046D01*
X0034635Y0098995D01*
X0034686Y0098947D01*
X0034739Y0098902D01*
X0034795Y0098860D01*
X0034853Y0098822D01*
X0034913Y0098786D01*
X0034975Y0098754D01*
X0035039Y0098726D01*
X0035104Y0098701D01*
X0035171Y0098680D01*
X0035238Y0098662D01*
X0035307Y0098649D01*
X0035376Y0098639D01*
X0035445Y0098633D01*
X0035515Y0098631D01*
X0035585Y0098633D01*
X0035654Y0098639D01*
X0035723Y0098649D01*
X0035792Y0098662D01*
X0035859Y0098680D01*
X0035926Y0098701D01*
X0035991Y0098726D01*
X0036055Y0098754D01*
X0036117Y0098786D01*
X0036177Y0098822D01*
X0036235Y0098860D01*
X0036291Y0098902D01*
X0036344Y0098947D01*
X0036395Y0098995D01*
X0036443Y0099046D01*
X0036488Y0099099D01*
X0036530Y0099155D01*
X0036568Y0099213D01*
X0036604Y0099273D01*
X0036636Y0099335D01*
X0036664Y0099399D01*
X0036689Y0099464D01*
X0036710Y0099531D01*
X0036728Y0099598D01*
X0036741Y0099667D01*
X0036751Y0099736D01*
X0036757Y0099805D01*
X0036759Y0099875D01*
X0036759Y0101475D01*
X0037470Y0104169D02*
X0035337Y0104169D01*
X0035273Y0104171D01*
X0035208Y0104177D01*
X0035145Y0104186D01*
X0035082Y0104200D01*
X0035020Y0104217D01*
X0034959Y0104238D01*
X0034899Y0104263D01*
X0034841Y0104291D01*
X0034785Y0104323D01*
X0034731Y0104358D01*
X0034679Y0104396D01*
X0034629Y0104437D01*
X0034583Y0104482D01*
X0034538Y0104528D01*
X0034497Y0104578D01*
X0034459Y0104630D01*
X0034424Y0104684D01*
X0034392Y0104740D01*
X0034364Y0104798D01*
X0034339Y0104858D01*
X0034318Y0104919D01*
X0034301Y0104981D01*
X0034287Y0105044D01*
X0034278Y0105107D01*
X0034272Y0105172D01*
X0034270Y0105236D01*
X0034270Y0107013D01*
X0033203Y0107013D02*
X0038537Y0107013D01*
X0038537Y0105236D01*
X0038535Y0105172D01*
X0038529Y0105107D01*
X0038520Y0105044D01*
X0038506Y0104981D01*
X0038489Y0104919D01*
X0038468Y0104858D01*
X0038443Y0104798D01*
X0038415Y0104740D01*
X0038383Y0104684D01*
X0038348Y0104630D01*
X0038310Y0104578D01*
X0038269Y0104528D01*
X0038224Y0104482D01*
X0038178Y0104437D01*
X0038128Y0104396D01*
X0038076Y0104358D01*
X0038022Y0104323D01*
X0037966Y0104291D01*
X0037908Y0104263D01*
X0037848Y0104238D01*
X0037787Y0104217D01*
X0037725Y0104200D01*
X0037662Y0104186D01*
X0037599Y0104177D01*
X0037534Y0104171D01*
X0037470Y0104169D01*
X0040315Y0101475D02*
X0040315Y0101119D01*
X0040670Y0101119D01*
X0040670Y0101475D01*
X0040315Y0101475D01*
X0040315Y0099341D02*
X0040670Y0099341D01*
X0040670Y0098986D01*
X0040315Y0098986D01*
X0040315Y0099341D01*
X0037115Y0109736D02*
X0035337Y0109736D01*
X0036403Y0109736D02*
X0036403Y0112581D01*
X0037115Y0112581D01*
X0037189Y0112579D01*
X0037264Y0112573D01*
X0037337Y0112563D01*
X0037411Y0112550D01*
X0037483Y0112533D01*
X0037554Y0112511D01*
X0037625Y0112487D01*
X0037693Y0112458D01*
X0037761Y0112426D01*
X0037826Y0112390D01*
X0037889Y0112352D01*
X0037951Y0112309D01*
X0038010Y0112264D01*
X0038067Y0112216D01*
X0038121Y0112165D01*
X0038172Y0112111D01*
X0038220Y0112054D01*
X0038265Y0111995D01*
X0038308Y0111933D01*
X0038346Y0111870D01*
X0038382Y0111805D01*
X0038414Y0111737D01*
X0038443Y0111669D01*
X0038467Y0111598D01*
X0038489Y0111527D01*
X0038506Y0111455D01*
X0038519Y0111381D01*
X0038529Y0111308D01*
X0038535Y0111233D01*
X0038537Y0111159D01*
X0038535Y0111085D01*
X0038529Y0111010D01*
X0038519Y0110937D01*
X0038506Y0110863D01*
X0038489Y0110791D01*
X0038467Y0110720D01*
X0038443Y0110649D01*
X0038414Y0110581D01*
X0038382Y0110513D01*
X0038346Y0110448D01*
X0038308Y0110385D01*
X0038265Y0110323D01*
X0038220Y0110264D01*
X0038172Y0110207D01*
X0038121Y0110153D01*
X0038067Y0110102D01*
X0038010Y0110054D01*
X0037951Y0110009D01*
X0037889Y0109966D01*
X0037826Y0109928D01*
X0037761Y0109892D01*
X0037693Y0109860D01*
X0037625Y0109831D01*
X0037554Y0109807D01*
X0037483Y0109785D01*
X0037411Y0109768D01*
X0037337Y0109755D01*
X0037264Y0109745D01*
X0037189Y0109739D01*
X0037115Y0109737D01*
X0035337Y0109736D02*
X0035273Y0109738D01*
X0035208Y0109744D01*
X0035145Y0109753D01*
X0035082Y0109767D01*
X0035020Y0109784D01*
X0034959Y0109805D01*
X0034899Y0109830D01*
X0034841Y0109858D01*
X0034785Y0109890D01*
X0034731Y0109925D01*
X0034679Y0109963D01*
X0034629Y0110004D01*
X0034583Y0110049D01*
X0034538Y0110095D01*
X0034497Y0110145D01*
X0034459Y0110197D01*
X0034424Y0110251D01*
X0034392Y0110307D01*
X0034364Y0110365D01*
X0034339Y0110425D01*
X0034318Y0110486D01*
X0034301Y0110548D01*
X0034287Y0110611D01*
X0034278Y0110674D01*
X0034272Y0110739D01*
X0034270Y0110803D01*
X0034270Y0112581D01*
X0034270Y0115308D02*
X0038537Y0115308D01*
X0038537Y0117442D01*
X0037826Y0117442D01*
X0033203Y0107014D02*
X0033139Y0107012D01*
X0033074Y0107006D01*
X0033011Y0106997D01*
X0032948Y0106983D01*
X0032886Y0106966D01*
X0032825Y0106945D01*
X0032765Y0106920D01*
X0032707Y0106892D01*
X0032651Y0106860D01*
X0032597Y0106825D01*
X0032545Y0106787D01*
X0032495Y0106746D01*
X0032449Y0106701D01*
X0032404Y0106655D01*
X0032363Y0106605D01*
X0032325Y0106553D01*
X0032290Y0106499D01*
X0032258Y0106443D01*
X0032230Y0106385D01*
X0032205Y0106325D01*
X0032184Y0106264D01*
X0032167Y0106202D01*
X0032153Y0106139D01*
X0032144Y0106076D01*
X0032138Y0106011D01*
X0032136Y0105947D01*
X0032137Y0105947D02*
X0032137Y0104524D01*
X0028859Y0131519D02*
X0022459Y0131519D01*
X0022459Y0135786D02*
X0028859Y0135786D01*
X0025303Y0133653D01*
X0028859Y0131519D01*
X0028859Y0138933D02*
X0022459Y0138933D01*
X0024948Y0138933D02*
X0028859Y0142488D01*
X0027437Y0144798D02*
X0028859Y0146576D01*
X0022459Y0146576D01*
X0022459Y0144798D02*
X0022459Y0148354D01*
X0022459Y0142488D02*
X0026370Y0140355D01*
X0028859Y0153879D02*
X0022459Y0156012D01*
X0028859Y0158146D01*
X0027437Y0160389D02*
X0028859Y0162166D01*
X0022459Y0162166D01*
X0022459Y0160389D02*
X0022459Y0163944D01*
X0022459Y0166296D02*
X0022459Y0166652D01*
X0022815Y0166652D01*
X0022815Y0166296D01*
X0022459Y0166296D01*
X0023881Y0169360D02*
X0027437Y0172204D01*
X0027970Y0172027D02*
X0028036Y0172002D01*
X0028101Y0171974D01*
X0028165Y0171942D01*
X0028226Y0171907D01*
X0028286Y0171868D01*
X0028344Y0171827D01*
X0028399Y0171782D01*
X0028451Y0171734D01*
X0028501Y0171684D01*
X0028549Y0171631D01*
X0028593Y0171576D01*
X0028634Y0171518D01*
X0028672Y0171458D01*
X0028707Y0171396D01*
X0028738Y0171332D01*
X0028766Y0171267D01*
X0028791Y0171200D01*
X0028811Y0171133D01*
X0028828Y0171064D01*
X0028842Y0170994D01*
X0028851Y0170924D01*
X0028857Y0170853D01*
X0028859Y0170782D01*
X0028860Y0170782D02*
X0028858Y0170711D01*
X0028852Y0170640D01*
X0028843Y0170570D01*
X0028829Y0170500D01*
X0028812Y0170431D01*
X0028792Y0170364D01*
X0028767Y0170297D01*
X0028739Y0170232D01*
X0028708Y0170168D01*
X0028673Y0170106D01*
X0028635Y0170046D01*
X0028594Y0169988D01*
X0028550Y0169933D01*
X0028502Y0169880D01*
X0028452Y0169830D01*
X0028400Y0169782D01*
X0028345Y0169737D01*
X0028287Y0169696D01*
X0028227Y0169657D01*
X0028166Y0169622D01*
X0028102Y0169590D01*
X0028037Y0169562D01*
X0027971Y0169537D01*
X0027970Y0172027D02*
X0027843Y0172087D01*
X0027714Y0172143D01*
X0027584Y0172196D01*
X0027452Y0172246D01*
X0027319Y0172292D01*
X0027185Y0172334D01*
X0027050Y0172373D01*
X0026913Y0172409D01*
X0026776Y0172440D01*
X0026638Y0172468D01*
X0026500Y0172493D01*
X0026361Y0172513D01*
X0026221Y0172530D01*
X0026081Y0172543D01*
X0025940Y0172552D01*
X0025800Y0172558D01*
X0025659Y0172560D01*
X0025659Y0169004D02*
X0025800Y0169006D01*
X0025940Y0169012D01*
X0026081Y0169021D01*
X0026221Y0169034D01*
X0026361Y0169051D01*
X0026500Y0169071D01*
X0026638Y0169096D01*
X0026776Y0169124D01*
X0026913Y0169155D01*
X0027050Y0169191D01*
X0027185Y0169230D01*
X0027319Y0169272D01*
X0027452Y0169318D01*
X0027584Y0169368D01*
X0027714Y0169421D01*
X0027843Y0169477D01*
X0027970Y0169537D01*
X0025659Y0172560D02*
X0025518Y0172558D01*
X0025378Y0172552D01*
X0025237Y0172543D01*
X0025097Y0172530D01*
X0024957Y0172513D01*
X0024818Y0172493D01*
X0024680Y0172468D01*
X0024542Y0172440D01*
X0024405Y0172409D01*
X0024268Y0172373D01*
X0024133Y0172334D01*
X0023999Y0172292D01*
X0023866Y0172246D01*
X0023734Y0172196D01*
X0023604Y0172143D01*
X0023475Y0172087D01*
X0023348Y0172027D01*
X0023282Y0172002D01*
X0023217Y0171974D01*
X0023153Y0171942D01*
X0023092Y0171907D01*
X0023032Y0171868D01*
X0022974Y0171827D01*
X0022919Y0171782D01*
X0022867Y0171734D01*
X0022817Y0171684D01*
X0022769Y0171631D01*
X0022725Y0171575D01*
X0022684Y0171518D01*
X0022646Y0171458D01*
X0022611Y0171396D01*
X0022580Y0171332D01*
X0022552Y0171267D01*
X0022527Y0171200D01*
X0022507Y0171133D01*
X0022490Y0171064D01*
X0022476Y0170994D01*
X0022467Y0170924D01*
X0022461Y0170853D01*
X0022459Y0170782D01*
X0022461Y0170711D01*
X0022467Y0170640D01*
X0022476Y0170570D01*
X0022490Y0170500D01*
X0022507Y0170431D01*
X0022527Y0170364D01*
X0022552Y0170297D01*
X0022580Y0170232D01*
X0022611Y0170168D01*
X0022646Y0170106D01*
X0022684Y0170046D01*
X0022725Y0169988D01*
X0022769Y0169933D01*
X0022817Y0169880D01*
X0022867Y0169830D01*
X0022919Y0169782D01*
X0022974Y0169737D01*
X0023032Y0169696D01*
X0023092Y0169657D01*
X0023153Y0169622D01*
X0023217Y0169590D01*
X0023282Y0169562D01*
X0023348Y0169537D01*
X0023475Y0169477D01*
X0023604Y0169421D01*
X0023734Y0169368D01*
X0023866Y0169318D01*
X0023999Y0169272D01*
X0024133Y0169230D01*
X0024268Y0169191D01*
X0024405Y0169155D01*
X0024542Y0169124D01*
X0024680Y0169096D01*
X0024818Y0169071D01*
X0024957Y0169051D01*
X0025097Y0169034D01*
X0025237Y0169021D01*
X0025378Y0169012D01*
X0025518Y0169006D01*
X0025659Y0169004D01*
D11*
X0014907Y0246285D03*
X0059159Y0246285D03*
D12*
X0059159Y0262033D03*
X0014907Y0262033D03*
D13*
X0032407Y0011443D03*
X0041659Y0011443D03*
D14*
X0072183Y0097899D02*
X0078183Y0097899D01*
X0078183Y0107899D02*
X0072183Y0107899D01*
X0072183Y0117899D02*
X0078183Y0117899D01*
D15*
X0052637Y0149238D03*
X0046876Y0163017D03*
X0040970Y0163017D03*
X0033096Y0143332D03*
X0033096Y0135458D03*
X0048647Y0210261D03*
X0040773Y0229946D03*
X0048844Y0235852D03*
X0025222Y0235852D03*
X0017545Y0231915D03*
X0029159Y0011443D03*
X0044907Y0011443D03*
D16*
X0020048Y0008624D02*
X0020048Y0016230D01*
X0028720Y0024902D01*
X0029479Y0025661D01*
X0029891Y0026653D01*
X0029891Y0051350D01*
X0029479Y0052342D01*
X0028720Y0053102D01*
X0027728Y0053513D01*
X0027191Y0053513D01*
X0027191Y0067798D01*
X0027728Y0067798D01*
X0028720Y0068209D01*
X0029479Y0068968D01*
X0029891Y0069961D01*
X0029891Y0080877D01*
X0029479Y0081870D01*
X0020048Y0091301D01*
X0020048Y0142180D01*
X0020291Y0141353D01*
X0020824Y0140692D01*
X0020424Y0140292D01*
X0020059Y0139410D01*
X0020059Y0138455D01*
X0020424Y0137573D01*
X0020638Y0137359D01*
X0020424Y0137146D01*
X0020059Y0136263D01*
X0020059Y0135309D01*
X0020424Y0134427D01*
X0021100Y0133751D01*
X0021338Y0133653D01*
X0021100Y0133554D01*
X0020424Y0132879D01*
X0020059Y0131997D01*
X0020059Y0131042D01*
X0020424Y0130160D01*
X0021100Y0129485D01*
X0021982Y0129119D01*
X0028681Y0129119D01*
X0028978Y0129075D01*
X0029155Y0129119D01*
X0029336Y0129119D01*
X0029613Y0129234D01*
X0029904Y0129307D01*
X0030050Y0129415D01*
X0030219Y0129485D01*
X0030431Y0129697D01*
X0030671Y0129875D01*
X0030765Y0130031D01*
X0030894Y0130160D01*
X0031008Y0130437D01*
X0031163Y0130694D01*
X0031189Y0130874D01*
X0031259Y0131042D01*
X0031259Y0131342D01*
X0031303Y0131638D01*
X0031259Y0131815D01*
X0031259Y0131997D01*
X0031144Y0132274D01*
X0031112Y0132404D01*
X0032384Y0131877D01*
X0033808Y0131877D01*
X0035125Y0132422D01*
X0036132Y0133430D01*
X0036677Y0134746D01*
X0036677Y0135221D01*
X0048405Y0146949D01*
X0049165Y0147708D01*
X0049279Y0147986D01*
X0049463Y0147541D01*
X0049855Y0146955D01*
X0050354Y0146456D01*
X0050941Y0146064D01*
X0051592Y0145794D01*
X0052284Y0145657D01*
X0052637Y0145657D01*
X0052990Y0145657D01*
X0053682Y0145794D01*
X0054018Y0145934D01*
X0054018Y0129016D01*
X0054429Y0128023D01*
X0055189Y0127264D01*
X0059126Y0123327D01*
X0060118Y0122916D01*
X0091033Y0122916D01*
X0091420Y0122529D01*
X0091420Y0093270D01*
X0091033Y0092883D01*
X0056181Y0092883D01*
X0055189Y0092472D01*
X0045346Y0082629D01*
X0044587Y0081870D01*
X0044176Y0080877D01*
X0044176Y0069961D01*
X0044587Y0068968D01*
X0045346Y0068209D01*
X0046339Y0067798D01*
X0046876Y0067798D01*
X0046876Y0053513D01*
X0046339Y0053513D01*
X0045346Y0053102D01*
X0044587Y0052342D01*
X0044176Y0051350D01*
X0044176Y0026653D01*
X0044587Y0025661D01*
X0045346Y0024902D01*
X0054018Y0016230D01*
X0054018Y0008624D01*
X0049694Y0004300D01*
X0024372Y0004300D01*
X0020048Y0008624D01*
X0020048Y0008784D02*
X0026753Y0008784D01*
X0027131Y0008407D02*
X0028447Y0007861D01*
X0029871Y0007861D01*
X0029909Y0007877D01*
X0035448Y0007877D01*
X0036268Y0008697D01*
X0036268Y0014188D01*
X0035448Y0015008D01*
X0029909Y0015008D01*
X0029871Y0015024D01*
X0028447Y0015024D01*
X0027131Y0014478D01*
X0026123Y0013471D01*
X0025578Y0012155D01*
X0025578Y0010730D01*
X0026123Y0009414D01*
X0027131Y0008407D01*
X0025887Y0009983D02*
X0020048Y0009983D01*
X0020048Y0011181D02*
X0025578Y0011181D01*
X0025671Y0012380D02*
X0020048Y0012380D01*
X0020048Y0013578D02*
X0026231Y0013578D01*
X0027851Y0014777D02*
X0020048Y0014777D01*
X0020048Y0015975D02*
X0054018Y0015975D01*
X0054018Y0014777D02*
X0046215Y0014777D01*
X0045952Y0014886D02*
X0045260Y0015024D01*
X0044907Y0015024D01*
X0044868Y0015024D01*
X0044737Y0015099D01*
X0044330Y0015208D01*
X0042142Y0015208D01*
X0042142Y0013742D01*
X0042125Y0013725D01*
X0041734Y0013139D01*
X0041464Y0012487D01*
X0041352Y0011925D01*
X0041176Y0011925D01*
X0041176Y0010960D01*
X0037598Y0010960D01*
X0037598Y0009067D01*
X0037707Y0008660D01*
X0037918Y0008295D01*
X0038216Y0007997D01*
X0038581Y0007786D01*
X0038988Y0007677D01*
X0041176Y0007677D01*
X0041176Y0010960D01*
X0041352Y0010960D01*
X0041464Y0010398D01*
X0041734Y0009746D01*
X0042125Y0009160D01*
X0042142Y0009143D01*
X0042142Y0007677D01*
X0044330Y0007677D01*
X0044737Y0007786D01*
X0044868Y0007861D01*
X0044907Y0007861D01*
X0044907Y0007884D01*
X0044907Y0007884D01*
X0044907Y0007861D01*
X0045260Y0007861D01*
X0045952Y0007999D01*
X0046603Y0008269D01*
X0047190Y0008661D01*
X0047689Y0009160D01*
X0048081Y0009746D01*
X0048351Y0010398D01*
X0048488Y0011090D01*
X0048488Y0011442D01*
X0044907Y0011442D01*
X0042142Y0011442D01*
X0042142Y0011443D01*
X0044907Y0011443D01*
X0044907Y0011442D01*
X0044907Y0011443D01*
X0048488Y0011443D01*
X0048488Y0011795D01*
X0048351Y0012487D01*
X0048081Y0013139D01*
X0047689Y0013725D01*
X0047190Y0014224D01*
X0046603Y0014616D01*
X0045952Y0014886D01*
X0044907Y0015001D02*
X0044907Y0015001D01*
X0044907Y0015024D01*
X0044907Y0015001D01*
X0042142Y0014777D02*
X0041176Y0014777D01*
X0041176Y0015208D02*
X0038988Y0015208D01*
X0038581Y0015099D01*
X0038216Y0014888D01*
X0037918Y0014590D01*
X0037707Y0014225D01*
X0037598Y0013819D01*
X0037598Y0011925D01*
X0041176Y0011925D01*
X0041176Y0015208D01*
X0041176Y0013578D02*
X0042027Y0013578D01*
X0041442Y0012380D02*
X0041176Y0012380D01*
X0040911Y0012191D02*
X0041659Y0011443D01*
X0044907Y0011443D01*
X0047787Y0013578D02*
X0054018Y0013578D01*
X0054018Y0012380D02*
X0048372Y0012380D01*
X0048488Y0011181D02*
X0054018Y0011181D01*
X0054018Y0009983D02*
X0048179Y0009983D01*
X0047313Y0008784D02*
X0054018Y0008784D01*
X0052980Y0007586D02*
X0021086Y0007586D01*
X0022285Y0006387D02*
X0051782Y0006387D01*
X0050583Y0005189D02*
X0023483Y0005189D01*
X0020992Y0017174D02*
X0053074Y0017174D01*
X0051875Y0018372D02*
X0022191Y0018372D01*
X0023389Y0019571D02*
X0032888Y0019571D01*
X0032911Y0019549D02*
X0033793Y0019183D01*
X0034747Y0019183D01*
X0040193Y0019183D01*
X0041147Y0019183D01*
X0042030Y0019549D01*
X0042705Y0020224D01*
X0043070Y0021106D01*
X0043070Y0024481D01*
X0041951Y0026420D01*
X0040827Y0027068D01*
X0041147Y0027068D01*
X0042030Y0027434D01*
X0042705Y0028109D01*
X0043070Y0028991D01*
X0043070Y0029946D01*
X0042726Y0030777D01*
X0043070Y0031609D01*
X0043070Y0033986D01*
X0042705Y0034868D01*
X0042030Y0035543D01*
X0041147Y0035908D01*
X0040193Y0035908D01*
X0039311Y0035543D01*
X0038965Y0035197D01*
X0035975Y0035197D01*
X0035630Y0035543D01*
X0034747Y0035908D01*
X0033793Y0035908D01*
X0032911Y0035543D01*
X0032235Y0034868D01*
X0031870Y0033986D01*
X0031870Y0031609D01*
X0032235Y0030727D01*
X0032610Y0030352D01*
X0031870Y0029070D01*
X0031870Y0026857D01*
X0032235Y0025975D01*
X0032551Y0025660D01*
X0031870Y0024481D01*
X0031870Y0022884D01*
X0031870Y0022884D01*
X0031870Y0021106D01*
X0032235Y0020224D01*
X0032911Y0019549D01*
X0032009Y0020769D02*
X0024588Y0020769D01*
X0025786Y0021968D02*
X0031870Y0021968D01*
X0031870Y0023166D02*
X0026985Y0023166D01*
X0028183Y0024365D02*
X0031870Y0024365D01*
X0032495Y0025564D02*
X0029382Y0025564D01*
X0029891Y0026762D02*
X0031910Y0026762D01*
X0031870Y0027961D02*
X0029891Y0027961D01*
X0029891Y0029159D02*
X0031921Y0029159D01*
X0032605Y0030358D02*
X0029891Y0030358D01*
X0029891Y0031556D02*
X0031892Y0031556D01*
X0031870Y0032755D02*
X0029891Y0032755D01*
X0029891Y0033953D02*
X0031870Y0033953D01*
X0032519Y0035152D02*
X0029891Y0035152D01*
X0029891Y0036350D02*
X0044176Y0036350D01*
X0044176Y0035152D02*
X0042421Y0035152D01*
X0043070Y0033953D02*
X0044176Y0033953D01*
X0044176Y0032755D02*
X0043070Y0032755D01*
X0043048Y0031556D02*
X0044176Y0031556D01*
X0044176Y0030358D02*
X0042899Y0030358D01*
X0043070Y0029159D02*
X0044176Y0029159D01*
X0044176Y0027961D02*
X0042557Y0027961D01*
X0041951Y0026420D02*
X0041951Y0026420D01*
X0041951Y0026420D01*
X0041357Y0026762D02*
X0044176Y0026762D01*
X0044684Y0025564D02*
X0042445Y0025564D01*
X0043070Y0024365D02*
X0045883Y0024365D01*
X0047081Y0023166D02*
X0043070Y0023166D01*
X0043070Y0021968D02*
X0048280Y0021968D01*
X0049478Y0020769D02*
X0042931Y0020769D01*
X0042052Y0019571D02*
X0050677Y0019571D01*
X0044176Y0037549D02*
X0042128Y0037549D01*
X0042030Y0037450D02*
X0042242Y0037662D01*
X0042482Y0037841D01*
X0042576Y0037997D01*
X0042705Y0038125D01*
X0042819Y0038402D01*
X0042974Y0038659D01*
X0043000Y0038839D01*
X0043070Y0039007D01*
X0043070Y0039307D01*
X0043114Y0039604D01*
X0043070Y0039780D01*
X0043070Y0039962D01*
X0042955Y0040239D01*
X0042883Y0040530D01*
X0042774Y0040676D01*
X0042705Y0040844D01*
X0042493Y0041056D01*
X0042314Y0041297D01*
X0042158Y0041391D01*
X0042030Y0041519D01*
X0041791Y0041618D01*
X0042030Y0041717D01*
X0042158Y0041845D01*
X0042314Y0041939D01*
X0042493Y0042180D01*
X0042705Y0042392D01*
X0042774Y0042560D01*
X0042883Y0042706D01*
X0042955Y0042997D01*
X0043070Y0043274D01*
X0043070Y0043456D01*
X0043114Y0043633D01*
X0043070Y0043929D01*
X0043070Y0044229D01*
X0043000Y0044397D01*
X0042974Y0044577D01*
X0042819Y0044834D01*
X0042727Y0045058D01*
X0043070Y0045886D01*
X0043070Y0047197D01*
X0042705Y0048079D01*
X0042030Y0048754D01*
X0041147Y0049119D01*
X0040937Y0049119D01*
X0040937Y0051928D01*
X0040798Y0052169D01*
X0041147Y0052169D01*
X0042030Y0052534D01*
X0042705Y0053209D01*
X0043070Y0054092D01*
X0043070Y0055402D01*
X0042705Y0056284D01*
X0042030Y0056959D01*
X0041147Y0057324D01*
X0039837Y0057324D01*
X0039211Y0057065D01*
X0039014Y0057147D01*
X0033793Y0057147D01*
X0032911Y0056781D01*
X0032235Y0056106D01*
X0031870Y0055224D01*
X0031870Y0054269D01*
X0032227Y0053406D01*
X0031870Y0052544D01*
X0031870Y0051589D01*
X0032235Y0050707D01*
X0032298Y0050644D01*
X0032235Y0050581D01*
X0031870Y0049699D01*
X0031870Y0048744D01*
X0032227Y0047882D01*
X0031870Y0047019D01*
X0031870Y0046064D01*
X0032235Y0045182D01*
X0032271Y0045146D01*
X0032235Y0045111D01*
X0031870Y0044229D01*
X0031870Y0043274D01*
X0032235Y0042392D01*
X0032911Y0041717D01*
X0033149Y0041618D01*
X0032911Y0041519D01*
X0032235Y0040844D01*
X0031870Y0039962D01*
X0031870Y0039007D01*
X0032235Y0038125D01*
X0032911Y0037450D01*
X0033793Y0037085D01*
X0040492Y0037085D01*
X0040789Y0037041D01*
X0040966Y0037085D01*
X0041147Y0037085D01*
X0041424Y0037200D01*
X0041715Y0037272D01*
X0041861Y0037381D01*
X0042030Y0037450D01*
X0042987Y0038747D02*
X0044176Y0038747D01*
X0044176Y0039946D02*
X0043070Y0039946D01*
X0042428Y0041144D02*
X0044176Y0041144D01*
X0044176Y0042343D02*
X0042655Y0042343D01*
X0043091Y0043541D02*
X0044176Y0043541D01*
X0044176Y0044740D02*
X0042876Y0044740D01*
X0043070Y0045938D02*
X0044176Y0045938D01*
X0044176Y0047137D02*
X0043070Y0047137D01*
X0042448Y0048335D02*
X0044176Y0048335D01*
X0044176Y0049534D02*
X0040937Y0049534D01*
X0040937Y0050732D02*
X0044176Y0050732D01*
X0044416Y0051931D02*
X0040935Y0051931D01*
X0042625Y0053129D02*
X0045413Y0053129D01*
X0046876Y0054328D02*
X0043070Y0054328D01*
X0043019Y0055526D02*
X0046876Y0055526D01*
X0046876Y0056725D02*
X0042264Y0056725D01*
X0041788Y0059805D02*
X0042536Y0060398D01*
X0043000Y0061233D01*
X0043109Y0062181D01*
X0042847Y0063099D01*
X0042253Y0063847D01*
X0041418Y0064311D01*
X0040470Y0064420D01*
X0039284Y0064081D01*
X0039149Y0064407D01*
X0038474Y0065082D01*
X0037768Y0065375D01*
X0037727Y0065474D01*
X0037052Y0066149D01*
X0036170Y0066514D01*
X0035215Y0066514D01*
X0034333Y0066149D01*
X0033658Y0065474D01*
X0033617Y0065375D01*
X0032911Y0065082D01*
X0032235Y0064407D01*
X0031870Y0063525D01*
X0031870Y0062570D01*
X0032235Y0061688D01*
X0032911Y0061013D01*
X0033292Y0060855D01*
X0033292Y0060696D01*
X0033253Y0060359D01*
X0033292Y0060223D01*
X0033292Y0060081D01*
X0033422Y0059767D01*
X0033516Y0059441D01*
X0033604Y0059330D01*
X0033658Y0059199D01*
X0033898Y0058959D01*
X0034109Y0058693D01*
X0034233Y0058624D01*
X0034333Y0058524D01*
X0034647Y0058394D01*
X0034944Y0058229D01*
X0035084Y0058213D01*
X0035215Y0058159D01*
X0035555Y0058159D01*
X0035893Y0058120D01*
X0036028Y0058159D01*
X0036170Y0058159D01*
X0036484Y0058289D01*
X0041788Y0059805D01*
X0042438Y0060320D02*
X0046876Y0060320D01*
X0046876Y0059122D02*
X0039399Y0059122D01*
X0038397Y0065114D02*
X0046876Y0065114D01*
X0046876Y0063916D02*
X0042129Y0063916D01*
X0042956Y0062717D02*
X0046876Y0062717D01*
X0046876Y0061519D02*
X0043033Y0061519D01*
X0041147Y0067883D02*
X0042030Y0068249D01*
X0042705Y0068924D01*
X0043070Y0069806D01*
X0043070Y0073180D01*
X0041951Y0075119D01*
X0041951Y0075119D01*
X0041951Y0075119D01*
X0040886Y0075734D01*
X0040937Y0075856D01*
X0040937Y0078944D01*
X0040571Y0079826D01*
X0040446Y0079951D01*
X0040937Y0080800D01*
X0040937Y0082849D01*
X0039913Y0084622D01*
X0039913Y0084622D01*
X0038139Y0085647D01*
X0034668Y0085647D01*
X0032894Y0084622D01*
X0031870Y0082849D01*
X0031870Y0080800D01*
X0032894Y0079026D01*
X0033566Y0078639D01*
X0032911Y0078368D01*
X0032235Y0077692D01*
X0031870Y0076810D01*
X0031870Y0075856D01*
X0032235Y0074973D01*
X0032911Y0074298D01*
X0033793Y0073933D01*
X0035149Y0073933D01*
X0034715Y0073180D01*
X0034715Y0072683D01*
X0033793Y0072683D01*
X0032911Y0072318D01*
X0032235Y0071643D01*
X0031870Y0070761D01*
X0031870Y0069806D01*
X0032235Y0068924D01*
X0032911Y0068249D01*
X0033793Y0067883D01*
X0041147Y0067883D01*
X0042491Y0068710D02*
X0044845Y0068710D01*
X0044197Y0069908D02*
X0043070Y0069908D01*
X0043070Y0071107D02*
X0044176Y0071107D01*
X0044176Y0072305D02*
X0043070Y0072305D01*
X0042883Y0073504D02*
X0044176Y0073504D01*
X0044176Y0074702D02*
X0042191Y0074702D01*
X0040937Y0075901D02*
X0044176Y0075901D01*
X0044176Y0077100D02*
X0040937Y0077100D01*
X0040937Y0078298D02*
X0044176Y0078298D01*
X0044176Y0079497D02*
X0040708Y0079497D01*
X0040876Y0080695D02*
X0044176Y0080695D01*
X0044611Y0081894D02*
X0040937Y0081894D01*
X0040796Y0083092D02*
X0045809Y0083092D01*
X0047008Y0084291D02*
X0040104Y0084291D01*
X0040193Y0086262D02*
X0041147Y0086262D01*
X0042030Y0086628D01*
X0042705Y0087303D01*
X0043070Y0088185D01*
X0043070Y0092695D01*
X0042705Y0093577D01*
X0042030Y0094252D01*
X0041147Y0094618D01*
X0040937Y0094618D01*
X0040937Y0096586D01*
X0041147Y0096586D01*
X0042030Y0096951D01*
X0042705Y0097626D01*
X0043070Y0098508D01*
X0043070Y0099819D01*
X0042900Y0100230D01*
X0043070Y0100642D01*
X0043070Y0101952D01*
X0042705Y0102834D01*
X0042030Y0103509D01*
X0041147Y0103875D01*
X0040687Y0103875D01*
X0040937Y0104307D01*
X0040937Y0107491D01*
X0040571Y0108373D01*
X0040158Y0108786D01*
X0040937Y0110134D01*
X0040937Y0112183D01*
X0040157Y0113534D01*
X0040571Y0113949D01*
X0040937Y0114831D01*
X0040937Y0117919D01*
X0040571Y0118801D01*
X0039896Y0119476D01*
X0039014Y0119842D01*
X0037348Y0119842D01*
X0036466Y0119476D01*
X0035791Y0118801D01*
X0035426Y0117919D01*
X0035426Y0117708D01*
X0033793Y0117708D01*
X0032911Y0117343D01*
X0032235Y0116668D01*
X0031870Y0115786D01*
X0031870Y0114831D01*
X0032235Y0113949D01*
X0032240Y0113945D01*
X0032235Y0113940D01*
X0031870Y0113058D01*
X0031870Y0109874D01*
X0032171Y0109353D01*
X0030666Y0108484D01*
X0029737Y0106876D01*
X0029737Y0106876D01*
X0029737Y0105947D01*
X0029737Y0105469D01*
X0029737Y0104047D01*
X0030102Y0103165D01*
X0030777Y0102490D01*
X0031659Y0102124D01*
X0031941Y0102124D01*
X0031870Y0101952D01*
X0031870Y0098898D01*
X0032847Y0097207D01*
X0033461Y0096852D01*
X0032911Y0096624D01*
X0032235Y0095949D01*
X0031870Y0095067D01*
X0031870Y0094112D01*
X0032235Y0093230D01*
X0032911Y0092555D01*
X0033008Y0092515D01*
X0032911Y0092475D01*
X0032235Y0091800D01*
X0031870Y0090917D01*
X0031870Y0089963D01*
X0032235Y0089081D01*
X0032911Y0088405D01*
X0033793Y0088040D01*
X0038330Y0088040D01*
X0038635Y0087303D01*
X0039311Y0086628D01*
X0040193Y0086262D01*
X0039251Y0086688D02*
X0024661Y0086688D01*
X0023463Y0087886D02*
X0038394Y0087886D01*
X0038412Y0085489D02*
X0048206Y0085489D01*
X0049405Y0086688D02*
X0042090Y0086688D01*
X0042946Y0087886D02*
X0050603Y0087886D01*
X0051802Y0089085D02*
X0043070Y0089085D01*
X0043070Y0090283D02*
X0053000Y0090283D01*
X0054199Y0091482D02*
X0043070Y0091482D01*
X0043070Y0092680D02*
X0055692Y0092680D01*
X0058687Y0098057D02*
X0052637Y0104106D01*
X0052637Y0149238D01*
X0052637Y0152819D01*
X0052284Y0152819D01*
X0051592Y0152681D01*
X0050941Y0152411D01*
X0050354Y0152019D01*
X0049855Y0151521D01*
X0049576Y0151102D01*
X0049576Y0160653D01*
X0049911Y0160989D01*
X0050457Y0162305D01*
X0050457Y0163730D01*
X0049911Y0165046D01*
X0048904Y0166053D01*
X0047588Y0166598D01*
X0046163Y0166598D01*
X0044847Y0166053D01*
X0043923Y0165129D01*
X0043670Y0165382D01*
X0043670Y0201466D01*
X0048885Y0206680D01*
X0049360Y0206680D01*
X0050676Y0207226D01*
X0051683Y0208233D01*
X0052228Y0209549D01*
X0052228Y0210974D01*
X0051683Y0212290D01*
X0050676Y0213297D01*
X0049360Y0213843D01*
X0047935Y0213843D01*
X0046619Y0213297D01*
X0045611Y0212290D01*
X0045066Y0210974D01*
X0045066Y0210499D01*
X0038681Y0204114D01*
X0038270Y0203121D01*
X0038270Y0165382D01*
X0037934Y0165046D01*
X0037389Y0163730D01*
X0037389Y0162305D01*
X0037934Y0160989D01*
X0038270Y0160653D01*
X0038270Y0152325D01*
X0032859Y0146913D01*
X0032384Y0146913D01*
X0031287Y0146459D01*
X0031259Y0146709D01*
X0031259Y0147054D01*
X0031207Y0147180D01*
X0031192Y0147316D01*
X0031025Y0147617D01*
X0030894Y0147936D01*
X0030797Y0148032D01*
X0030731Y0148152D01*
X0030462Y0148367D01*
X0030219Y0148611D01*
X0030092Y0148663D01*
X0029986Y0148749D01*
X0029655Y0148844D01*
X0029336Y0148976D01*
X0029200Y0148976D01*
X0029069Y0149014D01*
X0028726Y0148976D01*
X0024799Y0148976D01*
X0024494Y0149714D01*
X0023819Y0150389D01*
X0022936Y0150754D01*
X0021982Y0150754D01*
X0021100Y0150389D01*
X0020424Y0149714D01*
X0020059Y0148831D01*
X0020059Y0144321D01*
X0020346Y0143627D01*
X0020124Y0143218D01*
X0020048Y0142513D01*
X0020048Y0155656D01*
X0020087Y0155541D01*
X0020099Y0155366D01*
X0020236Y0155092D01*
X0020333Y0154801D01*
X0020448Y0154668D01*
X0020526Y0154512D01*
X0020758Y0154311D01*
X0020959Y0154079D01*
X0021115Y0154001D01*
X0021247Y0153887D01*
X0021538Y0153790D01*
X0021813Y0153652D01*
X0021987Y0153640D01*
X0028553Y0151451D01*
X0029505Y0151519D01*
X0030359Y0151946D01*
X0030985Y0152667D01*
X0031287Y0153573D01*
X0031219Y0154525D01*
X0030792Y0155379D01*
X0030071Y0156005D01*
X0030048Y0156012D01*
X0030071Y0156020D01*
X0030792Y0156645D01*
X0031219Y0157499D01*
X0031287Y0158452D01*
X0030985Y0159358D01*
X0030359Y0160079D01*
X0030290Y0160113D01*
X0030650Y0160563D01*
X0030894Y0160807D01*
X0030946Y0160933D01*
X0031031Y0161040D01*
X0031127Y0161371D01*
X0031259Y0161689D01*
X0031259Y0161826D01*
X0031297Y0161957D01*
X0031259Y0162299D01*
X0031259Y0162644D01*
X0031207Y0162770D01*
X0031192Y0162906D01*
X0031025Y0163208D01*
X0030894Y0163526D01*
X0030797Y0163623D01*
X0030731Y0163742D01*
X0030462Y0163958D01*
X0030219Y0164201D01*
X0030092Y0164253D01*
X0029986Y0164339D01*
X0029655Y0164435D01*
X0029336Y0164566D01*
X0029200Y0164566D01*
X0029069Y0164604D01*
X0028726Y0164566D01*
X0024799Y0164566D01*
X0024705Y0164793D01*
X0024849Y0164937D01*
X0025215Y0165819D01*
X0025215Y0166604D01*
X0026533Y0166604D01*
X0028236Y0166997D01*
X0028889Y0167315D01*
X0029875Y0167654D01*
X0031259Y0169591D01*
X0031259Y0171973D01*
X0029875Y0173911D01*
X0028889Y0174249D01*
X0028236Y0174567D01*
X0026533Y0174960D01*
X0024785Y0174960D01*
X0023082Y0174567D01*
X0022429Y0174249D01*
X0021443Y0173911D01*
X0020059Y0171973D01*
X0020059Y0169591D01*
X0020870Y0168457D01*
X0020424Y0168012D01*
X0020059Y0167129D01*
X0020059Y0165819D01*
X0020348Y0165120D01*
X0020059Y0164422D01*
X0020059Y0159911D01*
X0020424Y0159029D01*
X0021100Y0158354D01*
X0021454Y0158207D01*
X0021247Y0158138D01*
X0021115Y0158024D01*
X0020959Y0157946D01*
X0020758Y0157714D01*
X0020526Y0157513D01*
X0020448Y0157356D01*
X0020333Y0157224D01*
X0020236Y0156933D01*
X0020099Y0156659D01*
X0020087Y0156484D01*
X0020048Y0156369D01*
X0020048Y0189145D01*
X0019637Y0190137D01*
X0019174Y0190601D01*
X0019447Y0190874D01*
X0019544Y0190888D01*
X0019790Y0191217D01*
X0020081Y0191508D01*
X0020081Y0191605D01*
X0020444Y0192090D01*
X0020538Y0192118D01*
X0020735Y0192479D01*
X0020981Y0192808D01*
X0020967Y0192905D01*
X0021257Y0193436D01*
X0021346Y0193477D01*
X0021490Y0193862D01*
X0021687Y0194223D01*
X0021659Y0194317D01*
X0021871Y0194884D01*
X0021953Y0194937D01*
X0022041Y0195338D01*
X0022184Y0195724D01*
X0022144Y0195813D01*
X0022273Y0196404D01*
X0022346Y0196468D01*
X0022376Y0196878D01*
X0022463Y0197280D01*
X0022410Y0197362D01*
X0022453Y0197966D01*
X0022517Y0198040D01*
X0022488Y0198450D01*
X0022517Y0198861D01*
X0022453Y0198934D01*
X0022410Y0199538D01*
X0022463Y0199621D01*
X0022376Y0200022D01*
X0022346Y0200433D01*
X0022273Y0200496D01*
X0022144Y0201088D01*
X0022184Y0201177D01*
X0022041Y0201562D01*
X0021953Y0201964D01*
X0021871Y0202017D01*
X0021659Y0202584D01*
X0021687Y0202678D01*
X0021490Y0203039D01*
X0021346Y0203424D01*
X0021257Y0203465D01*
X0020967Y0203996D01*
X0020981Y0204093D01*
X0020735Y0204422D01*
X0020538Y0204783D01*
X0020444Y0204811D01*
X0020081Y0205295D01*
X0020081Y0205393D01*
X0019790Y0205684D01*
X0019544Y0206013D01*
X0019447Y0206027D01*
X0019174Y0206300D01*
X0019637Y0206763D01*
X0020048Y0207756D01*
X0020048Y0218672D01*
X0019637Y0219665D01*
X0018877Y0220424D01*
X0008237Y0231065D01*
X0008237Y0259295D01*
X0008427Y0258837D01*
X0008899Y0258019D01*
X0009475Y0257269D01*
X0010143Y0256600D01*
X0010893Y0256025D01*
X0011711Y0255553D01*
X0012584Y0255191D01*
X0013497Y0254946D01*
X0014307Y0254840D01*
X0014307Y0261433D01*
X0015507Y0261433D01*
X0015507Y0254840D01*
X0016317Y0254946D01*
X0016617Y0255027D01*
X0016617Y0252131D01*
X0016333Y0252223D01*
X0015507Y0252354D01*
X0015507Y0246885D01*
X0014307Y0246885D01*
X0014307Y0245685D01*
X0008838Y0245685D01*
X0008969Y0244859D01*
X0009265Y0243948D01*
X0009700Y0243094D01*
X0010263Y0242319D01*
X0010941Y0241641D01*
X0011716Y0241078D01*
X0012570Y0240643D01*
X0013481Y0240347D01*
X0014307Y0240216D01*
X0014307Y0245685D01*
X0015507Y0245685D01*
X0015507Y0240216D01*
X0016333Y0240347D01*
X0017244Y0240643D01*
X0018098Y0241078D01*
X0018300Y0241225D01*
X0018779Y0241026D01*
X0055287Y0241026D01*
X0055766Y0241225D01*
X0055968Y0241078D01*
X0056822Y0240643D01*
X0057733Y0240347D01*
X0058559Y0240216D01*
X0058559Y0245685D01*
X0059759Y0245685D01*
X0059759Y0240216D01*
X0060585Y0240347D01*
X0061496Y0240643D01*
X0062350Y0241078D01*
X0063125Y0241641D01*
X0063803Y0242319D01*
X0064366Y0243094D01*
X0064801Y0243948D01*
X0065097Y0244859D01*
X0065228Y0245685D01*
X0059759Y0245685D01*
X0059759Y0246885D01*
X0058559Y0246885D01*
X0058559Y0252354D01*
X0057733Y0252223D01*
X0057450Y0252131D01*
X0057450Y0255027D01*
X0057749Y0254946D01*
X0058559Y0254840D01*
X0058559Y0261433D01*
X0059759Y0261433D01*
X0059759Y0254840D01*
X0060569Y0254946D01*
X0061482Y0255191D01*
X0062355Y0255553D01*
X0063173Y0256025D01*
X0063923Y0256600D01*
X0064592Y0257269D01*
X0065167Y0258019D01*
X0065640Y0258837D01*
X0065829Y0259295D01*
X0065829Y0231065D01*
X0055189Y0220424D01*
X0054429Y0219665D01*
X0054018Y0218672D01*
X0054018Y0207756D01*
X0054429Y0206763D01*
X0054892Y0206300D01*
X0054619Y0206027D01*
X0054522Y0206013D01*
X0054276Y0205684D01*
X0053985Y0205393D01*
X0053985Y0205295D01*
X0053622Y0204811D01*
X0053529Y0204783D01*
X0053331Y0204422D01*
X0053085Y0204093D01*
X0053099Y0203996D01*
X0052809Y0203465D01*
X0052720Y0203424D01*
X0052576Y0203039D01*
X0052379Y0202678D01*
X0052407Y0202584D01*
X0052195Y0202017D01*
X0052113Y0201964D01*
X0052025Y0201562D01*
X0051882Y0201177D01*
X0051922Y0201088D01*
X0051794Y0200496D01*
X0051720Y0200433D01*
X0051690Y0200022D01*
X0051603Y0199621D01*
X0051656Y0199538D01*
X0051613Y0198934D01*
X0051549Y0198861D01*
X0051578Y0198450D01*
X0051549Y0198040D01*
X0051613Y0197966D01*
X0051656Y0197362D01*
X0051603Y0197280D01*
X0051690Y0196878D01*
X0051720Y0196468D01*
X0051794Y0196404D01*
X0051922Y0195813D01*
X0051882Y0195724D01*
X0052025Y0195338D01*
X0052113Y0194937D01*
X0052195Y0194884D01*
X0052407Y0194317D01*
X0052379Y0194223D01*
X0052576Y0193862D01*
X0052720Y0193477D01*
X0052809Y0193436D01*
X0053099Y0192905D01*
X0053085Y0192808D01*
X0053331Y0192479D01*
X0053529Y0192118D01*
X0053622Y0192090D01*
X0053985Y0191605D01*
X0053985Y0191508D01*
X0054276Y0191217D01*
X0054522Y0190888D01*
X0054619Y0190874D01*
X0054892Y0190601D01*
X0054429Y0190137D01*
X0054018Y0189145D01*
X0054018Y0152542D01*
X0053682Y0152681D01*
X0052990Y0152819D01*
X0052637Y0152819D01*
X0052637Y0149238D01*
X0052637Y0149238D01*
X0052637Y0145657D01*
X0052637Y0149238D01*
X0052637Y0149238D01*
X0052637Y0149010D02*
X0052637Y0149010D01*
X0052637Y0147812D02*
X0052637Y0147812D01*
X0052637Y0146613D02*
X0052637Y0146613D01*
X0054018Y0145415D02*
X0046871Y0145415D01*
X0048069Y0146613D02*
X0050197Y0146613D01*
X0049352Y0147812D02*
X0049207Y0147812D01*
X0046876Y0149238D02*
X0046876Y0163017D01*
X0049168Y0165789D02*
X0054018Y0165789D01*
X0054018Y0164591D02*
X0050100Y0164591D01*
X0050457Y0163392D02*
X0054018Y0163392D01*
X0054018Y0162194D02*
X0050411Y0162194D01*
X0049914Y0160995D02*
X0054018Y0160995D01*
X0054018Y0159797D02*
X0049576Y0159797D01*
X0049576Y0158598D02*
X0054018Y0158598D01*
X0054018Y0157400D02*
X0049576Y0157400D01*
X0049576Y0156201D02*
X0054018Y0156201D01*
X0054018Y0155003D02*
X0049576Y0155003D01*
X0049576Y0153804D02*
X0054018Y0153804D01*
X0054018Y0152606D02*
X0053864Y0152606D01*
X0052637Y0152606D02*
X0052637Y0152606D01*
X0052637Y0151407D02*
X0052637Y0151407D01*
X0052637Y0150209D02*
X0052637Y0150209D01*
X0051410Y0152606D02*
X0049576Y0152606D01*
X0049576Y0151407D02*
X0049780Y0151407D01*
X0046876Y0149238D02*
X0033096Y0135458D01*
X0031529Y0132231D02*
X0031162Y0132231D01*
X0031255Y0131033D02*
X0054018Y0131033D01*
X0054018Y0132231D02*
X0034663Y0132231D01*
X0036132Y0133430D02*
X0054018Y0133430D01*
X0054018Y0134628D02*
X0036628Y0134628D01*
X0037283Y0135827D02*
X0054018Y0135827D01*
X0054018Y0137025D02*
X0038481Y0137025D01*
X0039680Y0138224D02*
X0054018Y0138224D01*
X0054018Y0139422D02*
X0040878Y0139422D01*
X0042077Y0140621D02*
X0054018Y0140621D01*
X0054018Y0141819D02*
X0043275Y0141819D01*
X0044474Y0143018D02*
X0054018Y0143018D01*
X0054018Y0144216D02*
X0045672Y0144216D01*
X0040970Y0151206D02*
X0040970Y0163017D01*
X0040970Y0202584D01*
X0048647Y0210261D01*
X0047663Y0213730D02*
X0020048Y0213730D01*
X0020048Y0214928D02*
X0054018Y0214928D01*
X0054018Y0213730D02*
X0049632Y0213730D01*
X0051442Y0212531D02*
X0054018Y0212531D01*
X0054018Y0211333D02*
X0052080Y0211333D01*
X0052228Y0210134D02*
X0054018Y0210134D01*
X0054018Y0208936D02*
X0051974Y0208936D01*
X0051187Y0207737D02*
X0054026Y0207737D01*
X0054654Y0206539D02*
X0048743Y0206539D01*
X0047544Y0205340D02*
X0053985Y0205340D01*
X0053122Y0204142D02*
X0046346Y0204142D01*
X0045147Y0202943D02*
X0052524Y0202943D01*
X0052065Y0201745D02*
X0043949Y0201745D01*
X0043670Y0200546D02*
X0051804Y0200546D01*
X0051642Y0199348D02*
X0043670Y0199348D01*
X0043670Y0198149D02*
X0051556Y0198149D01*
X0051675Y0196951D02*
X0043670Y0196951D01*
X0043670Y0195752D02*
X0051895Y0195752D01*
X0052318Y0194554D02*
X0043670Y0194554D01*
X0043670Y0193355D02*
X0052853Y0193355D01*
X0053507Y0192157D02*
X0043670Y0192157D01*
X0043670Y0190958D02*
X0054470Y0190958D01*
X0054273Y0189760D02*
X0043670Y0189760D01*
X0043670Y0188561D02*
X0054018Y0188561D01*
X0054018Y0187363D02*
X0043670Y0187363D01*
X0043670Y0186164D02*
X0054018Y0186164D01*
X0054018Y0184966D02*
X0043670Y0184966D01*
X0043670Y0183767D02*
X0054018Y0183767D01*
X0054018Y0182569D02*
X0043670Y0182569D01*
X0043670Y0181370D02*
X0054018Y0181370D01*
X0054018Y0180171D02*
X0043670Y0180171D01*
X0043670Y0178973D02*
X0054018Y0178973D01*
X0054018Y0177774D02*
X0043670Y0177774D01*
X0043670Y0176576D02*
X0054018Y0176576D01*
X0054018Y0175377D02*
X0043670Y0175377D01*
X0043670Y0174179D02*
X0054018Y0174179D01*
X0054018Y0172980D02*
X0043670Y0172980D01*
X0043670Y0171782D02*
X0054018Y0171782D01*
X0054018Y0170583D02*
X0043670Y0170583D01*
X0043670Y0169385D02*
X0054018Y0169385D01*
X0054018Y0168186D02*
X0043670Y0168186D01*
X0043670Y0166988D02*
X0054018Y0166988D01*
X0044583Y0165789D02*
X0043670Y0165789D01*
X0038270Y0165789D02*
X0025202Y0165789D01*
X0024789Y0164591D02*
X0028946Y0164591D01*
X0029116Y0164591D02*
X0037746Y0164591D01*
X0037389Y0163392D02*
X0030949Y0163392D01*
X0031271Y0162194D02*
X0037435Y0162194D01*
X0037931Y0160995D02*
X0030996Y0160995D01*
X0030604Y0159797D02*
X0038270Y0159797D01*
X0038270Y0158598D02*
X0031238Y0158598D01*
X0031169Y0157400D02*
X0038270Y0157400D01*
X0038270Y0156201D02*
X0030280Y0156201D01*
X0030980Y0155003D02*
X0038270Y0155003D01*
X0038270Y0153804D02*
X0031270Y0153804D01*
X0030932Y0152606D02*
X0038270Y0152606D01*
X0037353Y0151407D02*
X0020048Y0151407D01*
X0020048Y0150209D02*
X0020920Y0150209D01*
X0020133Y0149010D02*
X0020048Y0149010D01*
X0020048Y0147812D02*
X0020059Y0147812D01*
X0020048Y0146613D02*
X0020059Y0146613D01*
X0020048Y0145415D02*
X0020059Y0145415D01*
X0020048Y0144216D02*
X0020103Y0144216D01*
X0020102Y0143018D02*
X0020048Y0143018D01*
X0020048Y0141819D02*
X0020154Y0141819D01*
X0020048Y0140621D02*
X0020753Y0140621D01*
X0020064Y0139422D02*
X0020048Y0139422D01*
X0020048Y0138224D02*
X0020155Y0138224D01*
X0020048Y0137025D02*
X0020375Y0137025D01*
X0020059Y0135827D02*
X0020048Y0135827D01*
X0020048Y0134628D02*
X0020341Y0134628D01*
X0020048Y0133430D02*
X0020975Y0133430D01*
X0020156Y0132231D02*
X0020048Y0132231D01*
X0020048Y0131033D02*
X0020063Y0131033D01*
X0020048Y0129834D02*
X0020750Y0129834D01*
X0020048Y0128635D02*
X0054176Y0128635D01*
X0054018Y0129834D02*
X0030616Y0129834D01*
X0036037Y0119047D02*
X0020048Y0119047D01*
X0020048Y0117849D02*
X0035426Y0117849D01*
X0032228Y0116650D02*
X0020048Y0116650D01*
X0020048Y0115452D02*
X0031870Y0115452D01*
X0032109Y0114253D02*
X0020048Y0114253D01*
X0020048Y0113055D02*
X0031870Y0113055D01*
X0031870Y0111856D02*
X0020048Y0111856D01*
X0020048Y0110658D02*
X0031870Y0110658D01*
X0032110Y0109459D02*
X0020048Y0109459D01*
X0020048Y0108261D02*
X0030537Y0108261D01*
X0030666Y0108484D02*
X0030666Y0108484D01*
X0030666Y0108484D01*
X0029845Y0107062D02*
X0020048Y0107062D01*
X0020048Y0105864D02*
X0029737Y0105864D01*
X0029737Y0105469D02*
X0029737Y0105469D01*
X0029737Y0104665D02*
X0020048Y0104665D01*
X0020048Y0103467D02*
X0029977Y0103467D01*
X0031312Y0102268D02*
X0020048Y0102268D01*
X0020048Y0101070D02*
X0031870Y0101070D01*
X0031870Y0099871D02*
X0020048Y0099871D01*
X0020048Y0098673D02*
X0032000Y0098673D01*
X0032692Y0097474D02*
X0020048Y0097474D01*
X0020048Y0096276D02*
X0032562Y0096276D01*
X0032847Y0097207D02*
X0032847Y0097207D01*
X0032847Y0097207D01*
X0031874Y0095077D02*
X0020048Y0095077D01*
X0020048Y0093879D02*
X0031967Y0093879D01*
X0032786Y0092680D02*
X0020048Y0092680D01*
X0020048Y0091482D02*
X0032104Y0091482D01*
X0031870Y0090283D02*
X0021066Y0090283D01*
X0022264Y0089085D02*
X0032234Y0089085D01*
X0032894Y0084622D02*
X0032894Y0084622D01*
X0032894Y0084622D01*
X0032703Y0084291D02*
X0027058Y0084291D01*
X0025860Y0085489D02*
X0034395Y0085489D01*
X0032011Y0083092D02*
X0028257Y0083092D01*
X0029456Y0081894D02*
X0031870Y0081894D01*
X0031931Y0080695D02*
X0029891Y0080695D01*
X0029891Y0079497D02*
X0032623Y0079497D01*
X0032894Y0079026D02*
X0032894Y0079026D01*
X0032894Y0079026D01*
X0032841Y0078298D02*
X0029891Y0078298D01*
X0029891Y0077100D02*
X0031990Y0077100D01*
X0031870Y0075901D02*
X0029891Y0075901D01*
X0029891Y0074702D02*
X0032506Y0074702D01*
X0032898Y0072305D02*
X0029891Y0072305D01*
X0029891Y0071107D02*
X0032014Y0071107D01*
X0031870Y0069908D02*
X0029869Y0069908D01*
X0029221Y0068710D02*
X0032449Y0068710D01*
X0032988Y0065114D02*
X0027191Y0065114D01*
X0027191Y0063916D02*
X0032032Y0063916D01*
X0031870Y0062717D02*
X0027191Y0062717D01*
X0027191Y0061519D02*
X0032405Y0061519D01*
X0033264Y0060320D02*
X0027191Y0060320D01*
X0027191Y0059122D02*
X0033735Y0059122D01*
X0032854Y0056725D02*
X0027191Y0056725D01*
X0027191Y0057923D02*
X0046876Y0057923D01*
X0046876Y0066313D02*
X0036656Y0066313D01*
X0034728Y0066313D02*
X0027191Y0066313D01*
X0027191Y0067511D02*
X0046876Y0067511D01*
X0042403Y0093879D02*
X0069941Y0093879D01*
X0069772Y0093965D02*
X0070417Y0093636D01*
X0071105Y0093412D01*
X0071821Y0093299D01*
X0074783Y0093299D01*
X0074783Y0097499D01*
X0075583Y0097499D01*
X0075583Y0098299D01*
X0082777Y0098299D01*
X0082669Y0098976D01*
X0082446Y0099665D01*
X0082117Y0100310D01*
X0081691Y0100896D01*
X0081179Y0101408D01*
X0080594Y0101833D01*
X0079948Y0102162D01*
X0079260Y0102386D01*
X0078545Y0102499D01*
X0075583Y0102499D01*
X0075583Y0098299D01*
X0074783Y0098299D01*
X0074783Y0102499D01*
X0071821Y0102499D01*
X0071105Y0102386D01*
X0070417Y0102162D01*
X0069772Y0101833D01*
X0069186Y0101408D01*
X0068674Y0100896D01*
X0068248Y0100310D01*
X0067920Y0099665D01*
X0067696Y0098976D01*
X0067589Y0098299D01*
X0074783Y0098299D01*
X0074783Y0097499D01*
X0067589Y0097499D01*
X0067696Y0096822D01*
X0067920Y0096133D01*
X0068248Y0095488D01*
X0068674Y0094903D01*
X0069186Y0094391D01*
X0069772Y0093965D01*
X0068547Y0095077D02*
X0040937Y0095077D01*
X0040937Y0096276D02*
X0067873Y0096276D01*
X0067593Y0097474D02*
X0042553Y0097474D01*
X0043070Y0098673D02*
X0067648Y0098673D01*
X0068025Y0099871D02*
X0043048Y0099871D01*
X0043070Y0101070D02*
X0068848Y0101070D01*
X0070743Y0102268D02*
X0042939Y0102268D01*
X0042072Y0103467D02*
X0091420Y0103467D01*
X0091420Y0104665D02*
X0081171Y0104665D01*
X0080675Y0104169D02*
X0081913Y0105407D01*
X0082583Y0107024D01*
X0082583Y0108774D01*
X0081913Y0110392D01*
X0080675Y0111629D01*
X0079058Y0112299D01*
X0071307Y0112299D01*
X0069690Y0111629D01*
X0068453Y0110392D01*
X0067783Y0108774D01*
X0067783Y0107024D01*
X0068453Y0105407D01*
X0069690Y0104169D01*
X0071307Y0103499D01*
X0079058Y0103499D01*
X0080675Y0104169D01*
X0079622Y0102268D02*
X0091420Y0102268D01*
X0091420Y0101070D02*
X0081518Y0101070D01*
X0082341Y0099871D02*
X0091420Y0099871D01*
X0091420Y0098673D02*
X0082718Y0098673D01*
X0082777Y0097499D02*
X0075583Y0097499D01*
X0075583Y0093299D01*
X0078545Y0093299D01*
X0079260Y0093412D01*
X0079948Y0093636D01*
X0080594Y0093965D01*
X0081179Y0094391D01*
X0081691Y0094903D01*
X0082117Y0095488D01*
X0082446Y0096133D01*
X0082669Y0096822D01*
X0082777Y0097499D01*
X0082773Y0097474D02*
X0091420Y0097474D01*
X0091420Y0096276D02*
X0082492Y0096276D01*
X0081818Y0095077D02*
X0091420Y0095077D01*
X0091420Y0093879D02*
X0080424Y0093879D01*
X0075583Y0093879D02*
X0074783Y0093879D01*
X0074783Y0095077D02*
X0075583Y0095077D01*
X0075583Y0096276D02*
X0074783Y0096276D01*
X0074783Y0097474D02*
X0075583Y0097474D01*
X0075183Y0097899D02*
X0075025Y0098057D01*
X0058687Y0098057D01*
X0068263Y0105864D02*
X0040937Y0105864D01*
X0040937Y0107062D02*
X0067783Y0107062D01*
X0067783Y0108261D02*
X0040618Y0108261D01*
X0040547Y0109459D02*
X0068066Y0109459D01*
X0068719Y0110658D02*
X0040937Y0110658D01*
X0040937Y0111856D02*
X0070238Y0111856D01*
X0071307Y0113499D02*
X0069690Y0114169D01*
X0068453Y0115407D01*
X0067783Y0117024D01*
X0067783Y0118774D01*
X0068453Y0120392D01*
X0069690Y0121629D01*
X0071307Y0122299D01*
X0079058Y0122299D01*
X0080675Y0121629D01*
X0081913Y0120392D01*
X0082583Y0118774D01*
X0082583Y0117024D01*
X0081913Y0115407D01*
X0080675Y0114169D01*
X0079058Y0113499D01*
X0071307Y0113499D01*
X0069606Y0114253D02*
X0040697Y0114253D01*
X0040937Y0115452D02*
X0068434Y0115452D01*
X0067937Y0116650D02*
X0040937Y0116650D01*
X0040937Y0117849D02*
X0067783Y0117849D01*
X0067896Y0119047D02*
X0040325Y0119047D01*
X0040433Y0113055D02*
X0091420Y0113055D01*
X0091420Y0114253D02*
X0080759Y0114253D01*
X0081931Y0115452D02*
X0091420Y0115452D01*
X0091420Y0116650D02*
X0082428Y0116650D01*
X0082583Y0117849D02*
X0091420Y0117849D01*
X0091420Y0119047D02*
X0082470Y0119047D01*
X0081973Y0120246D02*
X0091420Y0120246D01*
X0091420Y0121444D02*
X0080860Y0121444D01*
X0080127Y0111856D02*
X0091420Y0111856D01*
X0091420Y0110658D02*
X0081647Y0110658D01*
X0082299Y0109459D02*
X0091420Y0109459D01*
X0091420Y0108261D02*
X0082583Y0108261D01*
X0082583Y0107062D02*
X0091420Y0107062D01*
X0091420Y0105864D02*
X0082102Y0105864D01*
X0075583Y0102268D02*
X0074783Y0102268D01*
X0074783Y0101070D02*
X0075583Y0101070D01*
X0075583Y0099871D02*
X0074783Y0099871D01*
X0074783Y0098673D02*
X0075583Y0098673D01*
X0069194Y0104665D02*
X0040937Y0104665D01*
X0055016Y0127437D02*
X0020048Y0127437D01*
X0020048Y0126238D02*
X0056214Y0126238D01*
X0057413Y0125040D02*
X0020048Y0125040D01*
X0020048Y0123841D02*
X0058611Y0123841D01*
X0068392Y0120246D02*
X0020048Y0120246D01*
X0020048Y0121444D02*
X0069505Y0121444D01*
X0091306Y0122643D02*
X0020048Y0122643D01*
X0024785Y0149010D02*
X0029032Y0149010D01*
X0029083Y0149010D02*
X0034956Y0149010D01*
X0036154Y0150209D02*
X0023998Y0150209D01*
X0025090Y0152606D02*
X0020048Y0152606D01*
X0020048Y0153804D02*
X0021494Y0153804D01*
X0020266Y0155003D02*
X0020048Y0155003D01*
X0020048Y0157400D02*
X0020469Y0157400D01*
X0020855Y0158598D02*
X0020048Y0158598D01*
X0020048Y0159797D02*
X0020106Y0159797D01*
X0020059Y0160995D02*
X0020048Y0160995D01*
X0020048Y0162194D02*
X0020059Y0162194D01*
X0020048Y0163392D02*
X0020059Y0163392D01*
X0020048Y0164591D02*
X0020129Y0164591D01*
X0020071Y0165789D02*
X0020048Y0165789D01*
X0020048Y0166988D02*
X0020059Y0166988D01*
X0020048Y0168186D02*
X0020599Y0168186D01*
X0020207Y0169385D02*
X0020048Y0169385D01*
X0020048Y0170583D02*
X0020059Y0170583D01*
X0020048Y0171782D02*
X0020059Y0171782D01*
X0020048Y0172980D02*
X0020779Y0172980D01*
X0021443Y0173911D02*
X0021443Y0173911D01*
X0022226Y0174179D02*
X0020048Y0174179D01*
X0020048Y0175377D02*
X0038270Y0175377D01*
X0038270Y0174179D02*
X0029092Y0174179D01*
X0029875Y0173911D02*
X0029875Y0173911D01*
X0029875Y0173911D01*
X0030539Y0172980D02*
X0038270Y0172980D01*
X0038270Y0171782D02*
X0031259Y0171782D01*
X0031259Y0170583D02*
X0038270Y0170583D01*
X0038270Y0169385D02*
X0031112Y0169385D01*
X0030255Y0168186D02*
X0038270Y0168186D01*
X0038270Y0166988D02*
X0028195Y0166988D01*
X0028236Y0166997D02*
X0028236Y0166997D01*
X0029875Y0167654D02*
X0029875Y0167654D01*
X0028236Y0174567D02*
X0028236Y0174567D01*
X0020559Y0192157D02*
X0038270Y0192157D01*
X0038270Y0193355D02*
X0021213Y0193355D01*
X0021748Y0194554D02*
X0038270Y0194554D01*
X0038270Y0195752D02*
X0022171Y0195752D01*
X0022391Y0196951D02*
X0038270Y0196951D01*
X0038270Y0198149D02*
X0022510Y0198149D01*
X0022424Y0199348D02*
X0038270Y0199348D01*
X0038270Y0200546D02*
X0022262Y0200546D01*
X0022001Y0201745D02*
X0038270Y0201745D01*
X0038270Y0202943D02*
X0021542Y0202943D01*
X0020945Y0204142D02*
X0038709Y0204142D01*
X0039908Y0205340D02*
X0020081Y0205340D01*
X0019412Y0206539D02*
X0041106Y0206539D01*
X0042305Y0207737D02*
X0020040Y0207737D01*
X0020048Y0208936D02*
X0043503Y0208936D01*
X0044702Y0210134D02*
X0020048Y0210134D01*
X0020048Y0211333D02*
X0045215Y0211333D01*
X0045853Y0212531D02*
X0020048Y0212531D01*
X0020048Y0216127D02*
X0054018Y0216127D01*
X0054018Y0217325D02*
X0020048Y0217325D01*
X0020048Y0218524D02*
X0054018Y0218524D01*
X0054487Y0219722D02*
X0019579Y0219722D01*
X0018381Y0220921D02*
X0055685Y0220921D01*
X0055189Y0220424D02*
X0055189Y0220424D01*
X0056884Y0222119D02*
X0017182Y0222119D01*
X0015984Y0223318D02*
X0058082Y0223318D01*
X0059281Y0224516D02*
X0014785Y0224516D01*
X0013587Y0225715D02*
X0060479Y0225715D01*
X0061678Y0226913D02*
X0042680Y0226913D01*
X0042470Y0226773D02*
X0043056Y0227165D01*
X0043555Y0227664D01*
X0043947Y0228250D01*
X0044217Y0228902D01*
X0044354Y0229594D01*
X0044354Y0229946D01*
X0040773Y0229946D01*
X0040773Y0229946D01*
X0040773Y0226365D01*
X0040421Y0226365D01*
X0039729Y0226503D01*
X0039077Y0226773D01*
X0038490Y0227165D01*
X0037992Y0227664D01*
X0037600Y0228250D01*
X0037330Y0228902D01*
X0037192Y0229594D01*
X0037192Y0229946D01*
X0040773Y0229946D01*
X0040773Y0229947D01*
X0037192Y0229947D01*
X0037192Y0230299D01*
X0037330Y0230991D01*
X0037600Y0231643D01*
X0037992Y0232229D01*
X0038490Y0232728D01*
X0039077Y0233120D01*
X0039154Y0233152D01*
X0027586Y0233152D01*
X0027251Y0232816D01*
X0025934Y0232271D01*
X0024510Y0232271D01*
X0023194Y0232816D01*
X0022186Y0233823D01*
X0021641Y0235140D01*
X0021641Y0236564D01*
X0022186Y0237880D01*
X0023194Y0238888D01*
X0024510Y0239433D01*
X0025934Y0239433D01*
X0027251Y0238888D01*
X0027586Y0238552D01*
X0046480Y0238552D01*
X0046816Y0238888D01*
X0048132Y0239433D01*
X0049556Y0239433D01*
X0050873Y0238888D01*
X0051880Y0237880D01*
X0052425Y0236564D01*
X0052425Y0235140D01*
X0051880Y0233823D01*
X0050873Y0232816D01*
X0049556Y0232271D01*
X0048132Y0232271D01*
X0046816Y0232816D01*
X0046480Y0233152D01*
X0042392Y0233152D01*
X0042470Y0233120D01*
X0043056Y0232728D01*
X0043555Y0232229D01*
X0043947Y0231643D01*
X0044217Y0230991D01*
X0044354Y0230299D01*
X0044354Y0229947D01*
X0040773Y0229947D01*
X0040773Y0229946D02*
X0054750Y0229946D01*
X0059159Y0234356D01*
X0059159Y0246285D01*
X0059759Y0246090D02*
X0065829Y0246090D01*
X0065228Y0246885D02*
X0065097Y0247711D01*
X0064801Y0248622D01*
X0064366Y0249476D01*
X0063803Y0250251D01*
X0063125Y0250929D01*
X0062350Y0251492D01*
X0061496Y0251927D01*
X0060585Y0252223D01*
X0059759Y0252354D01*
X0059759Y0246885D01*
X0065228Y0246885D01*
X0065164Y0247288D02*
X0065829Y0247288D01*
X0065829Y0248487D02*
X0064845Y0248487D01*
X0064214Y0249685D02*
X0065829Y0249685D01*
X0065829Y0250884D02*
X0063170Y0250884D01*
X0061019Y0252082D02*
X0065829Y0252082D01*
X0065829Y0253281D02*
X0057450Y0253281D01*
X0057450Y0254479D02*
X0065829Y0254479D01*
X0065829Y0255678D02*
X0062572Y0255678D01*
X0064199Y0256876D02*
X0065829Y0256876D01*
X0065829Y0258075D02*
X0065199Y0258075D01*
X0065820Y0259273D02*
X0065829Y0259273D01*
X0059759Y0259273D02*
X0058559Y0259273D01*
X0058559Y0258075D02*
X0059759Y0258075D01*
X0059759Y0256876D02*
X0058559Y0256876D01*
X0058559Y0255678D02*
X0059759Y0255678D01*
X0059759Y0252082D02*
X0058559Y0252082D01*
X0058559Y0250884D02*
X0059759Y0250884D01*
X0059759Y0249685D02*
X0058559Y0249685D01*
X0058559Y0248487D02*
X0059759Y0248487D01*
X0059759Y0247288D02*
X0058559Y0247288D01*
X0058559Y0244891D02*
X0059759Y0244891D01*
X0059759Y0243693D02*
X0058559Y0243693D01*
X0058559Y0242494D02*
X0059759Y0242494D01*
X0059759Y0241296D02*
X0058559Y0241296D01*
X0062649Y0241296D02*
X0065829Y0241296D01*
X0065829Y0242494D02*
X0063930Y0242494D01*
X0064671Y0243693D02*
X0065829Y0243693D01*
X0065829Y0244891D02*
X0065102Y0244891D01*
X0065829Y0240097D02*
X0008237Y0240097D01*
X0008237Y0238899D02*
X0023219Y0238899D01*
X0022111Y0237700D02*
X0008237Y0237700D01*
X0008237Y0236502D02*
X0021641Y0236502D01*
X0021641Y0235303D02*
X0018723Y0235303D01*
X0018589Y0235358D02*
X0017898Y0235496D01*
X0017545Y0235496D01*
X0017545Y0231915D01*
X0021126Y0231915D01*
X0021126Y0232268D01*
X0020988Y0232960D01*
X0020718Y0233611D01*
X0020327Y0234198D01*
X0019828Y0234697D01*
X0019241Y0235088D01*
X0018589Y0235358D01*
X0017545Y0235303D02*
X0017545Y0235303D01*
X0017545Y0235496D02*
X0017192Y0235496D01*
X0016500Y0235358D01*
X0015849Y0235088D01*
X0015262Y0234697D01*
X0014763Y0234198D01*
X0014371Y0233611D01*
X0014101Y0232960D01*
X0013964Y0232268D01*
X0013964Y0231915D01*
X0017545Y0231915D01*
X0017545Y0231915D01*
X0021126Y0231915D01*
X0021126Y0231562D01*
X0020988Y0230870D01*
X0020718Y0230219D01*
X0020327Y0229632D01*
X0019828Y0229133D01*
X0019241Y0228741D01*
X0018589Y0228471D01*
X0017898Y0228334D01*
X0017545Y0228334D01*
X0017545Y0231915D01*
X0017545Y0231915D01*
X0014907Y0234553D01*
X0014907Y0246285D01*
X0014307Y0246090D02*
X0008237Y0246090D01*
X0008838Y0246885D02*
X0014307Y0246885D01*
X0014307Y0252354D01*
X0013481Y0252223D01*
X0012570Y0251927D01*
X0011716Y0251492D01*
X0010941Y0250929D01*
X0010263Y0250251D01*
X0009700Y0249476D01*
X0009265Y0248622D01*
X0008969Y0247711D01*
X0008838Y0246885D01*
X0008902Y0247288D02*
X0008237Y0247288D01*
X0008237Y0248487D02*
X0009221Y0248487D01*
X0009852Y0249685D02*
X0008237Y0249685D01*
X0008237Y0250884D02*
X0010896Y0250884D01*
X0013047Y0252082D02*
X0008237Y0252082D01*
X0008237Y0253281D02*
X0016617Y0253281D01*
X0016617Y0254479D02*
X0008237Y0254479D01*
X0008237Y0255678D02*
X0011494Y0255678D01*
X0009867Y0256876D02*
X0008237Y0256876D01*
X0008237Y0258075D02*
X0008867Y0258075D01*
X0008246Y0259273D02*
X0008237Y0259273D01*
X0014307Y0259273D02*
X0015507Y0259273D01*
X0015507Y0258075D02*
X0014307Y0258075D01*
X0014307Y0256876D02*
X0015507Y0256876D01*
X0015507Y0255678D02*
X0014307Y0255678D01*
X0014307Y0252082D02*
X0015507Y0252082D01*
X0015507Y0250884D02*
X0014307Y0250884D01*
X0014307Y0249685D02*
X0015507Y0249685D01*
X0015507Y0248487D02*
X0014307Y0248487D01*
X0014307Y0247288D02*
X0015507Y0247288D01*
X0015507Y0244891D02*
X0014307Y0244891D01*
X0014307Y0243693D02*
X0015507Y0243693D01*
X0015507Y0242494D02*
X0014307Y0242494D01*
X0014307Y0241296D02*
X0015507Y0241296D01*
X0016366Y0235303D02*
X0008237Y0235303D01*
X0008237Y0234104D02*
X0014701Y0234104D01*
X0014091Y0232906D02*
X0008237Y0232906D01*
X0008237Y0231707D02*
X0013964Y0231707D01*
X0013964Y0231562D02*
X0014101Y0230870D01*
X0014371Y0230219D01*
X0014763Y0229632D01*
X0015262Y0229133D01*
X0015849Y0228741D01*
X0016500Y0228471D01*
X0017192Y0228334D01*
X0017545Y0228334D01*
X0017545Y0231915D01*
X0029159Y0231915D01*
X0031128Y0229946D01*
X0040773Y0229946D01*
X0040773Y0226365D01*
X0041126Y0226365D01*
X0041818Y0226503D01*
X0042470Y0226773D01*
X0043854Y0228112D02*
X0062876Y0228112D01*
X0064075Y0229310D02*
X0044298Y0229310D01*
X0044313Y0230509D02*
X0065273Y0230509D01*
X0065829Y0231707D02*
X0043904Y0231707D01*
X0042790Y0232906D02*
X0046726Y0232906D01*
X0048844Y0235852D02*
X0025222Y0235852D01*
X0023104Y0232906D02*
X0020999Y0232906D01*
X0021126Y0231707D02*
X0037643Y0231707D01*
X0037234Y0230509D02*
X0020839Y0230509D01*
X0020005Y0229310D02*
X0037248Y0229310D01*
X0037692Y0228112D02*
X0011190Y0228112D01*
X0012388Y0226913D02*
X0038867Y0226913D01*
X0040773Y0226913D02*
X0040773Y0226913D01*
X0040773Y0228112D02*
X0040773Y0228112D01*
X0040773Y0229310D02*
X0040773Y0229310D01*
X0040773Y0229946D02*
X0040773Y0229947D01*
X0038757Y0232906D02*
X0027340Y0232906D01*
X0027225Y0238899D02*
X0046841Y0238899D01*
X0050847Y0238899D02*
X0065829Y0238899D01*
X0065829Y0237700D02*
X0051955Y0237700D01*
X0052425Y0236502D02*
X0065829Y0236502D01*
X0065829Y0235303D02*
X0052425Y0235303D01*
X0051996Y0234104D02*
X0065829Y0234104D01*
X0065829Y0232906D02*
X0050963Y0232906D01*
X0058559Y0260472D02*
X0059759Y0260472D01*
X0038270Y0190958D02*
X0019596Y0190958D01*
X0019793Y0189760D02*
X0038270Y0189760D01*
X0038270Y0188561D02*
X0020048Y0188561D01*
X0020048Y0187363D02*
X0038270Y0187363D01*
X0038270Y0186164D02*
X0020048Y0186164D01*
X0020048Y0184966D02*
X0038270Y0184966D01*
X0038270Y0183767D02*
X0020048Y0183767D01*
X0020048Y0182569D02*
X0038270Y0182569D01*
X0038270Y0181370D02*
X0020048Y0181370D01*
X0020048Y0180171D02*
X0038270Y0180171D01*
X0038270Y0178973D02*
X0020048Y0178973D01*
X0020048Y0177774D02*
X0038270Y0177774D01*
X0038270Y0176576D02*
X0020048Y0176576D01*
X0030945Y0147812D02*
X0033757Y0147812D01*
X0031659Y0146613D02*
X0031270Y0146613D01*
X0033096Y0143332D02*
X0040970Y0151206D01*
X0034901Y0073504D02*
X0029891Y0073504D01*
X0031995Y0055526D02*
X0027191Y0055526D01*
X0027191Y0054328D02*
X0031870Y0054328D01*
X0032113Y0053129D02*
X0028653Y0053129D01*
X0029650Y0051931D02*
X0031870Y0051931D01*
X0032225Y0050732D02*
X0029891Y0050732D01*
X0029891Y0049534D02*
X0031870Y0049534D01*
X0032040Y0048335D02*
X0029891Y0048335D01*
X0029891Y0047137D02*
X0031919Y0047137D01*
X0031922Y0045938D02*
X0029891Y0045938D01*
X0029891Y0044740D02*
X0032082Y0044740D01*
X0031870Y0043541D02*
X0029891Y0043541D01*
X0029891Y0042343D02*
X0032285Y0042343D01*
X0032535Y0041144D02*
X0029891Y0041144D01*
X0029891Y0039946D02*
X0031870Y0039946D01*
X0031978Y0038747D02*
X0029891Y0038747D01*
X0029891Y0037549D02*
X0032812Y0037549D01*
X0035679Y0014777D02*
X0038105Y0014777D01*
X0037598Y0013578D02*
X0036268Y0013578D01*
X0036268Y0012380D02*
X0037598Y0012380D01*
X0036268Y0011181D02*
X0041176Y0011181D01*
X0041176Y0009983D02*
X0041636Y0009983D01*
X0041176Y0008784D02*
X0042142Y0008784D01*
X0037674Y0008784D02*
X0036268Y0008784D01*
X0036268Y0009983D02*
X0037598Y0009983D01*
X0032407Y0011443D02*
X0029159Y0011443D01*
X0017545Y0229310D02*
X0017545Y0229310D01*
X0017545Y0230509D02*
X0017545Y0230509D01*
X0017545Y0231707D02*
X0017545Y0231707D01*
X0017545Y0231915D02*
X0017545Y0231915D01*
X0017545Y0235496D01*
X0017545Y0234104D02*
X0017545Y0234104D01*
X0017545Y0232906D02*
X0017545Y0232906D01*
X0017545Y0231915D02*
X0017545Y0231915D01*
X0013964Y0231915D01*
X0013964Y0231562D01*
X0014251Y0230509D02*
X0008793Y0230509D01*
X0009991Y0229310D02*
X0015085Y0229310D01*
X0020389Y0234104D02*
X0022070Y0234104D01*
X0011417Y0241296D02*
X0008237Y0241296D01*
X0008237Y0242494D02*
X0010136Y0242494D01*
X0009395Y0243693D02*
X0008237Y0243693D01*
X0008237Y0244891D02*
X0008964Y0244891D01*
X0014307Y0260472D02*
X0015507Y0260472D01*
M02*
