G75*
%MOIN*%
%OFA0B0*%
%FSLAX25Y25*%
%IPPOS*%
%LPD*%
%AMOC8*
5,1,8,0,0,1.08239X$1,22.5*
%
%ADD10R,0.02362X0.04331*%
%ADD11R,0.01181X0.04331*%
%ADD12C,0.08976*%
%ADD13C,0.11220*%
%ADD14R,0.03937X0.04331*%
%ADD15R,0.05118X0.05906*%
%ADD16R,0.06004X0.02756*%
%ADD17R,0.05906X0.05118*%
%ADD18C,0.06000*%
%ADD19R,0.02362X0.03346*%
%ADD20R,0.02756X0.03150*%
D10*
X0024435Y0241757D03*
X0027584Y0241757D03*
X0046482Y0241757D03*
X0049631Y0241757D03*
D11*
X0043923Y0241757D03*
X0041954Y0241757D03*
X0039986Y0241757D03*
X0038017Y0241757D03*
X0036049Y0241757D03*
X0034080Y0241757D03*
X0032112Y0241757D03*
X0030143Y0241757D03*
D12*
X0014907Y0246285D03*
X0059159Y0246285D03*
D13*
X0059159Y0262033D03*
X0014907Y0262033D03*
D14*
X0049435Y0229946D03*
X0056128Y0229946D03*
D15*
X0033293Y0107899D03*
X0040773Y0107899D03*
X0041167Y0214198D03*
X0041167Y0222072D03*
X0040773Y0229946D03*
X0033293Y0229946D03*
X0025025Y0229946D03*
X0017545Y0229946D03*
X0048647Y0222072D03*
X0048647Y0214198D03*
D16*
X0047710Y0150458D03*
X0047710Y0145458D03*
X0047710Y0140458D03*
X0047710Y0135458D03*
X0047710Y0130458D03*
X0047710Y0125458D03*
X0047710Y0120458D03*
X0026356Y0120458D03*
X0026356Y0125458D03*
X0026356Y0130458D03*
X0026356Y0135458D03*
X0026356Y0140458D03*
X0026356Y0145458D03*
X0026356Y0150458D03*
D17*
X0033096Y0190773D03*
X0033096Y0198254D03*
X0040970Y0198254D03*
X0040970Y0190773D03*
X0056718Y0107702D03*
X0056718Y0100222D03*
X0064592Y0100222D03*
X0064592Y0107702D03*
D18*
X0072183Y0107899D02*
X0078183Y0107899D01*
X0078183Y0117899D02*
X0072183Y0117899D01*
X0072183Y0097899D02*
X0078183Y0097899D01*
D19*
X0046482Y0157273D03*
X0041757Y0157273D03*
X0037033Y0157273D03*
X0032309Y0157273D03*
X0027584Y0157273D03*
D20*
X0023057Y0172135D03*
X0051009Y0172135D03*
M02*
