%
M48
M72
T24C0.0240
T40C0.0400
T60C0.0600
T75C0.0750
T98C0.0980
%
T24
X2916Y1144
X4491Y1144
X3310Y13546
X3310Y14333
X4097Y16302
X4688Y16302
X5264Y14924
X4865Y21026
X4077Y22995
X4884Y23585
X2522Y23585
X1754Y23191
T40
X7518Y11790
X7518Y10790
X7518Y9790
T60
X5916Y24629
X1491Y24629
T75
X1491Y26203
X5916Y26203
T98
X1144Y6066
X6262Y6066
X6262Y19845
X1144Y19845
M30
