G75*
%MOIN*%
%OFA0B0*%
%FSLAX25Y25*%
%IPPOS*%
%LPD*%
%AMOC8*
5,1,8,0,0,1.08239X$1,22.5*
%
%ADD10R,0.02362X0.04331*%
%ADD11R,0.01181X0.04331*%
%ADD12C,0.08976*%
%ADD13C,0.11220*%
%ADD14R,0.03937X0.04331*%
%ADD15R,0.05118X0.05906*%
%ADD16R,0.06004X0.02756*%
%ADD17R,0.05906X0.05118*%
%ADD18C,0.06000*%
%ADD19R,0.02362X0.03346*%
%ADD20R,0.02756X0.03150*%
%ADD21C,0.01200*%
%ADD22C,0.03962*%
%ADD23C,0.02400*%
D10*
X0024435Y0241757D03*
X0027584Y0241757D03*
X0046482Y0241757D03*
X0049631Y0241757D03*
D11*
X0043923Y0241757D03*
X0041954Y0241757D03*
X0039986Y0241757D03*
X0038017Y0241757D03*
X0036049Y0241757D03*
X0034080Y0241757D03*
X0032112Y0241757D03*
X0030143Y0241757D03*
D12*
X0014907Y0246285D03*
X0059159Y0246285D03*
D13*
X0059159Y0262033D03*
X0014907Y0262033D03*
D14*
X0049435Y0229946D03*
X0056128Y0229946D03*
D15*
X0048647Y0222072D03*
X0048647Y0214198D03*
X0041167Y0214198D03*
X0041167Y0222072D03*
X0040773Y0229946D03*
X0033293Y0229946D03*
X0025025Y0229946D03*
X0017545Y0229946D03*
X0033293Y0107899D03*
X0040773Y0107899D03*
D16*
X0047710Y0120458D03*
X0047710Y0125458D03*
X0047710Y0130458D03*
X0047710Y0135458D03*
X0047710Y0140458D03*
X0047710Y0145458D03*
X0047710Y0150458D03*
X0026356Y0150458D03*
X0026356Y0145458D03*
X0026356Y0140458D03*
X0026356Y0135458D03*
X0026356Y0130458D03*
X0026356Y0125458D03*
X0026356Y0120458D03*
D17*
X0033096Y0190773D03*
X0033096Y0198254D03*
X0040970Y0198254D03*
X0040970Y0190773D03*
X0056718Y0107702D03*
X0056718Y0100222D03*
X0064592Y0100222D03*
X0064592Y0107702D03*
D18*
X0072183Y0107899D02*
X0078183Y0107899D01*
X0078183Y0117899D02*
X0072183Y0117899D01*
X0072183Y0097899D02*
X0078183Y0097899D01*
D19*
X0046482Y0157273D03*
X0041757Y0157273D03*
X0037033Y0157273D03*
X0032309Y0157273D03*
X0027584Y0157273D03*
D20*
X0023057Y0172135D03*
X0051009Y0172135D03*
D21*
X0020048Y0016230D02*
X0020048Y0008624D01*
X0024372Y0004300D01*
X0049694Y0004300D01*
X0054018Y0008624D01*
X0054018Y0016230D01*
X0045346Y0024902D01*
X0044587Y0025661D01*
X0044176Y0026653D01*
X0044176Y0051350D01*
X0044587Y0052342D01*
X0045346Y0053102D01*
X0046339Y0053513D01*
X0046876Y0053513D01*
X0046876Y0067798D01*
X0046339Y0067798D01*
X0045346Y0068209D01*
X0044587Y0068968D01*
X0044176Y0069961D01*
X0044176Y0080877D01*
X0044587Y0081870D01*
X0045346Y0082629D01*
X0055189Y0092472D01*
X0056181Y0092883D01*
X0091033Y0092883D01*
X0091420Y0093270D01*
X0091420Y0122529D01*
X0091033Y0122916D01*
X0060118Y0122916D01*
X0059126Y0123327D01*
X0055189Y0127264D01*
X0054429Y0128023D01*
X0054018Y0129016D01*
X0054018Y0145934D01*
X0053682Y0145794D01*
X0052990Y0145657D01*
X0052637Y0145657D01*
X0052637Y0149238D01*
X0052637Y0152819D01*
X0052284Y0152819D01*
X0052022Y0152767D01*
X0051993Y0152819D01*
X0051695Y0153117D01*
X0051330Y0153327D01*
X0050923Y0153436D01*
X0047799Y0153436D01*
X0047799Y0150547D01*
X0047621Y0150547D01*
X0047621Y0150369D01*
X0043108Y0150369D01*
X0043108Y0148870D01*
X0043217Y0148463D01*
X0043393Y0148158D01*
X0042652Y0148158D01*
X0036811Y0154000D01*
X0037033Y0154000D01*
X0037033Y0157273D01*
X0037033Y0157273D01*
X0037033Y0154000D01*
X0038425Y0154000D01*
X0038832Y0154109D01*
X0039197Y0154320D01*
X0039494Y0154618D01*
X0039525Y0154671D01*
X0039996Y0154200D01*
X0043518Y0154200D01*
X0044120Y0154801D01*
X0044721Y0154200D01*
X0048243Y0154200D01*
X0049063Y0155020D01*
X0049063Y0156449D01*
X0049182Y0156736D01*
X0049182Y0160259D01*
X0049911Y0160989D01*
X0050457Y0162305D01*
X0050457Y0163730D01*
X0049911Y0165046D01*
X0049576Y0165382D01*
X0049576Y0169161D01*
X0052967Y0169161D01*
X0053787Y0169981D01*
X0053787Y0174290D01*
X0052967Y0175110D01*
X0049576Y0175110D01*
X0049576Y0185405D01*
X0049165Y0186397D01*
X0045323Y0190239D01*
X0045323Y0193912D01*
X0044722Y0194513D01*
X0045323Y0195115D01*
X0045323Y0201392D01*
X0044558Y0202157D01*
X0049081Y0206680D01*
X0049360Y0206680D01*
X0050676Y0207226D01*
X0051683Y0208233D01*
X0052228Y0209549D01*
X0052228Y0210288D01*
X0052606Y0210666D01*
X0052606Y0217731D01*
X0052202Y0218135D01*
X0052606Y0218540D01*
X0052606Y0225605D01*
X0051830Y0226381D01*
X0051983Y0226381D01*
X0052781Y0227179D01*
X0053579Y0226381D01*
X0058676Y0226381D01*
X0059496Y0227201D01*
X0059496Y0232692D01*
X0059428Y0232760D01*
X0059428Y0233162D01*
X0058925Y0234375D01*
X0054650Y0238650D01*
X0053438Y0239152D01*
X0052351Y0239152D01*
X0052413Y0239381D01*
X0052413Y0241026D01*
X0055287Y0241026D01*
X0055766Y0241225D01*
X0055968Y0241078D01*
X0056822Y0240643D01*
X0057733Y0240347D01*
X0058559Y0240216D01*
X0058559Y0245685D01*
X0059759Y0245685D01*
X0059759Y0240216D01*
X0060585Y0240347D01*
X0061496Y0240643D01*
X0062350Y0241078D01*
X0063125Y0241641D01*
X0063803Y0242319D01*
X0064366Y0243094D01*
X0064801Y0243948D01*
X0065097Y0244859D01*
X0065228Y0245685D01*
X0059759Y0245685D01*
X0059759Y0246885D01*
X0058559Y0246885D01*
X0058559Y0252354D01*
X0057733Y0252223D01*
X0057450Y0252131D01*
X0057450Y0255027D01*
X0057749Y0254946D01*
X0058559Y0254840D01*
X0058559Y0261433D01*
X0059759Y0261433D01*
X0059759Y0254840D01*
X0060569Y0254946D01*
X0061482Y0255191D01*
X0062355Y0255553D01*
X0063173Y0256025D01*
X0063923Y0256600D01*
X0064592Y0257269D01*
X0065167Y0258019D01*
X0065640Y0258837D01*
X0065829Y0259295D01*
X0065829Y0231065D01*
X0055189Y0220424D01*
X0054429Y0219665D01*
X0054018Y0218672D01*
X0054018Y0207756D01*
X0054429Y0206763D01*
X0054892Y0206300D01*
X0054619Y0206027D01*
X0054522Y0206013D01*
X0054276Y0205684D01*
X0053985Y0205393D01*
X0053985Y0205295D01*
X0053622Y0204811D01*
X0053529Y0204783D01*
X0053331Y0204422D01*
X0053085Y0204093D01*
X0053099Y0203996D01*
X0052809Y0203465D01*
X0052720Y0203424D01*
X0052576Y0203039D01*
X0052379Y0202678D01*
X0052407Y0202584D01*
X0052195Y0202017D01*
X0052113Y0201964D01*
X0052025Y0201562D01*
X0051882Y0201177D01*
X0051922Y0201088D01*
X0051794Y0200496D01*
X0051720Y0200433D01*
X0051690Y0200022D01*
X0051603Y0199621D01*
X0051656Y0199538D01*
X0051613Y0198934D01*
X0051549Y0198861D01*
X0051578Y0198450D01*
X0051549Y0198040D01*
X0051613Y0197966D01*
X0051656Y0197362D01*
X0051603Y0197280D01*
X0051690Y0196878D01*
X0051720Y0196468D01*
X0051794Y0196404D01*
X0051922Y0195813D01*
X0051882Y0195724D01*
X0052025Y0195338D01*
X0052113Y0194937D01*
X0052195Y0194884D01*
X0052407Y0194317D01*
X0052379Y0194223D01*
X0052576Y0193862D01*
X0052720Y0193477D01*
X0052809Y0193436D01*
X0053099Y0192905D01*
X0053085Y0192808D01*
X0053331Y0192479D01*
X0053529Y0192118D01*
X0053622Y0192090D01*
X0053985Y0191605D01*
X0053985Y0191508D01*
X0054276Y0191217D01*
X0054522Y0190888D01*
X0054619Y0190874D01*
X0054892Y0190601D01*
X0054429Y0190137D01*
X0054018Y0189145D01*
X0054018Y0152542D01*
X0053682Y0152681D01*
X0052990Y0152819D01*
X0052637Y0152819D01*
X0052637Y0149238D01*
X0052637Y0149238D01*
X0051417Y0150458D01*
X0047710Y0150458D01*
X0040352Y0150458D01*
X0037033Y0153778D01*
X0037033Y0157273D01*
X0037033Y0163017D01*
X0027191Y0172860D01*
X0027191Y0192359D01*
X0029563Y0194732D01*
X0029575Y0194732D01*
X0033096Y0198254D01*
X0033096Y0206128D01*
X0041167Y0214198D01*
X0041167Y0222072D01*
X0041167Y0229553D01*
X0040773Y0229946D01*
X0041167Y0229946D01*
X0041373Y0229947D02*
X0044354Y0229947D01*
X0044354Y0230299D01*
X0044305Y0230546D01*
X0044932Y0230546D01*
X0044932Y0233110D01*
X0044823Y0233517D01*
X0044613Y0233882D01*
X0044315Y0234180D01*
X0043950Y0234390D01*
X0043543Y0234499D01*
X0043436Y0234499D01*
X0044243Y0235307D01*
X0044632Y0236246D01*
X0045263Y0235615D01*
X0045263Y0235140D01*
X0045808Y0233823D01*
X0046503Y0233129D01*
X0046066Y0232692D01*
X0046066Y0232032D01*
X0045850Y0231816D01*
X0045347Y0230603D01*
X0045347Y0229290D01*
X0045850Y0228077D01*
X0045947Y0227980D01*
X0045947Y0226425D01*
X0045508Y0226425D01*
X0045037Y0225954D01*
X0045006Y0226008D01*
X0044755Y0226259D01*
X0044823Y0226376D01*
X0044932Y0226783D01*
X0044932Y0229346D01*
X0044305Y0229346D01*
X0044354Y0229594D01*
X0044354Y0229946D01*
X0041373Y0229946D01*
X0041373Y0229947D01*
X0040773Y0230546D02*
X0040773Y0232214D01*
X0040773Y0232214D01*
X0040773Y0230546D01*
X0040773Y0230546D01*
X0040173Y0229947D02*
X0040173Y0229946D01*
X0037252Y0229946D01*
X0037252Y0229947D01*
X0040173Y0229947D01*
X0040773Y0229346D02*
X0040773Y0229346D01*
X0040773Y0226365D01*
X0040567Y0226365D01*
X0040567Y0222672D01*
X0040567Y0221472D01*
X0041767Y0221472D01*
X0041767Y0214798D01*
X0040567Y0214798D01*
X0040567Y0213598D01*
X0041767Y0213598D01*
X0041767Y0209646D01*
X0043937Y0209646D01*
X0044344Y0209755D01*
X0044708Y0209965D01*
X0045006Y0210263D01*
X0045037Y0210317D01*
X0045059Y0210295D01*
X0039441Y0204676D01*
X0039441Y0204676D01*
X0038681Y0203917D01*
X0038270Y0202924D01*
X0038270Y0202213D01*
X0037437Y0202213D01*
X0037174Y0201950D01*
X0037031Y0202093D01*
X0036666Y0202304D01*
X0036259Y0202413D01*
X0033696Y0202413D01*
X0033696Y0198854D01*
X0032496Y0198854D01*
X0032496Y0202413D01*
X0029933Y0202413D01*
X0029526Y0202304D01*
X0029161Y0202093D01*
X0028863Y0201795D01*
X0028652Y0201430D01*
X0028543Y0201023D01*
X0028543Y0198854D01*
X0032496Y0198854D01*
X0032496Y0197654D01*
X0028543Y0197654D01*
X0028543Y0195484D01*
X0028652Y0195077D01*
X0028863Y0194712D01*
X0029161Y0194414D01*
X0029214Y0194383D01*
X0028743Y0193912D01*
X0028743Y0187634D01*
X0029563Y0186814D01*
X0036629Y0186814D01*
X0037033Y0187219D01*
X0037437Y0186814D01*
X0041111Y0186814D01*
X0044176Y0183749D01*
X0044176Y0165382D01*
X0043923Y0165129D01*
X0042999Y0166053D01*
X0041682Y0166598D01*
X0040258Y0166598D01*
X0038942Y0166053D01*
X0037934Y0165046D01*
X0037389Y0163730D01*
X0037389Y0162305D01*
X0037934Y0160989D01*
X0038377Y0160546D01*
X0037033Y0160546D01*
X0035641Y0160546D01*
X0035234Y0160437D01*
X0034870Y0160227D01*
X0034572Y0159929D01*
X0034541Y0159875D01*
X0034070Y0160346D01*
X0030548Y0160346D01*
X0029946Y0159745D01*
X0029345Y0160346D01*
X0025823Y0160346D01*
X0025003Y0159526D01*
X0025003Y0158097D01*
X0024884Y0157810D01*
X0024884Y0155053D01*
X0025295Y0154060D01*
X0026119Y0153236D01*
X0022774Y0153236D01*
X0021954Y0152416D01*
X0021954Y0148500D01*
X0022496Y0147958D01*
X0021954Y0147416D01*
X0021954Y0143500D01*
X0022496Y0142958D01*
X0021954Y0142416D01*
X0021954Y0138500D01*
X0022496Y0137958D01*
X0021954Y0137416D01*
X0021954Y0133500D01*
X0022496Y0132958D01*
X0021954Y0132416D01*
X0021954Y0128500D01*
X0022496Y0127958D01*
X0021954Y0127416D01*
X0021954Y0123500D01*
X0022496Y0122958D01*
X0021954Y0122416D01*
X0021954Y0118500D01*
X0022774Y0117680D01*
X0029339Y0117680D01*
X0030593Y0116427D01*
X0030593Y0112252D01*
X0030154Y0112252D01*
X0029334Y0111432D01*
X0029334Y0104367D01*
X0030154Y0103546D01*
X0032365Y0103546D01*
X0032365Y0016498D01*
X0030592Y0014725D01*
X0029871Y0015024D01*
X0028447Y0015024D01*
X0027131Y0014478D01*
X0026123Y0013471D01*
X0025578Y0012155D01*
X0025578Y0010730D01*
X0026123Y0009414D01*
X0027131Y0008407D01*
X0028447Y0007861D01*
X0029871Y0007861D01*
X0031188Y0008407D01*
X0031523Y0008743D01*
X0031665Y0008743D01*
X0032657Y0009154D01*
X0036594Y0013091D01*
X0037354Y0013850D01*
X0037765Y0014842D01*
X0037765Y0103546D01*
X0043912Y0103546D01*
X0044732Y0104367D01*
X0044732Y0105002D01*
X0052365Y0105002D01*
X0052365Y0104563D01*
X0052836Y0104092D01*
X0052783Y0104061D01*
X0052485Y0103764D01*
X0052274Y0103399D01*
X0052165Y0102992D01*
X0052165Y0100822D01*
X0056118Y0100822D01*
X0056118Y0099622D01*
X0052165Y0099622D01*
X0052165Y0097452D01*
X0052274Y0097045D01*
X0052485Y0096681D01*
X0052783Y0096383D01*
X0053148Y0096172D01*
X0053555Y0096063D01*
X0056118Y0096063D01*
X0056118Y0099622D01*
X0057318Y0099622D01*
X0057318Y0096063D01*
X0059882Y0096063D01*
X0060288Y0096172D01*
X0060653Y0096383D01*
X0060655Y0096385D01*
X0060657Y0096383D01*
X0061022Y0096172D01*
X0061429Y0096063D01*
X0063992Y0096063D01*
X0063992Y0099622D01*
X0060039Y0099622D01*
X0057318Y0099622D01*
X0057318Y0100822D01*
X0063992Y0100822D01*
X0063992Y0099622D01*
X0065192Y0099622D01*
X0065192Y0096063D01*
X0067756Y0096063D01*
X0067932Y0096110D01*
X0068248Y0095488D01*
X0068674Y0094903D01*
X0069186Y0094391D01*
X0069772Y0093965D01*
X0070417Y0093636D01*
X0071105Y0093412D01*
X0071821Y0093299D01*
X0074783Y0093299D01*
X0074783Y0097499D01*
X0075583Y0097499D01*
X0075583Y0098299D01*
X0082777Y0098299D01*
X0082669Y0098976D01*
X0082446Y0099665D01*
X0082117Y0100310D01*
X0081691Y0100896D01*
X0081179Y0101408D01*
X0080594Y0101833D01*
X0079948Y0102162D01*
X0079260Y0102386D01*
X0078545Y0102499D01*
X0075583Y0102499D01*
X0075583Y0098299D01*
X0074783Y0098299D01*
X0074783Y0102499D01*
X0071821Y0102499D01*
X0071105Y0102386D01*
X0070417Y0102162D01*
X0069772Y0101833D01*
X0069186Y0101408D01*
X0069145Y0101367D01*
X0069145Y0102992D01*
X0069036Y0103399D01*
X0068825Y0103764D01*
X0068527Y0104061D01*
X0068474Y0104092D01*
X0068945Y0104563D01*
X0068945Y0104914D01*
X0069690Y0104169D01*
X0071307Y0103499D01*
X0079058Y0103499D01*
X0080675Y0104169D01*
X0081913Y0105407D01*
X0082583Y0107024D01*
X0082583Y0108774D01*
X0081913Y0110392D01*
X0080675Y0111629D01*
X0079058Y0112299D01*
X0071307Y0112299D01*
X0069690Y0111629D01*
X0068924Y0110863D01*
X0068125Y0111661D01*
X0061059Y0111661D01*
X0060655Y0111257D01*
X0060251Y0111661D01*
X0053185Y0111661D01*
X0052365Y0110841D01*
X0052365Y0110402D01*
X0044732Y0110402D01*
X0044732Y0111432D01*
X0043912Y0112252D01*
X0043572Y0112252D01*
X0043572Y0114322D01*
X0043161Y0115314D01*
X0035796Y0122678D01*
X0035796Y0128434D01*
X0038966Y0131604D01*
X0039377Y0132597D01*
X0039377Y0137479D01*
X0038966Y0138471D01*
X0038207Y0139231D01*
X0036132Y0141305D01*
X0036677Y0142620D01*
X0036677Y0142678D01*
X0040427Y0138929D01*
X0041186Y0138169D01*
X0042179Y0137758D01*
X0043650Y0137758D01*
X0043308Y0137416D01*
X0043308Y0133500D01*
X0043850Y0132958D01*
X0043308Y0132416D01*
X0043308Y0128500D01*
X0043850Y0127958D01*
X0043308Y0127416D01*
X0043308Y0123500D01*
X0043850Y0122958D01*
X0043308Y0122416D01*
X0043308Y0118500D01*
X0044128Y0117680D01*
X0049024Y0117680D01*
X0050492Y0116212D01*
X0051252Y0115453D01*
X0052244Y0115042D01*
X0068818Y0115042D01*
X0069690Y0114169D01*
X0071307Y0113499D01*
X0079058Y0113499D01*
X0080675Y0114169D01*
X0081913Y0115407D01*
X0082583Y0117024D01*
X0082583Y0118774D01*
X0081913Y0120392D01*
X0080675Y0121629D01*
X0079058Y0122299D01*
X0071307Y0122299D01*
X0069690Y0121629D01*
X0068503Y0120442D01*
X0053899Y0120442D01*
X0052112Y0122229D01*
X0052112Y0122416D01*
X0051570Y0122958D01*
X0052112Y0123500D01*
X0052112Y0127416D01*
X0051570Y0127958D01*
X0052112Y0128500D01*
X0052112Y0132416D01*
X0051570Y0132958D01*
X0052112Y0133500D01*
X0052112Y0137416D01*
X0051570Y0137958D01*
X0052112Y0138500D01*
X0052112Y0142416D01*
X0051570Y0142958D01*
X0052112Y0143500D01*
X0052112Y0145691D01*
X0052284Y0145657D01*
X0052637Y0145657D01*
X0052637Y0149238D01*
X0052637Y0149238D01*
X0052637Y0149010D02*
X0052637Y0149010D01*
X0052637Y0147812D02*
X0052637Y0147812D01*
X0052637Y0146613D02*
X0052637Y0146613D01*
X0052112Y0145415D02*
X0054018Y0145415D01*
X0054018Y0144216D02*
X0052112Y0144216D01*
X0051629Y0143018D02*
X0054018Y0143018D01*
X0054018Y0141819D02*
X0052112Y0141819D01*
X0052112Y0140621D02*
X0054018Y0140621D01*
X0054018Y0139422D02*
X0052112Y0139422D01*
X0051835Y0138224D02*
X0054018Y0138224D01*
X0054018Y0137025D02*
X0052112Y0137025D01*
X0052112Y0135827D02*
X0054018Y0135827D01*
X0054018Y0134628D02*
X0052112Y0134628D01*
X0052041Y0133430D02*
X0054018Y0133430D01*
X0054018Y0132231D02*
X0052112Y0132231D01*
X0052112Y0131033D02*
X0054018Y0131033D01*
X0054018Y0129834D02*
X0052112Y0129834D01*
X0052112Y0128635D02*
X0054176Y0128635D01*
X0055016Y0127437D02*
X0052091Y0127437D01*
X0052112Y0126238D02*
X0056214Y0126238D01*
X0057413Y0125040D02*
X0052112Y0125040D01*
X0052112Y0123841D02*
X0058611Y0123841D01*
X0052897Y0121444D02*
X0069505Y0121444D01*
X0069606Y0114253D02*
X0043572Y0114253D01*
X0043572Y0113055D02*
X0091420Y0113055D01*
X0091420Y0114253D02*
X0080759Y0114253D01*
X0081931Y0115452D02*
X0091420Y0115452D01*
X0091420Y0116650D02*
X0082428Y0116650D01*
X0082583Y0117849D02*
X0091420Y0117849D01*
X0091420Y0119047D02*
X0082470Y0119047D01*
X0081973Y0120246D02*
X0091420Y0120246D01*
X0091420Y0121444D02*
X0080860Y0121444D01*
X0080127Y0111856D02*
X0091420Y0111856D01*
X0091420Y0110658D02*
X0081647Y0110658D01*
X0082299Y0109459D02*
X0091420Y0109459D01*
X0091420Y0108261D02*
X0082583Y0108261D01*
X0082583Y0107062D02*
X0091420Y0107062D01*
X0091420Y0105864D02*
X0082102Y0105864D01*
X0081171Y0104665D02*
X0091420Y0104665D01*
X0091420Y0103467D02*
X0068997Y0103467D01*
X0068945Y0104665D02*
X0069194Y0104665D01*
X0069145Y0102268D02*
X0070743Y0102268D01*
X0072860Y0100222D02*
X0075183Y0097899D01*
X0075583Y0097499D02*
X0075583Y0093299D01*
X0078545Y0093299D01*
X0079260Y0093412D01*
X0079948Y0093636D01*
X0080594Y0093965D01*
X0081179Y0094391D01*
X0081691Y0094903D01*
X0082117Y0095488D01*
X0082446Y0096133D01*
X0082669Y0096822D01*
X0082777Y0097499D01*
X0075583Y0097499D01*
X0075583Y0097474D02*
X0074783Y0097474D01*
X0074783Y0096276D02*
X0075583Y0096276D01*
X0075583Y0095077D02*
X0074783Y0095077D01*
X0074783Y0093879D02*
X0075583Y0093879D01*
X0075583Y0098673D02*
X0074783Y0098673D01*
X0074783Y0099871D02*
X0075583Y0099871D01*
X0075583Y0101070D02*
X0074783Y0101070D01*
X0074783Y0102268D02*
X0075583Y0102268D01*
X0072860Y0100222D02*
X0064592Y0100222D01*
X0056718Y0100222D01*
X0041167Y0100222D01*
X0039002Y0098057D01*
X0039002Y0015380D01*
X0042939Y0011443D01*
X0044907Y0011443D01*
X0044907Y0015024D01*
X0044554Y0015024D01*
X0043863Y0014886D01*
X0043211Y0014616D01*
X0042624Y0014224D01*
X0042125Y0013725D01*
X0041734Y0013139D01*
X0041464Y0012487D01*
X0041326Y0011795D01*
X0041326Y0011443D01*
X0044907Y0011443D01*
X0044907Y0011443D01*
X0044907Y0015024D01*
X0045260Y0015024D01*
X0045952Y0014886D01*
X0046603Y0014616D01*
X0047190Y0014224D01*
X0047689Y0013725D01*
X0048081Y0013139D01*
X0048351Y0012487D01*
X0048488Y0011795D01*
X0048488Y0011443D01*
X0044907Y0011443D01*
X0044907Y0011442D01*
X0044907Y0011442D01*
X0044907Y0007861D01*
X0044554Y0007861D01*
X0043863Y0007999D01*
X0043211Y0008269D01*
X0042624Y0008661D01*
X0042125Y0009160D01*
X0041734Y0009746D01*
X0041464Y0010398D01*
X0041326Y0011090D01*
X0041326Y0011442D01*
X0044907Y0011442D01*
X0044907Y0007861D01*
X0045260Y0007861D01*
X0045952Y0007999D01*
X0046603Y0008269D01*
X0047190Y0008661D01*
X0047689Y0009160D01*
X0048081Y0009746D01*
X0048351Y0010398D01*
X0048488Y0011090D01*
X0048488Y0011442D01*
X0044907Y0011442D01*
X0044907Y0011443D01*
X0044907Y0011181D02*
X0044907Y0011181D01*
X0044907Y0009983D02*
X0044907Y0009983D01*
X0044907Y0008784D02*
X0044907Y0008784D01*
X0044907Y0012380D02*
X0044907Y0012380D01*
X0044907Y0013578D02*
X0044907Y0013578D01*
X0044907Y0014777D02*
X0044907Y0014777D01*
X0043599Y0014777D02*
X0037737Y0014777D01*
X0037765Y0015975D02*
X0054018Y0015975D01*
X0054018Y0014777D02*
X0046215Y0014777D01*
X0047787Y0013578D02*
X0054018Y0013578D01*
X0054018Y0012380D02*
X0048372Y0012380D01*
X0048488Y0011181D02*
X0054018Y0011181D01*
X0054018Y0009983D02*
X0048179Y0009983D01*
X0047313Y0008784D02*
X0054018Y0008784D01*
X0052980Y0007586D02*
X0021086Y0007586D01*
X0020048Y0008784D02*
X0026753Y0008784D01*
X0025887Y0009983D02*
X0020048Y0009983D01*
X0020048Y0011181D02*
X0025578Y0011181D01*
X0025671Y0012380D02*
X0020048Y0012380D01*
X0020048Y0013578D02*
X0026231Y0013578D01*
X0027851Y0014777D02*
X0020048Y0014777D01*
X0020048Y0015975D02*
X0031842Y0015975D01*
X0032365Y0017174D02*
X0020992Y0017174D01*
X0020048Y0016230D02*
X0028720Y0024902D01*
X0029479Y0025661D01*
X0029891Y0026653D01*
X0029891Y0051350D01*
X0029479Y0052342D01*
X0028720Y0053102D01*
X0027728Y0053513D01*
X0027191Y0053513D01*
X0027191Y0067798D01*
X0027728Y0067798D01*
X0028720Y0068209D01*
X0029479Y0068968D01*
X0029891Y0069961D01*
X0029891Y0080877D01*
X0029479Y0081870D01*
X0020048Y0091301D01*
X0020048Y0189145D01*
X0019637Y0190137D01*
X0019174Y0190601D01*
X0019447Y0190874D01*
X0019544Y0190888D01*
X0019790Y0191217D01*
X0020081Y0191508D01*
X0020081Y0191605D01*
X0020444Y0192090D01*
X0020538Y0192118D01*
X0020735Y0192479D01*
X0020981Y0192808D01*
X0020967Y0192905D01*
X0021257Y0193436D01*
X0021346Y0193477D01*
X0021490Y0193862D01*
X0021687Y0194223D01*
X0021659Y0194317D01*
X0021871Y0194884D01*
X0021953Y0194937D01*
X0022041Y0195338D01*
X0022184Y0195724D01*
X0022144Y0195813D01*
X0022273Y0196404D01*
X0022346Y0196468D01*
X0022376Y0196878D01*
X0022463Y0197280D01*
X0022410Y0197362D01*
X0022453Y0197966D01*
X0022517Y0198040D01*
X0022488Y0198450D01*
X0022517Y0198861D01*
X0022453Y0198934D01*
X0022410Y0199538D01*
X0022463Y0199621D01*
X0022376Y0200022D01*
X0022346Y0200433D01*
X0022273Y0200496D01*
X0022144Y0201088D01*
X0022184Y0201177D01*
X0022041Y0201562D01*
X0021953Y0201964D01*
X0021871Y0202017D01*
X0021659Y0202584D01*
X0021687Y0202678D01*
X0021490Y0203039D01*
X0021346Y0203424D01*
X0021257Y0203465D01*
X0020967Y0203996D01*
X0020981Y0204093D01*
X0020735Y0204422D01*
X0020538Y0204783D01*
X0020444Y0204811D01*
X0020081Y0205295D01*
X0020081Y0205393D01*
X0019790Y0205684D01*
X0019544Y0206013D01*
X0019447Y0206027D01*
X0019174Y0206300D01*
X0019637Y0206763D01*
X0020048Y0207756D01*
X0020048Y0218672D01*
X0019637Y0219665D01*
X0018877Y0220424D01*
X0008237Y0231065D01*
X0008237Y0259295D01*
X0008427Y0258837D01*
X0008899Y0258019D01*
X0009475Y0257269D01*
X0010143Y0256600D01*
X0010893Y0256025D01*
X0011711Y0255553D01*
X0012584Y0255191D01*
X0013497Y0254946D01*
X0014307Y0254840D01*
X0014307Y0261433D01*
X0015507Y0261433D01*
X0015507Y0254840D01*
X0016317Y0254946D01*
X0016617Y0255027D01*
X0016617Y0252131D01*
X0016333Y0252223D01*
X0015507Y0252354D01*
X0015507Y0246885D01*
X0014307Y0246885D01*
X0014307Y0245685D01*
X0008838Y0245685D01*
X0008969Y0244859D01*
X0009265Y0243948D01*
X0009700Y0243094D01*
X0010263Y0242319D01*
X0010941Y0241641D01*
X0011716Y0241078D01*
X0012570Y0240643D01*
X0013481Y0240347D01*
X0014307Y0240216D01*
X0014307Y0245685D01*
X0015507Y0245685D01*
X0015507Y0240216D01*
X0016333Y0240347D01*
X0017244Y0240643D01*
X0018098Y0241078D01*
X0018300Y0241225D01*
X0018779Y0241026D01*
X0021654Y0241026D01*
X0021654Y0239381D01*
X0021763Y0238975D01*
X0021973Y0238610D01*
X0022271Y0238312D01*
X0022491Y0238185D01*
X0022186Y0237880D01*
X0021641Y0236564D01*
X0021641Y0235140D01*
X0021989Y0234299D01*
X0021886Y0234299D01*
X0021415Y0233828D01*
X0021384Y0233882D01*
X0021086Y0234180D01*
X0020722Y0234390D01*
X0020315Y0234499D01*
X0020025Y0234499D01*
X0019828Y0234697D01*
X0019241Y0235088D01*
X0018589Y0235358D01*
X0017898Y0235496D01*
X0017545Y0235496D01*
X0017545Y0231915D01*
X0017545Y0231915D01*
X0017545Y0230340D01*
X0017545Y0230546D02*
X0017545Y0231915D01*
X0017545Y0229946D01*
X0017545Y0229346D02*
X0017545Y0228334D01*
X0017898Y0228334D01*
X0018145Y0228383D01*
X0018145Y0225394D01*
X0020315Y0225394D01*
X0020722Y0225503D01*
X0021086Y0225713D01*
X0021384Y0226011D01*
X0021415Y0226065D01*
X0021886Y0225594D01*
X0028164Y0225594D01*
X0028984Y0226414D01*
X0028984Y0230087D01*
X0029334Y0230437D01*
X0029334Y0226414D01*
X0030154Y0225594D01*
X0036432Y0225594D01*
X0036903Y0226065D01*
X0036934Y0226011D01*
X0037185Y0225760D01*
X0037117Y0225643D01*
X0037008Y0225236D01*
X0037008Y0222672D01*
X0040567Y0222672D01*
X0041767Y0222672D01*
X0041767Y0225394D01*
X0041373Y0225394D01*
X0041373Y0226415D01*
X0041126Y0226365D01*
X0040773Y0226365D01*
X0040773Y0229346D01*
X0040773Y0229310D02*
X0040773Y0229310D01*
X0040773Y0228112D02*
X0040773Y0228112D01*
X0040773Y0226913D02*
X0040773Y0226913D01*
X0040567Y0225715D02*
X0041373Y0225715D01*
X0041767Y0224516D02*
X0040567Y0224516D01*
X0040567Y0223318D02*
X0041767Y0223318D01*
X0040567Y0222119D02*
X0017182Y0222119D01*
X0015984Y0223318D02*
X0037008Y0223318D01*
X0037008Y0224516D02*
X0014785Y0224516D01*
X0014775Y0225394D02*
X0016945Y0225394D01*
X0016945Y0228383D01*
X0017192Y0228334D01*
X0017545Y0228334D01*
X0017545Y0229346D01*
X0017545Y0229346D01*
X0017545Y0229310D02*
X0017545Y0229310D01*
X0017545Y0230546D02*
X0017545Y0231915D01*
X0017545Y0237820D01*
X0017545Y0235496D02*
X0017192Y0235496D01*
X0016500Y0235358D01*
X0015849Y0235088D01*
X0015262Y0234697D01*
X0015065Y0234499D01*
X0014775Y0234499D01*
X0014368Y0234390D01*
X0014003Y0234180D01*
X0013706Y0233882D01*
X0013495Y0233517D01*
X0013386Y0233110D01*
X0013386Y0230546D01*
X0014236Y0230546D01*
X0014371Y0230219D01*
X0014763Y0229632D01*
X0015049Y0229346D01*
X0013386Y0229346D01*
X0013386Y0226783D01*
X0013495Y0226376D01*
X0013706Y0226011D01*
X0014003Y0225713D01*
X0014368Y0225503D01*
X0014775Y0225394D01*
X0014002Y0225715D02*
X0013587Y0225715D01*
X0013386Y0226913D02*
X0012388Y0226913D01*
X0013386Y0228112D02*
X0011190Y0228112D01*
X0009991Y0229310D02*
X0013386Y0229310D01*
X0014251Y0230509D02*
X0008793Y0230509D01*
X0008237Y0231707D02*
X0013386Y0231707D01*
X0013386Y0232906D02*
X0008237Y0232906D01*
X0008237Y0234104D02*
X0013928Y0234104D01*
X0016366Y0235303D02*
X0008237Y0235303D01*
X0008237Y0236502D02*
X0021641Y0236502D01*
X0021641Y0235303D02*
X0018723Y0235303D01*
X0017545Y0235303D02*
X0017545Y0235303D01*
X0017545Y0235496D02*
X0017545Y0231915D01*
X0017545Y0241561D01*
X0017348Y0241757D01*
X0014907Y0244198D01*
X0014907Y0246285D01*
X0014080Y0245457D01*
X0014307Y0244891D02*
X0015507Y0244891D01*
X0015507Y0243693D02*
X0014307Y0243693D01*
X0014307Y0242494D02*
X0015507Y0242494D01*
X0015507Y0241296D02*
X0014307Y0241296D01*
X0014307Y0246090D02*
X0008237Y0246090D01*
X0008838Y0246885D02*
X0014307Y0246885D01*
X0014307Y0252354D01*
X0013481Y0252223D01*
X0012570Y0251927D01*
X0011716Y0251492D01*
X0010941Y0250929D01*
X0010263Y0250251D01*
X0009700Y0249476D01*
X0009265Y0248622D01*
X0008969Y0247711D01*
X0008838Y0246885D01*
X0008902Y0247288D02*
X0008237Y0247288D01*
X0008237Y0248487D02*
X0009221Y0248487D01*
X0009852Y0249685D02*
X0008237Y0249685D01*
X0008237Y0250884D02*
X0010896Y0250884D01*
X0013047Y0252082D02*
X0008237Y0252082D01*
X0008237Y0253281D02*
X0016617Y0253281D01*
X0016617Y0254479D02*
X0008237Y0254479D01*
X0008237Y0255678D02*
X0011494Y0255678D01*
X0009867Y0256876D02*
X0008237Y0256876D01*
X0008237Y0258075D02*
X0008867Y0258075D01*
X0008246Y0259273D02*
X0008237Y0259273D01*
X0012348Y0258883D02*
X0014907Y0261443D01*
X0014907Y0246285D01*
X0014307Y0247288D02*
X0015507Y0247288D01*
X0015507Y0248487D02*
X0014307Y0248487D01*
X0014307Y0249685D02*
X0015507Y0249685D01*
X0015507Y0250884D02*
X0014307Y0250884D01*
X0014307Y0252082D02*
X0015507Y0252082D01*
X0015507Y0255678D02*
X0014307Y0255678D01*
X0014307Y0256876D02*
X0015507Y0256876D01*
X0015507Y0258075D02*
X0014307Y0258075D01*
X0014307Y0259273D02*
X0015507Y0259273D01*
X0015507Y0260472D02*
X0014307Y0260472D01*
X0014907Y0261443D02*
X0014907Y0262033D01*
X0008964Y0244891D02*
X0008237Y0244891D01*
X0008237Y0243693D02*
X0009395Y0243693D01*
X0010136Y0242494D02*
X0008237Y0242494D01*
X0008237Y0241296D02*
X0011417Y0241296D01*
X0008237Y0240097D02*
X0021654Y0240097D01*
X0021806Y0238899D02*
X0008237Y0238899D01*
X0008237Y0237700D02*
X0022111Y0237700D01*
X0025222Y0235852D02*
X0027584Y0238214D01*
X0027584Y0241757D01*
X0024435Y0241757D02*
X0017348Y0241757D01*
X0017545Y0234104D02*
X0017545Y0234104D01*
X0017545Y0232906D02*
X0017545Y0232906D01*
X0017545Y0231915D02*
X0017348Y0231718D01*
X0017545Y0231707D02*
X0017545Y0231707D01*
X0017545Y0231915D02*
X0017545Y0231915D01*
X0017545Y0230546D02*
X0017545Y0230546D01*
X0016945Y0228112D02*
X0018145Y0228112D01*
X0018145Y0226913D02*
X0016945Y0226913D01*
X0016945Y0225715D02*
X0018145Y0225715D01*
X0018381Y0220921D02*
X0037008Y0220921D01*
X0037008Y0221472D02*
X0037008Y0218909D01*
X0037117Y0218502D01*
X0037328Y0218137D01*
X0037329Y0218135D01*
X0037328Y0218134D01*
X0037117Y0217769D01*
X0037008Y0217362D01*
X0037008Y0214798D01*
X0040567Y0214798D01*
X0040567Y0218751D01*
X0040567Y0221472D01*
X0037008Y0221472D01*
X0037008Y0219722D02*
X0019579Y0219722D01*
X0020048Y0218524D02*
X0037111Y0218524D01*
X0037008Y0217325D02*
X0020048Y0217325D01*
X0020048Y0216127D02*
X0037008Y0216127D01*
X0037008Y0214928D02*
X0020048Y0214928D01*
X0020048Y0213730D02*
X0040567Y0213730D01*
X0040567Y0213598D02*
X0037008Y0213598D01*
X0037008Y0211035D01*
X0037117Y0210628D01*
X0037328Y0210263D01*
X0037625Y0209965D01*
X0037990Y0209755D01*
X0038397Y0209646D01*
X0040567Y0209646D01*
X0040567Y0213598D01*
X0040567Y0212531D02*
X0041767Y0212531D01*
X0041767Y0211333D02*
X0040567Y0211333D01*
X0040567Y0210134D02*
X0041767Y0210134D01*
X0042502Y0207737D02*
X0020040Y0207737D01*
X0020048Y0208936D02*
X0043700Y0208936D01*
X0044877Y0210134D02*
X0044899Y0210134D01*
X0047741Y0205340D02*
X0053985Y0205340D01*
X0054654Y0206539D02*
X0048940Y0206539D01*
X0048647Y0210065D02*
X0040970Y0202387D01*
X0040970Y0198254D01*
X0038906Y0204142D02*
X0020945Y0204142D01*
X0021542Y0202943D02*
X0038278Y0202943D01*
X0040105Y0205340D02*
X0020081Y0205340D01*
X0019412Y0206539D02*
X0041303Y0206539D01*
X0037457Y0210134D02*
X0020048Y0210134D01*
X0020048Y0211333D02*
X0037008Y0211333D01*
X0037008Y0212531D02*
X0020048Y0212531D01*
X0022001Y0201745D02*
X0028834Y0201745D01*
X0028543Y0200546D02*
X0022262Y0200546D01*
X0022424Y0199348D02*
X0028543Y0199348D01*
X0028543Y0196951D02*
X0022391Y0196951D01*
X0022510Y0198149D02*
X0032496Y0198149D01*
X0032496Y0199348D02*
X0033696Y0199348D01*
X0033696Y0200546D02*
X0032496Y0200546D01*
X0032496Y0201745D02*
X0033696Y0201745D01*
X0029021Y0194554D02*
X0021748Y0194554D01*
X0022171Y0195752D02*
X0028543Y0195752D01*
X0028743Y0193355D02*
X0021213Y0193355D01*
X0020559Y0192157D02*
X0028743Y0192157D01*
X0028743Y0190958D02*
X0019596Y0190958D01*
X0019793Y0189760D02*
X0028743Y0189760D01*
X0028743Y0188561D02*
X0020048Y0188561D01*
X0020048Y0187363D02*
X0029015Y0187363D01*
X0033096Y0190773D02*
X0040970Y0190773D01*
X0046876Y0184868D01*
X0046876Y0163017D01*
X0046482Y0162624D01*
X0046482Y0157273D01*
X0049182Y0157400D02*
X0054018Y0157400D01*
X0054018Y0158598D02*
X0049182Y0158598D01*
X0049182Y0159797D02*
X0054018Y0159797D01*
X0054018Y0160995D02*
X0049914Y0160995D01*
X0050411Y0162194D02*
X0054018Y0162194D01*
X0054018Y0163392D02*
X0050457Y0163392D01*
X0050100Y0164591D02*
X0054018Y0164591D01*
X0054018Y0165789D02*
X0049576Y0165789D01*
X0049576Y0166988D02*
X0054018Y0166988D01*
X0054018Y0168186D02*
X0049576Y0168186D01*
X0049576Y0175377D02*
X0054018Y0175377D01*
X0054018Y0174179D02*
X0053787Y0174179D01*
X0053787Y0172980D02*
X0054018Y0172980D01*
X0054018Y0171782D02*
X0053787Y0171782D01*
X0053787Y0170583D02*
X0054018Y0170583D01*
X0054018Y0169385D02*
X0053192Y0169385D01*
X0054018Y0176576D02*
X0049576Y0176576D01*
X0049576Y0177774D02*
X0054018Y0177774D01*
X0054018Y0178973D02*
X0049576Y0178973D01*
X0049576Y0180171D02*
X0054018Y0180171D01*
X0054018Y0181370D02*
X0049576Y0181370D01*
X0049576Y0182569D02*
X0054018Y0182569D01*
X0054018Y0183767D02*
X0049576Y0183767D01*
X0049576Y0184966D02*
X0054018Y0184966D01*
X0054018Y0186164D02*
X0049261Y0186164D01*
X0048199Y0187363D02*
X0054018Y0187363D01*
X0054018Y0188561D02*
X0047001Y0188561D01*
X0045802Y0189760D02*
X0054273Y0189760D01*
X0054470Y0190958D02*
X0045323Y0190958D01*
X0045323Y0192157D02*
X0053507Y0192157D01*
X0052853Y0193355D02*
X0045323Y0193355D01*
X0044762Y0194554D02*
X0052318Y0194554D01*
X0051895Y0195752D02*
X0045323Y0195752D01*
X0045323Y0196951D02*
X0051675Y0196951D01*
X0051556Y0198149D02*
X0045323Y0198149D01*
X0045323Y0199348D02*
X0051642Y0199348D01*
X0051804Y0200546D02*
X0045323Y0200546D01*
X0044971Y0201745D02*
X0052065Y0201745D01*
X0052524Y0202943D02*
X0045344Y0202943D01*
X0046543Y0204142D02*
X0053122Y0204142D01*
X0054026Y0207737D02*
X0051187Y0207737D01*
X0051974Y0208936D02*
X0054018Y0208936D01*
X0054018Y0210134D02*
X0052228Y0210134D01*
X0052606Y0211333D02*
X0054018Y0211333D01*
X0054018Y0212531D02*
X0052606Y0212531D01*
X0052606Y0213730D02*
X0054018Y0213730D01*
X0054018Y0214928D02*
X0052606Y0214928D01*
X0052606Y0216127D02*
X0054018Y0216127D01*
X0054018Y0217325D02*
X0052606Y0217325D01*
X0052590Y0218524D02*
X0054018Y0218524D01*
X0054487Y0219722D02*
X0052606Y0219722D01*
X0052606Y0220921D02*
X0055685Y0220921D01*
X0055189Y0220424D02*
X0055189Y0220424D01*
X0056884Y0222119D02*
X0052606Y0222119D01*
X0052606Y0223318D02*
X0058082Y0223318D01*
X0059281Y0224516D02*
X0052606Y0224516D01*
X0052496Y0225715D02*
X0060479Y0225715D01*
X0061678Y0226913D02*
X0059208Y0226913D01*
X0059496Y0228112D02*
X0062876Y0228112D01*
X0064075Y0229310D02*
X0059496Y0229310D01*
X0059496Y0230509D02*
X0065273Y0230509D01*
X0065829Y0231707D02*
X0059496Y0231707D01*
X0059428Y0232906D02*
X0065829Y0232906D01*
X0065829Y0234104D02*
X0059037Y0234104D01*
X0057997Y0235303D02*
X0065829Y0235303D01*
X0065829Y0236502D02*
X0056798Y0236502D01*
X0055600Y0237700D02*
X0065829Y0237700D01*
X0065829Y0238899D02*
X0054049Y0238899D01*
X0052413Y0240097D02*
X0065829Y0240097D01*
X0065829Y0241296D02*
X0062649Y0241296D01*
X0063930Y0242494D02*
X0065829Y0242494D01*
X0065829Y0243693D02*
X0064671Y0243693D01*
X0065102Y0244891D02*
X0065829Y0244891D01*
X0065829Y0246090D02*
X0059759Y0246090D01*
X0059159Y0246285D02*
X0059159Y0244198D01*
X0056718Y0241757D01*
X0049631Y0241757D01*
X0046482Y0238214D02*
X0048844Y0235852D01*
X0046482Y0238214D02*
X0046482Y0241757D01*
X0045263Y0235303D02*
X0044239Y0235303D01*
X0044390Y0234104D02*
X0045692Y0234104D01*
X0046280Y0232906D02*
X0044932Y0232906D01*
X0044932Y0231707D02*
X0045805Y0231707D01*
X0045347Y0230509D02*
X0044313Y0230509D01*
X0044932Y0229310D02*
X0045347Y0229310D01*
X0044932Y0228112D02*
X0045835Y0228112D01*
X0045947Y0226913D02*
X0044932Y0226913D01*
X0048647Y0229159D02*
X0048647Y0222072D01*
X0048647Y0214198D01*
X0048647Y0210065D01*
X0041767Y0214928D02*
X0040567Y0214928D01*
X0040567Y0216127D02*
X0041767Y0216127D01*
X0041767Y0217325D02*
X0040567Y0217325D01*
X0040567Y0218524D02*
X0041767Y0218524D01*
X0041767Y0219722D02*
X0040567Y0219722D01*
X0040567Y0220921D02*
X0041767Y0220921D01*
X0040773Y0231707D02*
X0040773Y0231707D01*
X0039887Y0234769D02*
X0041954Y0236836D01*
X0041954Y0241757D01*
X0039986Y0241757D02*
X0039986Y0238805D01*
X0039002Y0237820D01*
X0037033Y0237820D01*
X0038017Y0238805D01*
X0038017Y0241757D01*
X0036049Y0238805D02*
X0037033Y0237820D01*
X0035065Y0237820D01*
X0034080Y0238805D01*
X0034080Y0241757D01*
X0036049Y0241757D02*
X0036049Y0238805D01*
X0036147Y0234769D02*
X0039887Y0234769D01*
X0036147Y0234769D02*
X0033293Y0231915D01*
X0033293Y0229946D01*
X0030143Y0235065D02*
X0025025Y0229946D01*
X0021692Y0234104D02*
X0021161Y0234104D01*
X0021088Y0225715D02*
X0021765Y0225715D01*
X0028285Y0225715D02*
X0030033Y0225715D01*
X0029334Y0226913D02*
X0028984Y0226913D01*
X0028984Y0228112D02*
X0029334Y0228112D01*
X0029334Y0229310D02*
X0028984Y0229310D01*
X0030143Y0235065D02*
X0030143Y0241757D01*
X0036553Y0225715D02*
X0037159Y0225715D01*
X0048647Y0229159D02*
X0049435Y0229946D01*
X0052515Y0226913D02*
X0053047Y0226913D01*
X0058559Y0241296D02*
X0059759Y0241296D01*
X0059759Y0242494D02*
X0058559Y0242494D01*
X0058559Y0243693D02*
X0059759Y0243693D01*
X0059759Y0244891D02*
X0058559Y0244891D01*
X0059159Y0246285D02*
X0060655Y0244789D01*
X0059159Y0246285D02*
X0059159Y0262033D01*
X0058559Y0260472D02*
X0059759Y0260472D01*
X0059759Y0259273D02*
X0058559Y0259273D01*
X0058559Y0258075D02*
X0059759Y0258075D01*
X0059759Y0256876D02*
X0058559Y0256876D01*
X0058559Y0255678D02*
X0059759Y0255678D01*
X0059759Y0252354D02*
X0059759Y0246885D01*
X0065228Y0246885D01*
X0065097Y0247711D01*
X0064801Y0248622D01*
X0064366Y0249476D01*
X0063803Y0250251D01*
X0063125Y0250929D01*
X0062350Y0251492D01*
X0061496Y0251927D01*
X0060585Y0252223D01*
X0059759Y0252354D01*
X0059759Y0252082D02*
X0058559Y0252082D01*
X0058559Y0250884D02*
X0059759Y0250884D01*
X0059759Y0249685D02*
X0058559Y0249685D01*
X0058559Y0248487D02*
X0059759Y0248487D01*
X0059759Y0247288D02*
X0058559Y0247288D01*
X0061019Y0252082D02*
X0065829Y0252082D01*
X0065829Y0250884D02*
X0063170Y0250884D01*
X0064214Y0249685D02*
X0065829Y0249685D01*
X0065829Y0248487D02*
X0064845Y0248487D01*
X0065164Y0247288D02*
X0065829Y0247288D01*
X0065829Y0253281D02*
X0057450Y0253281D01*
X0057450Y0254479D02*
X0065829Y0254479D01*
X0065829Y0255678D02*
X0062572Y0255678D01*
X0064199Y0256876D02*
X0065829Y0256876D01*
X0065829Y0258075D02*
X0065199Y0258075D01*
X0065820Y0259273D02*
X0065829Y0259273D01*
X0041761Y0186164D02*
X0020048Y0186164D01*
X0020048Y0184966D02*
X0042959Y0184966D01*
X0044158Y0183767D02*
X0020048Y0183767D01*
X0020048Y0182569D02*
X0044176Y0182569D01*
X0044176Y0181370D02*
X0020048Y0181370D01*
X0020048Y0180171D02*
X0044176Y0180171D01*
X0044176Y0178973D02*
X0020048Y0178973D01*
X0020048Y0177774D02*
X0044176Y0177774D01*
X0044176Y0176576D02*
X0020048Y0176576D01*
X0020048Y0175377D02*
X0044176Y0175377D01*
X0044176Y0174179D02*
X0025835Y0174179D01*
X0025835Y0174290D02*
X0025015Y0175110D01*
X0021099Y0175110D01*
X0020279Y0174290D01*
X0020279Y0169981D01*
X0021099Y0169161D01*
X0025015Y0169161D01*
X0025835Y0169981D01*
X0025835Y0174290D01*
X0025835Y0172980D02*
X0044176Y0172980D01*
X0044176Y0171782D02*
X0025835Y0171782D01*
X0025835Y0170583D02*
X0044176Y0170583D01*
X0044176Y0169385D02*
X0025239Y0169385D01*
X0025274Y0159797D02*
X0020048Y0159797D01*
X0020048Y0160995D02*
X0037931Y0160995D01*
X0037033Y0160546D02*
X0037033Y0157273D01*
X0037033Y0160546D01*
X0037033Y0159797D02*
X0037033Y0159797D01*
X0037033Y0158598D02*
X0037033Y0158598D01*
X0037033Y0157400D02*
X0037033Y0157400D01*
X0037033Y0157273D02*
X0037033Y0157273D01*
X0037033Y0156201D02*
X0037033Y0156201D01*
X0037033Y0155003D02*
X0037033Y0155003D01*
X0037006Y0153804D02*
X0054018Y0153804D01*
X0054018Y0152606D02*
X0053864Y0152606D01*
X0052637Y0152606D02*
X0052637Y0152606D01*
X0052637Y0151407D02*
X0052637Y0151407D01*
X0052637Y0150209D02*
X0052637Y0150209D01*
X0054018Y0155003D02*
X0049046Y0155003D01*
X0049063Y0156201D02*
X0054018Y0156201D01*
X0047621Y0153436D02*
X0047621Y0150547D01*
X0043108Y0150547D01*
X0043108Y0152047D01*
X0043217Y0152454D01*
X0043428Y0152819D01*
X0043726Y0153117D01*
X0044091Y0153327D01*
X0044498Y0153436D01*
X0047621Y0153436D01*
X0047621Y0152606D02*
X0047799Y0152606D01*
X0047799Y0151407D02*
X0047621Y0151407D01*
X0047710Y0145458D02*
X0041534Y0145458D01*
X0032309Y0154684D01*
X0032309Y0157273D01*
X0029998Y0159797D02*
X0029895Y0159797D01*
X0027584Y0157273D02*
X0027584Y0155590D01*
X0030563Y0152611D01*
X0030758Y0152416D01*
X0042716Y0140458D01*
X0047710Y0140458D01*
X0043308Y0137025D02*
X0039377Y0137025D01*
X0039377Y0135827D02*
X0043308Y0135827D01*
X0043308Y0134628D02*
X0039377Y0134628D01*
X0039377Y0133430D02*
X0043379Y0133430D01*
X0043308Y0132231D02*
X0039226Y0132231D01*
X0038394Y0131033D02*
X0043308Y0131033D01*
X0043308Y0129834D02*
X0037196Y0129834D01*
X0035997Y0128635D02*
X0043308Y0128635D01*
X0043329Y0127437D02*
X0035796Y0127437D01*
X0035796Y0126238D02*
X0043308Y0126238D01*
X0043308Y0125040D02*
X0035796Y0125040D01*
X0035796Y0123841D02*
X0043308Y0123841D01*
X0043535Y0122643D02*
X0035832Y0122643D01*
X0037030Y0121444D02*
X0043308Y0121444D01*
X0043308Y0120246D02*
X0038229Y0120246D01*
X0039427Y0119047D02*
X0043308Y0119047D01*
X0043960Y0117849D02*
X0040626Y0117849D01*
X0041824Y0116650D02*
X0050054Y0116650D01*
X0051254Y0115452D02*
X0043023Y0115452D01*
X0040872Y0113785D02*
X0033096Y0121560D01*
X0033096Y0129553D01*
X0036677Y0133134D01*
X0036677Y0136942D01*
X0033096Y0140523D01*
X0033096Y0143332D01*
X0033575Y0143812D01*
X0033575Y0145780D01*
X0028897Y0150458D01*
X0026356Y0150458D01*
X0025551Y0153804D02*
X0020048Y0153804D01*
X0020048Y0152606D02*
X0022144Y0152606D01*
X0021954Y0151407D02*
X0020048Y0151407D01*
X0020048Y0150209D02*
X0021954Y0150209D01*
X0021954Y0149010D02*
X0020048Y0149010D01*
X0020048Y0147812D02*
X0022349Y0147812D01*
X0021954Y0146613D02*
X0020048Y0146613D01*
X0020048Y0145415D02*
X0021954Y0145415D01*
X0021954Y0144216D02*
X0020048Y0144216D01*
X0020048Y0143018D02*
X0022437Y0143018D01*
X0021954Y0141819D02*
X0020048Y0141819D01*
X0020048Y0140621D02*
X0021954Y0140621D01*
X0021954Y0139422D02*
X0020048Y0139422D01*
X0020048Y0138224D02*
X0022231Y0138224D01*
X0021954Y0137025D02*
X0020048Y0137025D01*
X0020048Y0135827D02*
X0021954Y0135827D01*
X0021954Y0134628D02*
X0020048Y0134628D01*
X0020048Y0133430D02*
X0022025Y0133430D01*
X0021954Y0132231D02*
X0020048Y0132231D01*
X0020048Y0131033D02*
X0021954Y0131033D01*
X0021954Y0129834D02*
X0020048Y0129834D01*
X0020048Y0128635D02*
X0021954Y0128635D01*
X0021975Y0127437D02*
X0020048Y0127437D01*
X0020048Y0126238D02*
X0021954Y0126238D01*
X0021954Y0125040D02*
X0020048Y0125040D01*
X0020048Y0123841D02*
X0021954Y0123841D01*
X0022181Y0122643D02*
X0020048Y0122643D01*
X0020048Y0121444D02*
X0021954Y0121444D01*
X0021954Y0120246D02*
X0020048Y0120246D01*
X0020048Y0119047D02*
X0021954Y0119047D01*
X0022605Y0117849D02*
X0020048Y0117849D01*
X0020048Y0116650D02*
X0030369Y0116650D01*
X0030593Y0115452D02*
X0020048Y0115452D01*
X0020048Y0114253D02*
X0030593Y0114253D01*
X0030593Y0113055D02*
X0020048Y0113055D01*
X0020048Y0111856D02*
X0029758Y0111856D01*
X0029334Y0110658D02*
X0020048Y0110658D01*
X0020048Y0109459D02*
X0029334Y0109459D01*
X0029334Y0108261D02*
X0020048Y0108261D01*
X0020048Y0107062D02*
X0029334Y0107062D01*
X0029334Y0105864D02*
X0020048Y0105864D01*
X0020048Y0104665D02*
X0029334Y0104665D01*
X0032365Y0103467D02*
X0020048Y0103467D01*
X0020048Y0102268D02*
X0032365Y0102268D01*
X0032365Y0101070D02*
X0020048Y0101070D01*
X0020048Y0099871D02*
X0032365Y0099871D01*
X0032365Y0098673D02*
X0020048Y0098673D01*
X0020048Y0097474D02*
X0032365Y0097474D01*
X0032365Y0096276D02*
X0020048Y0096276D01*
X0020048Y0095077D02*
X0032365Y0095077D01*
X0032365Y0093879D02*
X0020048Y0093879D01*
X0020048Y0092680D02*
X0032365Y0092680D01*
X0032365Y0091482D02*
X0020048Y0091482D01*
X0021066Y0090283D02*
X0032365Y0090283D01*
X0032365Y0089085D02*
X0022264Y0089085D01*
X0023463Y0087886D02*
X0032365Y0087886D01*
X0032365Y0086688D02*
X0024661Y0086688D01*
X0025860Y0085489D02*
X0032365Y0085489D01*
X0032365Y0084291D02*
X0027058Y0084291D01*
X0028257Y0083092D02*
X0032365Y0083092D01*
X0032365Y0081894D02*
X0029456Y0081894D01*
X0029891Y0080695D02*
X0032365Y0080695D01*
X0032365Y0079497D02*
X0029891Y0079497D01*
X0029891Y0078298D02*
X0032365Y0078298D01*
X0032365Y0077100D02*
X0029891Y0077100D01*
X0029891Y0075901D02*
X0032365Y0075901D01*
X0032365Y0074702D02*
X0029891Y0074702D01*
X0029891Y0073504D02*
X0032365Y0073504D01*
X0032365Y0072305D02*
X0029891Y0072305D01*
X0029891Y0071107D02*
X0032365Y0071107D01*
X0032365Y0069908D02*
X0029869Y0069908D01*
X0029221Y0068710D02*
X0032365Y0068710D01*
X0032365Y0067511D02*
X0027191Y0067511D01*
X0027191Y0066313D02*
X0032365Y0066313D01*
X0032365Y0065114D02*
X0027191Y0065114D01*
X0027191Y0063916D02*
X0032365Y0063916D01*
X0032365Y0062717D02*
X0027191Y0062717D01*
X0027191Y0061519D02*
X0032365Y0061519D01*
X0032365Y0060320D02*
X0027191Y0060320D01*
X0027191Y0059122D02*
X0032365Y0059122D01*
X0032365Y0057923D02*
X0027191Y0057923D01*
X0027191Y0056725D02*
X0032365Y0056725D01*
X0032365Y0055526D02*
X0027191Y0055526D01*
X0027191Y0054328D02*
X0032365Y0054328D01*
X0032365Y0053129D02*
X0028653Y0053129D01*
X0029650Y0051931D02*
X0032365Y0051931D01*
X0032365Y0050732D02*
X0029891Y0050732D01*
X0029891Y0049534D02*
X0032365Y0049534D01*
X0032365Y0048335D02*
X0029891Y0048335D01*
X0029891Y0047137D02*
X0032365Y0047137D01*
X0032365Y0045938D02*
X0029891Y0045938D01*
X0029891Y0044740D02*
X0032365Y0044740D01*
X0032365Y0043541D02*
X0029891Y0043541D01*
X0029891Y0042343D02*
X0032365Y0042343D01*
X0032365Y0041144D02*
X0029891Y0041144D01*
X0029891Y0039946D02*
X0032365Y0039946D01*
X0032365Y0038747D02*
X0029891Y0038747D01*
X0029891Y0037549D02*
X0032365Y0037549D01*
X0032365Y0036350D02*
X0029891Y0036350D01*
X0029891Y0035152D02*
X0032365Y0035152D01*
X0032365Y0033953D02*
X0029891Y0033953D01*
X0029891Y0032755D02*
X0032365Y0032755D01*
X0032365Y0031556D02*
X0029891Y0031556D01*
X0029891Y0030358D02*
X0032365Y0030358D01*
X0032365Y0029159D02*
X0029891Y0029159D01*
X0029891Y0027961D02*
X0032365Y0027961D01*
X0032365Y0026762D02*
X0029891Y0026762D01*
X0029382Y0025564D02*
X0032365Y0025564D01*
X0032365Y0024365D02*
X0028183Y0024365D01*
X0026985Y0023166D02*
X0032365Y0023166D01*
X0032365Y0021968D02*
X0025786Y0021968D01*
X0024588Y0020769D02*
X0032365Y0020769D01*
X0032365Y0019571D02*
X0023389Y0019571D01*
X0022191Y0018372D02*
X0032365Y0018372D01*
X0030644Y0014777D02*
X0030467Y0014777D01*
X0031128Y0011443D02*
X0029159Y0011443D01*
X0031128Y0011443D02*
X0035065Y0015380D01*
X0035065Y0106128D01*
X0033293Y0107899D01*
X0033293Y0117545D01*
X0030380Y0120458D01*
X0026356Y0120458D01*
X0026356Y0135458D02*
X0033096Y0135458D01*
X0036817Y0140621D02*
X0038735Y0140621D01*
X0038015Y0139422D02*
X0039934Y0139422D01*
X0039069Y0138224D02*
X0041132Y0138224D01*
X0038207Y0139231D02*
X0038207Y0139231D01*
X0037536Y0141819D02*
X0036345Y0141819D01*
X0040602Y0150209D02*
X0043108Y0150209D01*
X0043108Y0151407D02*
X0039404Y0151407D01*
X0038205Y0152606D02*
X0043305Y0152606D01*
X0043108Y0149010D02*
X0041801Y0149010D01*
X0041757Y0157273D02*
X0041757Y0162230D01*
X0040970Y0163017D01*
X0043262Y0165789D02*
X0044176Y0165789D01*
X0044176Y0166988D02*
X0020048Y0166988D01*
X0020048Y0168186D02*
X0044176Y0168186D01*
X0038678Y0165789D02*
X0020048Y0165789D01*
X0020048Y0164591D02*
X0037746Y0164591D01*
X0037389Y0163392D02*
X0020048Y0163392D01*
X0020048Y0162194D02*
X0037435Y0162194D01*
X0025003Y0158598D02*
X0020048Y0158598D01*
X0020048Y0157400D02*
X0024884Y0157400D01*
X0024884Y0156201D02*
X0020048Y0156201D01*
X0020048Y0155003D02*
X0024905Y0155003D01*
X0020875Y0169385D02*
X0020048Y0169385D01*
X0020048Y0170583D02*
X0020279Y0170583D01*
X0020279Y0171782D02*
X0020048Y0171782D01*
X0020048Y0172980D02*
X0020279Y0172980D01*
X0020279Y0174179D02*
X0020048Y0174179D01*
X0040872Y0113785D02*
X0040872Y0107801D01*
X0040773Y0107899D01*
X0040872Y0107801D02*
X0040970Y0107702D01*
X0056718Y0107702D01*
X0064592Y0107702D01*
X0074986Y0107702D01*
X0075183Y0107899D01*
X0075025Y0117742D02*
X0075183Y0117899D01*
X0075025Y0117742D02*
X0052781Y0117742D01*
X0050065Y0120458D01*
X0047710Y0120458D01*
X0044308Y0111856D02*
X0070238Y0111856D01*
X0065192Y0098673D02*
X0063992Y0098673D01*
X0063992Y0099871D02*
X0057318Y0099871D01*
X0057318Y0098673D02*
X0056118Y0098673D01*
X0056118Y0099871D02*
X0037765Y0099871D01*
X0037765Y0098673D02*
X0052165Y0098673D01*
X0052165Y0097474D02*
X0037765Y0097474D01*
X0037765Y0096276D02*
X0052968Y0096276D01*
X0052165Y0101070D02*
X0037765Y0101070D01*
X0037765Y0102268D02*
X0052165Y0102268D01*
X0052314Y0103467D02*
X0037765Y0103467D01*
X0037765Y0095077D02*
X0068547Y0095077D01*
X0069941Y0093879D02*
X0037765Y0093879D01*
X0037765Y0092680D02*
X0055692Y0092680D01*
X0054199Y0091482D02*
X0037765Y0091482D01*
X0037765Y0090283D02*
X0053000Y0090283D01*
X0051802Y0089085D02*
X0037765Y0089085D01*
X0037765Y0087886D02*
X0050603Y0087886D01*
X0049405Y0086688D02*
X0037765Y0086688D01*
X0037765Y0085489D02*
X0048206Y0085489D01*
X0047008Y0084291D02*
X0037765Y0084291D01*
X0037765Y0083092D02*
X0045809Y0083092D01*
X0044611Y0081894D02*
X0037765Y0081894D01*
X0037765Y0080695D02*
X0044176Y0080695D01*
X0044176Y0079497D02*
X0037765Y0079497D01*
X0037765Y0078298D02*
X0044176Y0078298D01*
X0044176Y0077100D02*
X0037765Y0077100D01*
X0037765Y0075901D02*
X0044176Y0075901D01*
X0044176Y0074702D02*
X0037765Y0074702D01*
X0037765Y0073504D02*
X0044176Y0073504D01*
X0044176Y0072305D02*
X0037765Y0072305D01*
X0037765Y0071107D02*
X0044176Y0071107D01*
X0044197Y0069908D02*
X0037765Y0069908D01*
X0037765Y0068710D02*
X0044845Y0068710D01*
X0046876Y0067511D02*
X0037765Y0067511D01*
X0037765Y0066313D02*
X0046876Y0066313D01*
X0046876Y0065114D02*
X0037765Y0065114D01*
X0037765Y0063916D02*
X0046876Y0063916D01*
X0046876Y0062717D02*
X0037765Y0062717D01*
X0037765Y0061519D02*
X0046876Y0061519D01*
X0046876Y0060320D02*
X0037765Y0060320D01*
X0037765Y0059122D02*
X0046876Y0059122D01*
X0046876Y0057923D02*
X0037765Y0057923D01*
X0037765Y0056725D02*
X0046876Y0056725D01*
X0046876Y0055526D02*
X0037765Y0055526D01*
X0037765Y0054328D02*
X0046876Y0054328D01*
X0045413Y0053129D02*
X0037765Y0053129D01*
X0037765Y0051931D02*
X0044416Y0051931D01*
X0044176Y0050732D02*
X0037765Y0050732D01*
X0037765Y0049534D02*
X0044176Y0049534D01*
X0044176Y0048335D02*
X0037765Y0048335D01*
X0037765Y0047137D02*
X0044176Y0047137D01*
X0044176Y0045938D02*
X0037765Y0045938D01*
X0037765Y0044740D02*
X0044176Y0044740D01*
X0044176Y0043541D02*
X0037765Y0043541D01*
X0037765Y0042343D02*
X0044176Y0042343D01*
X0044176Y0041144D02*
X0037765Y0041144D01*
X0037765Y0039946D02*
X0044176Y0039946D01*
X0044176Y0038747D02*
X0037765Y0038747D01*
X0037765Y0037549D02*
X0044176Y0037549D01*
X0044176Y0036350D02*
X0037765Y0036350D01*
X0037765Y0035152D02*
X0044176Y0035152D01*
X0044176Y0033953D02*
X0037765Y0033953D01*
X0037765Y0032755D02*
X0044176Y0032755D01*
X0044176Y0031556D02*
X0037765Y0031556D01*
X0037765Y0030358D02*
X0044176Y0030358D01*
X0044176Y0029159D02*
X0037765Y0029159D01*
X0037765Y0027961D02*
X0044176Y0027961D01*
X0044176Y0026762D02*
X0037765Y0026762D01*
X0037765Y0025564D02*
X0044684Y0025564D01*
X0045883Y0024365D02*
X0037765Y0024365D01*
X0037765Y0023166D02*
X0047081Y0023166D01*
X0048280Y0021968D02*
X0037765Y0021968D01*
X0037765Y0020769D02*
X0049478Y0020769D01*
X0050677Y0019571D02*
X0037765Y0019571D01*
X0037765Y0018372D02*
X0051875Y0018372D01*
X0053074Y0017174D02*
X0037765Y0017174D01*
X0037082Y0013578D02*
X0042027Y0013578D01*
X0041442Y0012380D02*
X0035883Y0012380D01*
X0034685Y0011181D02*
X0041326Y0011181D01*
X0041636Y0009983D02*
X0033486Y0009983D01*
X0031766Y0008784D02*
X0042501Y0008784D01*
X0050583Y0005189D02*
X0023483Y0005189D01*
X0022285Y0006387D02*
X0051782Y0006387D01*
X0080424Y0093879D02*
X0091420Y0093879D01*
X0091420Y0095077D02*
X0081818Y0095077D01*
X0082492Y0096276D02*
X0091420Y0096276D01*
X0091420Y0097474D02*
X0082773Y0097474D01*
X0082718Y0098673D02*
X0091420Y0098673D01*
X0091420Y0099871D02*
X0082341Y0099871D01*
X0081518Y0101070D02*
X0091420Y0101070D01*
X0091420Y0102268D02*
X0079622Y0102268D01*
X0091306Y0122643D02*
X0051885Y0122643D01*
X0052365Y0110658D02*
X0044732Y0110658D01*
X0044732Y0104665D02*
X0052365Y0104665D01*
X0056118Y0097474D02*
X0057318Y0097474D01*
X0057318Y0096276D02*
X0056118Y0096276D01*
X0060468Y0096276D02*
X0060842Y0096276D01*
X0063992Y0096276D02*
X0065192Y0096276D01*
X0065192Y0097474D02*
X0063992Y0097474D01*
D22*
X0052637Y0149238D03*
X0046876Y0163017D03*
X0040970Y0163017D03*
X0033096Y0143332D03*
X0033096Y0135458D03*
X0048647Y0210261D03*
X0040773Y0229946D03*
X0048844Y0235852D03*
X0025222Y0235852D03*
X0017545Y0231915D03*
X0029159Y0011443D03*
X0044907Y0011443D03*
D23*
X0048647Y0229946D02*
X0049435Y0229946D01*
X0048844Y0235852D02*
X0052781Y0235852D01*
X0056128Y0232506D01*
X0056128Y0229946D01*
M02*
