G75*
%MOIN*%
%OFA0B0*%
%FSLAX25Y25*%
%IPPOS*%
%LPD*%
%AMOC8*
5,1,8,0,0,1.08239X$1,22.5*
%
%ADD10C,0.00787*%
%ADD11C,0.00400*%
D10*
X0026797Y0011049D02*
X0026797Y0011049D01*
X0026836Y0011051D01*
X0026874Y0011057D01*
X0026911Y0011066D01*
X0026948Y0011079D01*
X0026983Y0011096D01*
X0027016Y0011115D01*
X0027047Y0011138D01*
X0027076Y0011164D01*
X0027102Y0011193D01*
X0027125Y0011224D01*
X0027144Y0011257D01*
X0027161Y0011292D01*
X0027174Y0011329D01*
X0027183Y0011366D01*
X0027189Y0011404D01*
X0027191Y0011443D01*
X0027189Y0011482D01*
X0027183Y0011520D01*
X0027174Y0011557D01*
X0027161Y0011594D01*
X0027144Y0011629D01*
X0027125Y0011662D01*
X0027102Y0011693D01*
X0027076Y0011722D01*
X0027047Y0011748D01*
X0027016Y0011771D01*
X0026983Y0011790D01*
X0026948Y0011807D01*
X0026911Y0011820D01*
X0026874Y0011829D01*
X0026836Y0011835D01*
X0026797Y0011837D01*
X0026797Y0011836D02*
X0026797Y0011836D01*
X0026797Y0011837D02*
X0026758Y0011835D01*
X0026720Y0011829D01*
X0026683Y0011820D01*
X0026646Y0011807D01*
X0026611Y0011790D01*
X0026578Y0011771D01*
X0026547Y0011748D01*
X0026518Y0011722D01*
X0026492Y0011693D01*
X0026469Y0011662D01*
X0026450Y0011629D01*
X0026433Y0011594D01*
X0026420Y0011557D01*
X0026411Y0011520D01*
X0026405Y0011482D01*
X0026403Y0011443D01*
X0026405Y0011404D01*
X0026411Y0011366D01*
X0026420Y0011329D01*
X0026433Y0011292D01*
X0026450Y0011257D01*
X0026469Y0011224D01*
X0026492Y0011193D01*
X0026518Y0011164D01*
X0026547Y0011138D01*
X0026578Y0011115D01*
X0026611Y0011096D01*
X0026646Y0011079D01*
X0026683Y0011066D01*
X0026720Y0011057D01*
X0026758Y0011051D01*
X0026797Y0011049D01*
D11*
X0032428Y0009143D02*
X0034983Y0009143D01*
X0033706Y0009143D02*
X0033706Y0013743D01*
X0034983Y0012720D01*
X0036815Y0012465D02*
X0036815Y0010420D01*
X0037326Y0010165D02*
X0036304Y0009143D01*
X0036815Y0010420D02*
X0036817Y0010350D01*
X0036823Y0010279D01*
X0036832Y0010210D01*
X0036846Y0010141D01*
X0036863Y0010072D01*
X0036884Y0010005D01*
X0036909Y0009939D01*
X0036937Y0009875D01*
X0036969Y0009812D01*
X0037004Y0009751D01*
X0037043Y0009692D01*
X0037084Y0009635D01*
X0037129Y0009581D01*
X0037177Y0009529D01*
X0037227Y0009480D01*
X0037281Y0009433D01*
X0037336Y0009390D01*
X0037394Y0009350D01*
X0037454Y0009313D01*
X0037516Y0009280D01*
X0037580Y0009250D01*
X0037645Y0009223D01*
X0037711Y0009200D01*
X0037779Y0009181D01*
X0037848Y0009166D01*
X0037917Y0009154D01*
X0037987Y0009146D01*
X0038058Y0009142D01*
X0038128Y0009142D01*
X0038199Y0009146D01*
X0038269Y0009154D01*
X0038338Y0009166D01*
X0038407Y0009181D01*
X0038475Y0009200D01*
X0038541Y0009223D01*
X0038606Y0009250D01*
X0038670Y0009280D01*
X0038732Y0009313D01*
X0038792Y0009350D01*
X0038850Y0009390D01*
X0038905Y0009433D01*
X0038959Y0009480D01*
X0039009Y0009529D01*
X0039057Y0009581D01*
X0039102Y0009635D01*
X0039143Y0009692D01*
X0039182Y0009751D01*
X0039217Y0009812D01*
X0039249Y0009875D01*
X0039277Y0009939D01*
X0039302Y0010005D01*
X0039323Y0010072D01*
X0039340Y0010141D01*
X0039354Y0010210D01*
X0039363Y0010279D01*
X0039369Y0010350D01*
X0039371Y0010420D01*
X0039371Y0012465D01*
X0039369Y0012535D01*
X0039363Y0012606D01*
X0039354Y0012675D01*
X0039340Y0012744D01*
X0039323Y0012813D01*
X0039302Y0012880D01*
X0039277Y0012946D01*
X0039249Y0013010D01*
X0039217Y0013073D01*
X0039182Y0013134D01*
X0039143Y0013193D01*
X0039102Y0013250D01*
X0039057Y0013304D01*
X0039009Y0013356D01*
X0038959Y0013405D01*
X0038905Y0013452D01*
X0038850Y0013495D01*
X0038792Y0013535D01*
X0038732Y0013572D01*
X0038670Y0013605D01*
X0038606Y0013635D01*
X0038541Y0013662D01*
X0038475Y0013685D01*
X0038407Y0013704D01*
X0038338Y0013719D01*
X0038269Y0013731D01*
X0038199Y0013739D01*
X0038128Y0013743D01*
X0038058Y0013743D01*
X0037987Y0013739D01*
X0037917Y0013731D01*
X0037848Y0013719D01*
X0037779Y0013704D01*
X0037711Y0013685D01*
X0037645Y0013662D01*
X0037580Y0013635D01*
X0037516Y0013605D01*
X0037454Y0013572D01*
X0037394Y0013535D01*
X0037336Y0013495D01*
X0037281Y0013452D01*
X0037227Y0013405D01*
X0037177Y0013356D01*
X0037129Y0013304D01*
X0037084Y0013250D01*
X0037043Y0013193D01*
X0037004Y0013134D01*
X0036969Y0013073D01*
X0036937Y0013010D01*
X0036909Y0012946D01*
X0036884Y0012880D01*
X0036863Y0012813D01*
X0036846Y0012744D01*
X0036832Y0012675D01*
X0036823Y0012606D01*
X0036817Y0012535D01*
X0036815Y0012465D01*
M02*
